<svg width="26" height="26" viewBox="0 0 26 26" fill="none" xmlns="http://www.w3.org/2000/svg">
<path d="M17 10.3333V10.2222C17 8.81083 15.8558 7.66667 14.4444 7.66667H11.6667C10.1939 7.66667 9 8.86057 9 10.3333C9 11.8061 10.1939 13 11.6667 13H14.3333C15.8061 13 17 14.1939 17 15.6667C17 17.1394 15.8061 18.3333 14.3333 18.3333H11.6111C10.169 18.3333 9 17.1643 9 15.7222V15.6667M13 20.3333V5.66667M25 13C25 19.6274 19.6274 25 13 25C6.37258 25 1 19.6274 1 13C1 6.37258 6.37258 1 13 1C19.6274 1 25 6.37258 25 13Z" stroke="#A3AED0" stroke-width="2" stroke-linecap="round" stroke-linejoin="round"/>
</svg>
