<svg width="90" height="104" viewBox="0 0 90 104" fill="none" xmlns="http://www.w3.org/2000/svg">
<path d="M89.301 67.9255V21.8195C89.301 10.1023 79.768 0.572998 68.0545 0.572998H21.9447C10.2275 0.572998 0.698242 10.106 0.698242 21.8195V67.8995C0.698242 67.9107 0.698242 67.9181 0.698242 67.9293V82.1842C0.698242 93.9014 10.2313 103.431 21.9485 103.431H68.0582C79.7755 103.431 89.3048 93.8976 89.3048 82.1842L89.301 67.9255ZM5.16336 21.8195C5.16336 12.5656 12.6908 5.03811 21.9447 5.03811H68.0545C77.3085 5.03811 84.8359 12.5656 84.8359 21.8195V67.9255C84.8359 77.1795 77.3085 84.7069 68.0545 84.7069H21.9447C12.6908 84.7069 5.16336 77.1795 5.16336 67.9255V21.8195ZM84.8359 82.1842C84.8359 91.4381 77.3085 98.9656 68.0545 98.9656H21.9447C12.6908 98.9656 5.15964 91.4381 5.15964 82.1842V80.9339C9.05173 85.9423 15.1243 89.1758 21.9447 89.1758H68.0545C74.8713 89.1758 80.9475 85.9423 84.8359 80.9339V82.1842Z" fill="#F4F7FE"/>
<path d="M14.0941 30.7314C15.3257 30.7314 16.3266 29.7305 16.3266 28.4989V22.9286C16.3266 19.2189 19.3443 16.2012 23.0541 16.2012H28.628C29.8597 16.2012 30.8606 15.2003 30.8606 13.9686C30.8606 12.737 29.8597 11.7361 28.628 11.7361H23.0578C16.8848 11.7361 11.8652 16.7593 11.8652 22.9286V28.4989C11.8615 29.7342 12.8625 30.7314 14.0941 30.7314Z" fill="#F4F7FE"/>
<path d="M51.9239 47.5721C54.469 45.5963 56.0913 42.6344 56.0913 39.3265C56.0913 33.3953 50.8709 28.5693 44.456 28.5693C39.6299 28.5693 35.3769 31.2483 33.6206 35.3972C33.1406 36.5321 33.6727 37.8418 34.8076 38.3218C35.9425 38.8018 37.2523 38.2697 37.7323 37.1349C38.7704 34.6828 41.4718 33.0344 44.4523 33.0344C48.4076 33.0344 51.6225 35.8586 51.6225 39.3265C51.6225 42.7981 48.4039 45.626 44.4523 45.626H42.3425C41.1109 45.626 40.1099 46.6269 40.1099 47.8586C40.1099 49.0902 41.1109 50.0911 42.3425 50.0911H44.4523C44.5192 50.0911 44.5862 50.0874 44.6532 50.0874C44.6644 50.0874 44.6755 50.0874 44.6904 50.0874C49.3043 50.0874 53.0588 53.0976 53.0588 56.8C53.0588 60.4874 49.3081 63.4865 44.6941 63.4865C41.1034 63.4865 37.9183 61.6521 36.7648 58.9209C36.2848 57.786 34.975 57.2539 33.8402 57.7339C32.7053 58.2139 32.1732 59.5237 32.6532 60.6586C34.4951 65.0195 39.336 67.9516 44.6941 67.9516C51.7676 67.9516 57.5239 62.9469 57.5239 56.8C57.5239 52.9711 55.3025 49.5888 51.9239 47.5721Z" fill="#FFCE20"/>
</svg>
