<svg width="563" height="563" viewBox="0 0 563 563" fill="none" xmlns="http://www.w3.org/2000/svg">
<path d="M281.13 562.472C436.394 562.472 562.26 489.805 562.26 400.165C562.26 310.525 436.394 237.858 281.13 237.858C125.866 237.858 0 310.525 0 400.165C0 489.805 125.866 562.472 281.13 562.472Z" fill="#F5F5F5"/>
<path d="M329.249 489.407C357.797 489.407 380.94 476.046 380.94 459.564C380.94 443.082 357.797 429.721 329.249 429.721C300.7 429.721 277.557 443.082 277.557 459.564C277.557 476.046 300.7 489.407 329.249 489.407Z" fill="#E0E0E0"/>
<path d="M463.724 471.731C492.273 471.731 515.416 458.37 515.416 441.888C515.416 425.406 492.273 412.045 463.724 412.045C435.176 412.045 412.033 425.406 412.033 441.888C412.033 458.37 435.176 471.731 463.724 471.731Z" fill="#E0E0E0"/>
<path d="M180.982 534.153C209.531 534.153 232.674 520.792 232.674 504.31C232.674 487.828 209.531 474.467 180.982 474.467C152.434 474.467 129.291 487.828 129.291 504.31C129.291 520.792 152.434 534.153 180.982 534.153Z" fill="#E0E0E0"/>
<path d="M96.2627 406.174C96.2627 406.174 94.9135 374.619 81.6846 357.056C68.4557 339.492 52.2412 336.969 44.2089 341.915C38.3378 345.513 39.1247 356.206 49.2806 363.152C59.4366 370.097 79.0114 387.898 82.0719 399.503L96.2627 406.174Z" fill="#37474F"/>
<path d="M87.518 401.577C87.3037 401.561 87.1041 401.462 86.9618 401.301C86.8194 401.14 86.7456 400.929 86.756 400.715C88.1176 372.083 63.0214 354.232 56.1883 351.022C55.9922 350.93 55.8403 350.764 55.7655 350.561C55.6907 350.357 55.699 350.133 55.7886 349.935C55.8833 349.738 56.0514 349.586 56.2568 349.511C56.4622 349.437 56.6887 349.445 56.8879 349.535C63.8958 352.858 89.7915 371.259 88.3924 400.752C88.3795 400.969 88.2818 401.171 88.1204 401.316C87.9591 401.461 87.7471 401.537 87.5305 401.527L87.518 401.577Z" fill="white"/>
<path d="M90.0166 396.205C88.213 396.181 86.4788 395.506 85.1322 394.306C83.5957 392.62 83.7206 390.034 83.0086 387.861C81.8469 384.288 78.3242 381.865 74.6515 381.103C70.9277 380.522 67.1213 380.778 63.5088 381.852C56.1386 383.663 49.0557 379.129 41.6729 379.666C39.0091 379.752 36.4185 380.559 34.1778 382.002C33.0726 382.733 32.1671 383.728 31.5433 384.897C30.9195 386.066 30.5971 387.373 30.6051 388.698C30.8584 390.891 31.9507 392.901 33.6532 394.306C35.3603 395.708 37.2413 396.884 39.2495 397.804L45.7328 401.115C46.8536 401.612 47.887 402.287 48.7933 403.113C49.6499 404.031 50.2959 405.125 50.6864 406.318C51.0769 407.511 51.2025 408.775 51.0544 410.021C50.5547 412.52 48.556 414.418 47.9189 416.867C47.1319 420.077 49.0931 423.512 51.9163 425.249C54.8486 426.836 58.1959 427.49 61.5101 427.123C64.8204 426.935 68.0933 426.273 71.4036 426.211C73.6434 426.051 75.8817 426.541 77.8495 427.622C80.0716 429.231 81.6727 431.556 82.384 434.206C82.8131 435.905 83.4953 437.531 84.4077 439.027C85.5327 440.449 87.0477 441.513 88.7674 442.088C92.0935 443.312 95.747 443.312 99.0732 442.088C101.809 441.039 103.146 437.953 104.17 435.28C105.193 432.481 105.681 429.515 105.606 426.536C105.449 418.878 103.719 411.335 100.522 404.375C98.9857 401.177 96.7747 397.979 93.3769 396.88C92.2765 396.566 91.1528 396.34 90.0166 396.205Z" fill="#455A64"/>
<path d="M97.1121 430.533C96.9611 430.533 96.8137 430.487 96.6905 430.399C96.5674 430.312 96.4745 430.188 96.4251 430.046C88.7176 407.948 52.2537 388.723 38.9624 386.512C38.868 386.496 38.7777 386.462 38.6965 386.411C38.6153 386.361 38.5449 386.295 38.4892 386.217C38.4336 386.139 38.3937 386.052 38.372 385.958C38.3503 385.865 38.3472 385.769 38.3628 385.675C38.3784 385.58 38.4124 385.49 38.4629 385.409C38.5134 385.328 38.5793 385.257 38.6571 385.201C38.7348 385.146 38.8227 385.106 38.9158 385.084C39.0089 385.062 39.1054 385.059 39.1997 385.075C52.7909 387.323 89.9793 406.973 97.9116 429.559C97.945 429.65 97.9599 429.746 97.9553 429.843C97.9507 429.94 97.9267 430.035 97.8847 430.122C97.8428 430.209 97.7838 430.287 97.7112 430.352C97.6385 430.416 97.5538 430.465 97.4619 430.495C97.3496 430.534 97.2301 430.547 97.1121 430.533Z" fill="white"/>
<path d="M64.3331 418.416C64.1936 418.404 64.0604 418.353 63.9497 418.267C63.8389 418.181 63.7554 418.065 63.7091 417.933C63.6629 417.801 63.6559 417.658 63.6891 417.522C63.7222 417.386 63.7941 417.263 63.8959 417.167C69.8582 413.042 76.909 410.778 84.1578 410.658C84.3351 410.682 84.498 410.769 84.616 410.903C84.734 411.037 84.799 411.21 84.799 411.389C84.799 411.568 84.734 411.741 84.616 411.875C84.498 412.01 84.3351 412.097 84.1578 412.12C77.2242 412.288 70.487 414.457 64.7579 418.366C64.6241 418.423 64.4766 418.441 64.3331 418.416Z" fill="white"/>
<path d="M97.5116 447.622C96.726 447.088 96.077 446.376 95.6169 445.545C95.1569 444.714 94.8987 443.787 94.8633 442.837V182.519C94.9177 181.54 95.2015 180.588 95.692 179.74C96.1824 178.891 96.8657 178.17 97.6865 177.635L403.938 0.811907C404.751 0.299739 405.69 0.019355 406.651 0.000966529C407.612 -0.017422 408.561 0.226882 409.393 0.707555C410.226 1.18823 410.912 1.88705 411.377 2.72871C411.842 3.57038 412.069 4.52298 412.032 5.48388V265.815C411.978 266.793 411.694 267.745 411.204 268.594C410.713 269.442 410.03 270.164 409.209 270.699L102.958 447.522C102.121 447.963 101.192 448.201 100.247 448.219C99.3009 448.236 98.3642 448.031 97.5116 447.622Z" fill="#455A64"/>
<path d="M102.421 447.759H102.308C102.223 447.81 102.13 447.848 102.034 447.872H101.821C101.696 447.915 101.566 447.945 101.434 447.959C101.35 447.993 101.262 448.014 101.172 448.022L100.747 448.084C99.6323 448.235 98.4982 448.039 97.4991 447.522C96.7146 446.991 96.0669 446.281 95.6089 445.452C95.1508 444.623 94.8953 443.697 94.8633 442.75V215.885L100.16 218.945V445.886C100.16 447.135 100.797 447.909 101.721 447.909C101.846 447.928 101.972 447.928 102.096 447.909C102.211 447.876 102.321 447.826 102.421 447.759Z" fill="url(#paint0_linear_683_29965)"/>
<path opacity="0.81" d="M102.421 447.759H102.308C102.223 447.81 102.13 447.848 102.034 447.872H101.821C101.696 447.915 101.566 447.945 101.434 447.959C101.35 447.993 101.262 448.014 101.172 448.022L100.747 448.084C99.6323 448.235 98.4982 448.039 97.4991 447.522C96.7146 446.991 96.0669 446.281 95.6089 445.452C95.1508 444.623 94.8953 443.697 94.8633 442.75V215.885L100.16 218.945V445.886C100.16 447.135 100.797 447.909 101.721 447.909C101.846 447.928 101.972 447.928 102.096 447.909C102.211 447.876 102.321 447.826 102.421 447.759Z" fill="#E0E0E0"/>
<path d="M100.148 218.945L94.8511 215.885V266.29L100.148 269.375V218.945Z" fill="url(#paint1_linear_683_29965)"/>
<path opacity="0.15" d="M100.148 218.945L94.8511 215.885V266.29L100.148 269.375V218.945Z" fill="#11047A"/>
<path d="M100.959 182.794C100.459 183.635 100.18 184.589 100.147 185.567V218.945L94.8509 215.885V182.519C94.8446 182.407 94.8446 182.294 94.8509 182.182C94.8751 181.947 94.9126 181.713 94.9633 181.482C95.119 180.871 95.3541 180.283 95.6628 179.733L100.959 182.794Z" fill="#263238"/>
<path d="M412.033 5.49638V20.5616L187.541 150.165C185.992 151.064 184.73 150.327 184.73 148.541V142.832C184.73 141.046 183.481 140.334 181.907 141.208L113.539 180.695C112.718 181.231 112.035 181.952 111.544 182.8C111.054 183.649 110.77 184.601 110.716 185.579V191.276C110.663 192.253 110.381 193.205 109.892 194.053C109.404 194.901 108.723 195.623 107.905 196.16L100.147 200.682V185.692C100.2 184.714 100.482 183.763 100.971 182.915C101.459 182.066 102.14 181.345 102.958 180.808L409.222 3.87244C410.771 2.97302 412.033 3.69755 412.033 5.49638Z" fill="#37474F"/>
<path d="M412.045 265.827C411.989 266.804 411.704 267.753 411.214 268.6C410.723 269.446 410.041 270.165 409.222 270.699L102.958 447.522C101.409 448.409 100.147 447.684 100.147 445.886V200.682L107.905 196.21C109.454 195.311 111.977 181.645 113.539 180.745L180.758 141.933C182.319 141.033 185.992 151.127 187.541 150.227L412.032 20.5616V265.827H412.045Z" fill="url(#paint2_linear_683_29965)"/>
<path opacity="0.9" d="M412.045 265.827C411.989 266.804 411.704 267.753 411.214 268.6C410.723 269.446 410.041 270.165 409.222 270.699L102.958 447.522C101.409 448.409 100.147 447.684 100.147 445.886V200.682L107.905 196.21C109.454 195.311 111.977 181.645 113.539 180.745L180.758 141.933C182.319 141.033 185.992 151.127 187.541 150.227L412.032 20.5616V265.827H412.045Z" fill="white"/>
<g opacity="0.4">
<path d="M410.783 22.7227V265.827C410.723 266.577 410.493 267.304 410.113 267.953C409.732 268.602 409.21 269.156 408.585 269.575L102.334 446.435C102.145 446.563 101.924 446.636 101.696 446.648C101.409 446.648 101.397 446.023 101.397 445.886V201.344L108.53 197.222C109.629 196.585 110.328 194.399 111.902 188.777C112.474 186.356 113.26 183.989 114.251 181.707L180.92 143.219C181.718 144.307 182.436 145.451 183.069 146.642C184.88 149.815 185.879 151.464 187.328 151.464C187.621 151.463 187.908 151.39 188.165 151.252L410.783 22.7227ZM412.032 20.5616L187.541 150.165C187.471 150.182 187.398 150.182 187.328 150.165C185.754 150.165 182.556 141.758 180.97 141.758C180.9 141.74 180.827 141.74 180.758 141.758L113.539 180.695C111.977 181.595 109.454 195.261 107.905 196.16L100.147 200.682V445.886C100.147 447.135 100.785 447.897 101.696 447.897C102.138 447.878 102.567 447.75 102.946 447.522L409.222 270.699C410.041 270.165 410.723 269.446 411.214 268.6C411.704 267.753 411.989 266.804 412.045 265.827V20.5616H412.032Z" fill="url(#paint3_linear_683_29965)"/>
</g>
<path d="M100.147 218.945V269.375L412.033 89.3295V38.8872L100.147 218.945Z" fill="url(#paint4_linear_683_29965)"/>
<path d="M412.033 20.5616V38.8872L100.147 218.945V200.682L105.931 197.334C107.48 196.435 108.005 195.061 108.742 192.45L110.716 185.629C111.328 183.256 111.965 181.645 113.539 180.745L180.758 141.933C182.319 141.033 183.543 140.933 184.73 142.895L187.141 147.267C188.015 148.803 188.465 149.703 190.014 148.803L412.033 20.5616Z" fill="#F0F0F0"/>
<path d="M398.816 14.9403C400.777 13.816 402.364 14.7279 402.364 16.9889C402.297 18.2201 401.941 19.4182 401.325 20.486C400.708 21.5538 399.849 22.4614 398.816 23.1349C396.867 24.2592 395.281 23.3473 395.281 21.0863C395.348 19.8567 395.703 18.66 396.317 17.5926C396.931 16.5251 397.787 15.6167 398.816 14.9403Z" fill="#F4F7FE"/>
<path d="M386.074 22.298C388.023 21.1737 389.609 22.0856 389.609 24.3466C389.542 25.5762 389.187 26.7729 388.573 27.8403C387.959 28.9078 387.103 29.8162 386.074 30.4926C384.113 31.6169 382.526 30.705 382.526 28.444C382.593 27.2128 382.949 26.0147 383.566 24.9469C384.182 23.879 385.041 22.9715 386.074 22.298Z" fill="#F4F7FE"/>
<path d="M373.295 29.6557C375.244 28.5314 376.843 29.4433 376.843 31.7043C376.773 32.9348 376.416 34.1318 375.8 35.1992C375.184 36.2665 374.326 37.1746 373.295 37.8504C371.334 38.9871 369.748 38.0627 369.748 35.8017C369.814 34.5705 370.17 33.3724 370.787 32.3046C371.403 31.2368 372.263 30.3293 373.295 29.6557Z" fill="#F4F7FE"/>
<path opacity="0.5" d="M113.064 201.931L108.642 204.43L110.328 201.194C110.395 201.072 110.43 200.934 110.43 200.795C110.43 200.655 110.395 200.518 110.328 200.395C110.203 200.245 109.978 200.395 109.828 200.632L107.43 205.254C107.425 205.312 107.425 205.371 107.43 205.429C107.425 205.508 107.425 205.587 107.43 205.666C107.422 205.737 107.422 205.808 107.43 205.879C107.424 205.912 107.424 205.946 107.43 205.979L109.828 207.828C109.864 207.85 109.905 207.861 109.947 207.861C109.989 207.861 110.03 207.85 110.066 207.828C110.18 207.734 110.27 207.614 110.328 207.478C110.453 207.178 110.441 206.841 110.328 206.728L108.642 205.479L113.064 202.981C113.18 202.891 113.273 202.775 113.336 202.643C113.399 202.51 113.43 202.365 113.426 202.219C113.426 201.931 113.264 201.831 113.064 201.931Z" fill="#455A64"/>
<path opacity="0.5" d="M116.762 199.808L121.184 197.309L119.497 196.06C119.348 195.948 119.335 195.61 119.497 195.311C119.66 195.011 119.847 194.848 119.997 194.961L122.396 196.81C122.427 196.833 122.453 196.863 122.471 196.897C122.484 196.963 122.484 197.031 122.471 197.097C122.484 197.176 122.484 197.256 122.471 197.334C122.471 197.334 122.471 197.334 122.471 197.397C122.451 197.457 122.426 197.516 122.396 197.572L119.997 202.144C119.945 202.256 119.863 202.351 119.76 202.419C119.725 202.453 119.678 202.472 119.629 202.472C119.58 202.472 119.532 202.453 119.497 202.419C119.427 202.297 119.39 202.159 119.39 202.019C119.39 201.878 119.427 201.741 119.497 201.619L121.184 198.371L116.762 200.932C116.562 201.044 116.412 200.932 116.412 200.582C116.404 200.435 116.432 200.287 116.493 200.152C116.553 200.018 116.646 199.899 116.762 199.808Z" fill="#455A64"/>
<path opacity="0.5" d="M131.24 187.066C131.24 186.804 130.977 186.841 130.865 187.128L130.253 188.615C129.216 188.503 127.967 189.502 127.117 191.301C126.031 193.612 126.031 196.298 127.117 197.409C127.384 197.659 127.73 197.808 128.094 197.831C128.459 197.853 128.82 197.749 129.116 197.534C129.999 196.942 130.69 196.104 131.102 195.123C131.171 195.006 131.208 194.872 131.208 194.736C131.208 194.6 131.171 194.466 131.102 194.349C130.952 194.211 130.728 194.349 130.59 194.636C129.778 196.36 128.441 197.134 127.63 196.347C126.818 195.561 126.805 193.512 127.63 191.775C128.204 190.526 129.041 189.814 129.778 189.777L129.316 190.889C129.203 191.176 129.316 191.451 129.491 191.326L131.302 190.152C131.371 190.089 131.425 190.011 131.46 189.925C131.495 189.838 131.509 189.745 131.502 189.652L131.24 187.066Z" fill="#455A64"/>
<path opacity="0.5" d="M178.821 150.24L180.433 146.817C180.527 146.656 180.577 146.473 180.577 146.286C180.577 146.1 180.527 145.916 180.433 145.755C180.246 145.58 179.933 145.755 179.746 146.155L178.134 149.565L176.51 148.016C176.323 147.829 176.011 148.016 175.823 148.416C175.729 148.577 175.679 148.76 175.679 148.947C175.679 149.134 175.729 149.317 175.823 149.478L177.435 151.027L175.823 154.462C175.729 154.623 175.679 154.806 175.679 154.993C175.679 155.18 175.729 155.363 175.823 155.524C175.873 155.565 175.934 155.587 175.998 155.587C176.062 155.587 176.124 155.565 176.173 155.524C176.328 155.428 176.447 155.283 176.51 155.112L178.134 151.689L179.746 153.25C179.793 153.29 179.853 153.312 179.915 153.312C179.976 153.312 180.036 153.29 180.083 153.25C180.239 153.152 180.361 153.008 180.433 152.838C180.527 152.677 180.577 152.494 180.577 152.307C180.577 152.121 180.527 151.937 180.433 151.776L178.821 150.24Z" fill="#455A64"/>
<path d="M137.148 191.263V185.567C137.206 184.589 137.493 183.639 137.985 182.793C138.478 181.947 139.163 181.228 139.984 180.695L393.382 34.54C394.944 33.6406 396.205 34.3651 396.205 36.164V41.7853C396.151 42.7638 395.867 43.7159 395.377 44.5644C394.886 45.4129 394.203 46.1341 393.382 46.6696L139.984 192.9C138.41 193.799 137.148 193.062 137.148 191.263Z" fill="white"/>
<path d="M389.522 47.0319C389.456 47.045 389.388 47.045 389.322 47.0319C389.19 46.9657 389.084 46.8572 389.021 46.7237C388.957 46.5901 388.94 46.4391 388.973 46.2949L389.248 43.9339L388.098 43.1094C388.016 43.0495 387.951 42.9702 387.907 42.8787C387.863 42.7871 387.843 42.6861 387.848 42.5848C387.849 42.4129 387.887 42.2433 387.961 42.0879C388.034 41.9325 388.141 41.7951 388.273 41.6854L389.922 40.4362C389.977 40.3863 390.016 40.321 390.035 40.2488L390.772 37.8254C390.813 37.6486 390.905 37.4876 391.036 37.3614C391.166 37.2352 391.33 37.1491 391.509 37.1133C391.62 37.1096 391.73 37.1382 391.825 37.1959C391.921 37.2536 391.997 37.3377 392.046 37.4381L392.708 38.8622L394.207 38.2876C394.312 38.2425 394.429 38.2314 394.541 38.2561C394.653 38.2807 394.755 38.3398 394.831 38.425C394.93 38.5754 394.982 38.7512 394.982 38.9309C394.982 39.1106 394.93 39.2864 394.831 39.4368L393.582 41.6854C393.569 41.7513 393.569 41.8193 393.582 41.8852L393.869 43.9214C393.887 44.088 393.866 44.2563 393.81 44.4141C393.754 44.5719 393.663 44.7151 393.545 44.8333C393.478 44.9126 393.393 44.9745 393.298 45.0137C393.202 45.0529 393.098 45.0681 392.995 45.0582L391.509 44.8708L390.072 46.7945C390.003 46.871 389.918 46.9317 389.823 46.9727C389.728 47.0136 389.626 47.0338 389.522 47.0319ZM388.573 42.4474L389.722 43.2718C389.819 43.3525 389.892 43.4578 389.934 43.5765C389.975 43.6952 389.984 43.823 389.96 43.9464L389.822 45.8951L391.071 44.3212C391.143 44.2197 391.238 44.1379 391.35 44.0833C391.461 44.0287 391.585 44.0031 391.708 44.0089L393.195 44.1962C393.195 44.1962 393.257 43.9964 393.195 43.8964L392.908 41.8603C392.888 41.6349 392.936 41.4087 393.045 41.2107L394.294 38.9621L392.92 39.4868C392.855 39.5155 392.784 39.5308 392.713 39.5318C392.641 39.5329 392.57 39.5196 392.504 39.4929C392.437 39.4661 392.377 39.4264 392.326 39.376C392.276 39.3256 392.235 39.2656 392.208 39.1995L391.596 37.9503L390.859 40.3737C390.798 40.5965 390.666 40.7937 390.484 40.9359L388.835 42.185C388.719 42.2376 388.626 42.3309 388.573 42.4474Z" fill="#E0E0E0"/>
<g opacity="0.5">
<path d="M399.503 33.7655C399.287 33.7677 399.076 33.6979 398.903 33.567C398.731 33.4361 398.607 33.2517 398.552 33.0427C398.496 32.8337 398.511 32.612 398.595 32.4127C398.679 32.2134 398.827 32.0476 399.016 31.9417L406.936 27.3697C407.046 27.3049 407.169 27.2625 407.296 27.245C407.423 27.2275 407.552 27.2352 407.676 27.2677C407.8 27.3002 407.917 27.3568 408.019 27.4343C408.121 27.5118 408.207 27.6087 408.272 27.7194C408.337 27.8302 408.379 27.9526 408.397 28.0797C408.414 28.2068 408.407 28.3361 408.374 28.4602C408.342 28.5843 408.285 28.7008 408.208 28.8031C408.13 28.9053 408.033 28.9913 407.922 29.0561L399.99 33.6406C399.841 33.7241 399.673 33.7672 399.503 33.7655Z" fill="#455A64"/>
<path d="M399.503 38.35C399.331 38.3498 399.163 38.3047 399.014 38.2192C398.865 38.1338 398.741 38.011 398.654 37.8629C398.589 37.7515 398.547 37.6284 398.53 37.5007C398.514 37.373 398.522 37.2433 398.556 37.119C398.59 36.9947 398.648 36.8783 398.727 36.7766C398.805 36.6748 398.904 36.5897 399.016 36.5262L406.936 31.9417C407.159 31.8392 407.412 31.8235 407.646 31.8977C407.88 31.9718 408.078 32.1305 408.201 32.3427C408.324 32.555 408.364 32.8055 408.313 33.0455C408.261 33.2855 408.122 33.4976 407.923 33.6406L399.99 38.2126C399.843 38.3 399.675 38.3474 399.503 38.35Z" fill="#455A64"/>
<path d="M399.503 42.9221C399.331 42.9218 399.162 42.8767 399.013 42.7913C398.864 42.7058 398.74 42.583 398.653 42.4349C398.589 42.3245 398.547 42.2023 398.531 42.0756C398.514 41.9489 398.523 41.8201 398.557 41.6968C398.59 41.5735 398.648 41.4582 398.727 41.3576C398.806 41.257 398.904 41.1731 399.015 41.1108L406.935 36.5262C407.046 36.4614 407.169 36.4191 407.296 36.4016C407.423 36.3841 407.552 36.3918 407.676 36.4243C407.8 36.4568 407.917 36.5134 408.019 36.5909C408.121 36.6684 408.207 36.7653 408.272 36.876C408.337 36.9867 408.379 37.1091 408.397 37.2362C408.414 37.3633 408.406 37.4926 408.374 37.6168C408.341 37.7409 408.285 37.8574 408.207 37.9596C408.13 38.0619 408.033 38.1478 407.922 38.2126L399.99 42.7972C399.841 42.8807 399.673 42.9238 399.503 42.9221Z" fill="#455A64"/>
</g>
<path d="M100.148 200.62V218.945L94.8511 215.885V197.572L100.148 200.62Z" fill="#E0E0E0"/>
<path d="M314.058 126.09C313.961 126.147 313.87 126.158 313.785 126.123C313.713 126.082 313.676 125.997 313.676 125.871C313.676 125.815 313.688 125.744 313.713 125.66L318.099 109.497C318.135 109.335 318.202 109.177 318.299 109.022C318.408 108.846 318.554 108.704 318.736 108.598L320.72 107.438C320.902 107.332 321.041 107.306 321.138 107.362C321.235 107.404 321.308 107.48 321.357 107.593L325.743 118.627C325.755 118.69 325.761 118.749 325.761 118.806C325.761 118.932 325.725 119.059 325.652 119.186C325.579 119.313 325.494 119.405 325.397 119.461L323.814 120.387C323.644 120.486 323.517 120.519 323.432 120.484C323.359 120.428 323.31 120.365 323.286 120.295L322.431 118.223L317.025 121.383L316.17 124.455C316.145 124.554 316.091 124.677 316.006 124.825C315.933 124.952 315.812 125.065 315.642 125.164L314.058 126.09ZM317.662 118.586L321.794 116.171L319.719 110.869L317.662 118.586ZM332.484 115.529C331.78 115.941 331.192 116.144 330.718 116.14C330.257 116.128 329.875 115.993 329.572 115.735V116.515C329.572 116.655 329.529 116.8 329.444 116.948C329.372 117.089 329.268 117.198 329.135 117.276L327.697 118.117C327.576 118.188 327.473 118.199 327.388 118.15C327.303 118.101 327.26 118.007 327.26 117.866V103.909C327.26 103.769 327.303 103.625 327.388 103.477C327.473 103.329 327.576 103.219 327.697 103.148L329.244 102.244C329.378 102.166 329.481 102.155 329.554 102.21C329.639 102.259 329.681 102.354 329.681 102.494V107.175C329.984 106.59 330.36 106.04 330.809 105.524C331.27 104.987 331.829 104.528 332.484 104.145C333.127 103.769 333.685 103.569 334.158 103.545C334.632 103.522 335.026 103.649 335.341 103.929C335.669 104.187 335.918 104.569 336.088 105.074C336.257 105.579 336.348 106.179 336.361 106.875C336.373 107.121 336.379 107.349 336.379 107.56C336.379 107.757 336.373 107.985 336.361 108.245C336.336 108.99 336.239 109.722 336.069 110.439C335.899 111.143 335.657 111.812 335.341 112.446C335.026 113.08 334.632 113.662 334.158 114.192C333.685 114.707 333.127 115.153 332.484 115.529ZM331.81 113.667C332.332 113.362 332.739 112.998 333.03 112.575C333.321 112.137 333.527 111.672 333.649 111.18C333.782 110.68 333.861 110.17 333.885 109.65C333.91 109.214 333.91 108.793 333.885 108.385C333.861 107.893 333.782 107.476 333.649 107.132C333.527 106.781 333.321 106.565 333.03 106.482C332.739 106.385 332.332 106.489 331.81 106.794C331.325 107.078 330.931 107.435 330.627 107.865C330.324 108.296 330.094 108.754 329.936 109.239C329.778 109.711 329.693 110.161 329.681 110.59C329.669 110.85 329.663 111.128 329.663 111.423C329.663 111.704 329.669 111.967 329.681 112.213C329.705 112.635 329.784 113.017 329.918 113.361C330.063 113.684 330.288 113.89 330.591 113.979C330.906 114.062 331.313 113.958 331.81 113.667ZM342.59 109.621C341.62 110.188 340.801 110.47 340.133 110.467C339.478 110.456 338.974 110.196 338.623 109.685C338.283 109.166 338.089 108.444 338.04 107.516C338.028 107.27 338.022 106.965 338.022 106.599C338.022 106.234 338.028 105.921 338.04 105.661C338.089 104.663 338.289 103.709 338.641 102.801C339.005 101.871 339.514 101.018 340.17 100.242C340.837 99.458 341.644 98.7895 342.59 98.2362C343.537 97.6829 344.338 97.4115 344.993 97.422C345.66 97.4254 346.17 97.6827 346.522 98.1938C346.886 98.6837 347.092 99.3994 347.14 100.341C347.153 100.587 347.159 100.892 347.159 101.258C347.159 101.623 347.153 101.936 347.14 102.196C347.092 103.18 346.892 104.134 346.54 105.056C346.2 105.971 345.696 106.821 345.029 107.605C344.374 108.381 343.561 109.053 342.59 109.621ZM342.59 107.534C343.233 107.158 343.731 106.635 344.083 105.965C344.435 105.282 344.629 104.473 344.665 103.538C344.677 103.32 344.683 103.042 344.683 102.705C344.683 102.368 344.677 102.097 344.665 101.893C344.629 101.015 344.435 100.44 344.083 100.168C343.731 99.8956 343.233 99.9475 342.59 100.323C341.947 100.699 341.45 101.229 341.098 101.913C340.746 102.596 340.552 103.399 340.515 104.319C340.503 104.537 340.497 104.815 340.497 105.152C340.497 105.489 340.503 105.76 340.515 105.964C340.552 106.856 340.746 107.438 341.098 107.71C341.45 107.969 341.947 107.91 342.59 107.534ZM352.688 103.718C351.948 104.15 351.305 104.337 350.759 104.276C350.225 104.195 349.812 103.888 349.521 103.355C349.23 102.809 349.084 102.051 349.084 101.081V95.1566C349.084 95.0161 349.127 94.8718 349.212 94.7237C349.296 94.5757 349.4 94.4662 349.521 94.3953L351.123 93.4589C351.256 93.3809 351.359 93.3698 351.432 93.4256C351.517 93.4743 351.559 93.569 351.559 93.7095V99.5072C351.559 101.25 352.221 101.735 353.543 100.962C354.174 100.593 354.672 100.07 355.036 99.3935C355.412 98.7097 355.6 97.9603 355.6 97.1451V91.3474C355.6 91.2068 355.642 91.0625 355.727 90.9145C355.812 90.7665 355.915 90.657 356.037 90.586L357.638 89.6497C357.76 89.5788 357.863 89.5677 357.948 89.6164C358.033 89.6651 358.075 89.7598 358.075 89.9003V99.8513C358.075 99.9918 358.033 100.136 357.948 100.284C357.863 100.432 357.76 100.542 357.638 100.613L356.164 101.474C356.031 101.553 355.921 101.567 355.837 101.518C355.764 101.463 355.727 101.364 355.727 101.224V100.359C355.4 101.043 354.993 101.667 354.508 102.232C354.023 102.797 353.416 103.292 352.688 103.718ZM364.757 96.4513C364.028 96.8769 363.416 97.0875 362.918 97.0832C362.421 97.0789 362.051 96.8595 361.808 96.4252C361.565 95.9767 361.444 95.3168 361.444 94.4454V89.6596L360.006 90.5002C359.885 90.5711 359.782 90.5822 359.697 90.5335C359.612 90.4848 359.569 90.3901 359.569 90.2496V89.0268C359.569 88.8863 359.612 88.742 359.697 88.5939C359.782 88.4459 359.885 88.3364 360.006 88.2655L361.444 87.4249V83.9252C361.444 83.7846 361.48 83.6439 361.553 83.5029C361.638 83.3549 361.747 83.2418 361.881 83.1638L363.355 82.302C363.476 82.231 363.58 82.2199 363.664 82.2686C363.749 82.3174 363.792 82.412 363.792 82.5526V86.0523L366.067 84.7222C366.188 84.6513 366.291 84.6402 366.376 84.6889C366.461 84.7377 366.504 84.8323 366.504 84.9729V86.1956C366.504 86.3362 366.461 86.4805 366.376 86.6285C366.291 86.7766 366.188 86.8861 366.067 86.957L363.792 88.287V92.8619C363.792 93.4382 363.877 93.8383 364.047 94.0623C364.229 94.2791 364.538 94.2599 364.975 94.0045L366.231 93.2703C366.352 93.1994 366.455 93.1883 366.54 93.237C366.625 93.2858 366.668 93.3804 366.668 93.5209V94.8281C366.668 94.9686 366.625 95.1129 366.54 95.2609C366.455 95.409 366.352 95.5185 366.231 95.5894L364.757 96.4513ZM375.954 90.1159C375.214 90.5486 374.571 90.7348 374.025 90.6746C373.491 90.5931 373.078 90.2862 372.787 89.7537C372.496 89.2071 372.35 88.4489 372.35 87.4791V81.5549C372.35 81.4144 372.393 81.2701 372.478 81.122C372.563 80.974 372.666 80.8645 372.787 80.7936L374.389 79.8572C374.522 79.7792 374.625 79.7681 374.698 79.8239C374.783 79.8726 374.826 79.9673 374.826 80.1078V85.9055C374.826 87.6484 375.487 88.1332 376.809 87.36C377.44 86.9911 377.938 86.4684 378.302 85.7917C378.678 85.108 378.866 84.3586 378.866 83.5434V77.7457C378.866 77.6051 378.908 77.4608 378.993 77.3128C379.078 77.1648 379.182 77.0553 379.303 76.9843L380.904 76.048C381.026 75.977 381.129 75.9659 381.214 76.0147C381.299 76.0634 381.341 76.158 381.341 76.2986V86.2496C381.341 86.3901 381.299 86.5344 381.214 86.6825C381.129 86.8305 381.026 86.94 380.904 87.0109L379.43 87.8728C379.297 87.9508 379.188 87.9655 379.103 87.9167C379.03 87.8609 378.993 87.7627 378.993 87.6222V86.7578C378.666 87.4412 378.259 88.0654 377.774 88.6302C377.289 89.1951 376.682 89.6903 375.954 90.1159ZM387.331 83.4647C386.603 83.8903 385.978 84.1573 385.456 84.2655C384.947 84.3667 384.528 84.3654 384.2 84.2618C383.873 84.1582 383.63 84.0049 383.472 83.802C383.315 83.599 383.23 83.4027 383.218 83.213C383.206 83.0655 383.242 82.9248 383.327 82.7908C383.424 82.6356 383.527 82.5262 383.636 82.4623L385.074 81.6217C385.123 81.5934 385.165 81.5756 385.202 81.5683C385.238 81.5611 385.286 81.5749 385.347 81.6097C385.505 81.6721 385.669 81.738 385.839 81.8073C386.021 81.8696 386.233 81.893 386.476 81.8776C386.718 81.8482 387.022 81.7271 387.386 81.5143C387.859 81.2376 388.253 80.9017 388.569 80.5064C388.896 80.09 389.06 79.678 389.06 79.2704C389.06 78.9753 388.987 78.7789 388.842 78.6813C388.708 78.5766 388.453 78.5639 388.077 78.6433C387.701 78.7086 387.167 78.8591 386.476 79.0947C385.796 79.3093 385.232 79.4072 384.783 79.3886C384.334 79.3699 384 79.2136 383.782 78.9197C383.563 78.6257 383.454 78.1976 383.454 77.6354C383.454 77.0873 383.594 76.4856 383.873 75.8306C384.164 75.1543 384.589 74.4914 385.147 73.8419C385.717 73.1852 386.421 72.6121 387.258 72.1227C387.913 71.7396 388.484 71.5046 388.969 71.4177C389.454 71.3166 389.855 71.3145 390.17 71.4111C390.498 71.5007 390.747 71.6434 390.916 71.8393C391.086 72.0211 391.177 72.2138 391.189 72.4175C391.202 72.5651 391.165 72.7128 391.08 72.8609C390.995 72.9949 390.898 73.0938 390.789 73.1576L389.442 73.945C389.382 73.9805 389.327 73.9983 389.278 73.9986C389.23 73.9989 389.181 73.9921 389.133 73.9783C388.999 73.9158 388.854 73.8533 388.696 73.7909C388.538 73.7285 388.344 73.7085 388.114 73.7309C387.895 73.732 387.604 73.839 387.24 74.0518C386.779 74.3214 386.427 74.6466 386.184 75.0274C385.942 75.3941 385.82 75.7532 385.82 76.1046C385.82 76.3435 385.875 76.5224 385.984 76.6413C386.105 76.739 386.342 76.7623 386.694 76.7112C387.046 76.6601 387.58 76.5096 388.296 76.2598C389.109 75.9532 389.752 75.8302 390.225 75.8909C390.71 75.9304 391.05 76.1113 391.244 76.4335C391.45 76.7345 391.553 77.1451 391.553 77.6651C391.553 78.2976 391.39 78.9626 391.062 79.6601C390.747 80.3505 390.273 81.0277 389.642 81.6918C389.024 82.3346 388.253 82.9256 387.331 83.4647Z" fill="#F4F7FE"/>
<path opacity="0.1" d="M113.676 281.267L199.933 231.462V372.083L113.426 421.751L113.676 281.267Z" fill="url(#paint5_linear_683_29965)"/>
<path opacity="0.15" d="M218.945 223.08L323.003 163.007C325.101 161.757 326.75 162.707 326.75 165.043C326.672 166.335 326.292 167.591 325.641 168.711C324.991 169.83 324.087 170.781 323.003 171.489L218.933 232.237C216.846 233.486 215.185 232.487 215.185 230.076V229.638C215.255 228.327 215.632 227.051 216.285 225.912C216.938 224.773 217.849 223.803 218.945 223.08Z" fill="url(#paint6_linear_683_29965)"/>
<path opacity="0.1" d="M217.858 241.281L390.047 141.87C391.546 141.008 392.757 141.62 392.757 143.232C392.691 144.142 392.412 145.024 391.94 145.805C391.469 146.587 390.821 147.246 390.047 147.729L217.858 247.14C216.372 248.001 215.16 247.389 215.16 245.778C215.226 244.869 215.504 243.989 215.973 243.208C216.442 242.426 217.088 241.766 217.858 241.281Z" fill="url(#paint7_linear_683_29965)"/>
<path opacity="0.1" d="M217.858 253.048L390.047 153.638C391.546 152.776 392.757 153.388 392.757 154.999C392.691 155.909 392.412 156.791 391.94 157.572C391.469 158.354 390.821 159.013 390.047 159.496L217.858 258.907C216.372 259.769 215.16 259.157 215.16 257.533C215.228 256.626 215.507 255.748 215.976 254.969C216.444 254.19 217.089 253.532 217.858 253.048Z" fill="url(#paint8_linear_683_29965)"/>
<path opacity="0.1" d="M217.858 264.803L390.047 165.393C391.546 164.531 392.757 165.143 392.757 166.767C392.689 167.675 392.409 168.554 391.938 169.333C391.467 170.112 390.819 170.769 390.047 171.251L217.858 270.637C216.372 271.499 215.16 270.887 215.16 269.263C215.233 268.361 215.515 267.489 215.984 266.715C216.452 265.941 217.094 265.286 217.858 264.803Z" fill="url(#paint9_linear_683_29965)"/>
<path opacity="0.1" d="M217.858 276.57L390.047 177.16C391.546 176.298 392.757 176.91 392.757 178.522C392.691 179.432 392.412 180.313 391.94 181.095C391.469 181.876 390.821 182.535 390.047 183.019L217.858 282.429C216.372 283.291 215.16 282.679 215.16 281.067C215.226 280.159 215.504 279.278 215.973 278.497C216.442 277.716 217.088 277.056 217.858 276.57Z" fill="url(#paint10_linear_683_29965)"/>
<path opacity="0.1" d="M217.858 288.338L338.005 218.383C339.492 217.521 340.704 218.133 340.704 219.757C340.636 220.664 340.357 221.542 339.888 222.321C339.42 223.1 338.775 223.758 338.005 224.242L217.858 294.196C216.372 295.058 215.16 294.446 215.16 292.822C215.228 291.916 215.507 291.038 215.976 290.259C216.444 289.48 217.089 288.822 217.858 288.338Z" fill="url(#paint11_linear_683_29965)"/>
<path opacity="0.1" d="M217.858 311.86L390.047 212.45C391.546 211.588 392.757 212.2 392.757 213.811C392.691 214.721 392.412 215.603 391.94 216.384C391.469 217.166 390.821 217.825 390.047 218.308L217.858 317.719C216.372 318.581 215.16 317.969 215.16 316.357C215.226 315.448 215.504 314.568 215.973 313.787C216.442 313.005 217.088 312.345 217.858 311.86Z" fill="url(#paint12_linear_683_29965)"/>
<path opacity="0.1" d="M217.858 323.627L390.047 224.217C391.546 223.355 392.757 223.967 392.757 225.579C392.691 226.489 392.412 227.37 391.94 228.152C391.469 228.933 390.821 229.592 390.047 230.076L217.858 329.486C216.372 330.348 215.16 329.736 215.16 328.112C215.228 327.205 215.507 326.327 215.976 325.549C216.444 324.77 217.089 324.112 217.858 323.627Z" fill="url(#paint13_linear_683_29965)"/>
<path opacity="0.1" d="M217.858 335.382L390.047 235.972C391.546 235.11 392.757 235.722 392.757 237.346C392.689 238.254 392.409 239.133 391.938 239.912C391.467 240.691 390.819 241.348 390.047 241.83L217.858 341.253C216.372 342.115 215.16 341.503 215.16 339.879C215.228 338.971 215.507 338.091 215.975 337.311C216.444 336.53 217.089 335.869 217.858 335.382Z" fill="url(#paint14_linear_683_29965)"/>
<path opacity="0.1" d="M217.859 347.15L281.143 310.224C282.629 309.362 283.841 309.974 283.841 311.598C283.773 312.504 283.494 313.382 283.025 314.161C282.557 314.94 281.912 315.598 281.143 316.082L217.871 353.008C216.385 353.87 215.173 353.258 215.173 351.647C215.237 350.739 215.514 349.859 215.98 349.078C216.447 348.297 217.09 347.636 217.859 347.15Z" fill="url(#paint15_linear_683_29965)"/>
<path d="M447.959 279.631C457.116 249.925 466.023 230.35 456.941 224.292C448.497 225.866 444.712 230.051 442.913 241.193C441.026 252.873 437.104 269.163 434.818 278.557C432.842 286.407 430.015 294.018 426.386 301.254C425.839 302.256 424.953 303.031 423.888 303.44C421.064 304.552 419.715 305.939 417.417 307.638C415.605 308.887 414.281 309.062 414.369 309.599C414.517 310.202 414.896 310.722 415.424 311.049C415.951 311.376 416.586 311.483 417.192 311.348C418.549 311.091 419.87 310.672 421.127 310.099C420.046 312.836 418.364 315.295 416.205 317.294C411.77 321.041 412.458 324.702 419.565 325.126C422.064 325.276 428.022 322.953 433.506 313.621C435.361 310.143 436.992 306.551 438.391 302.866C442.213 293.297 446.123 285.627 447.959 279.631Z" fill="#FFA8A7"/>
<path d="M458.527 223.942C458.527 223.942 451.482 223.58 447.21 228.289C442.938 232.999 437.966 261.13 437.966 261.13C437.966 261.13 442.638 267.551 454.955 264.878L458.527 223.942Z" fill="url(#paint16_linear_683_29965)"/>
<path opacity="0.3" d="M458.527 223.942C458.527 223.942 451.482 223.58 447.21 228.289C442.938 232.999 437.966 261.13 437.966 261.13C437.966 261.13 442.638 267.551 454.955 264.878L458.527 223.942Z" fill="#11047A"/>
<path d="M491.519 423.512H482.062V440.377H491.519V423.512Z" fill="#FFA8A7"/>
<path d="M458.727 422.613L449.271 422.963L448.796 405.112L458.727 404.775V422.613Z" fill="#FFA8A7"/>
<path d="M492.855 277.507C492.855 286.914 491.469 362.615 491.469 362.615C491.681 365.325 494.117 370.322 493.592 380.715C492.88 394.831 491.918 431.932 491.918 431.932C490.296 432.768 488.504 433.222 486.679 433.261C484.854 433.3 483.045 432.922 481.388 432.157C481.388 432.157 472.444 380.753 470.757 366.749C469.271 354.545 466.76 313.421 466.76 313.421L461.638 361.228C462.729 366.373 463.124 371.642 462.812 376.893C462.363 383.364 459.327 417.079 459.327 417.079C457.692 418.043 455.859 418.621 453.968 418.77C452.076 418.92 450.175 418.636 448.409 417.941C448.409 417.941 443.025 367.174 442.913 361.228C442.788 354.457 446.061 277.395 446.061 277.395L492.855 277.507Z" fill="#37474F"/>
<path d="M482.062 435.53V434.118C481.15 434.53 479.052 442.862 475.304 446.46C472.319 449.283 468.246 452.556 467.209 455.717C466.173 458.877 472.881 460.826 475.666 460.314C478.902 459.714 484.523 457.341 485.922 455.129C487.321 452.918 487.996 449.683 489.145 448.072C490.294 446.46 492.893 444.661 493.542 442.787C493.892 441.763 493.542 439.515 493.005 437.616C492.468 435.717 492.093 433.956 491.519 434.118V435.192C490.193 436.292 488.519 436.885 486.797 436.866C485.41 436.904 482.05 436.617 482.062 435.53Z" fill="#263238"/>
<path d="M449.171 419.915C448.684 419.915 448.284 420.652 447.197 421.876C445.592 423.569 443.713 424.98 441.638 426.048C438.091 427.897 431.208 430.733 428.085 432.194C426.148 433.106 426.236 435.555 428.247 436.954C430.258 438.353 435.118 439.352 440.951 437.991C444.124 437.254 448.272 434.243 450.882 434.355C453.493 434.468 458.378 434.493 460.339 433.106C462.3 431.72 461.5 428.759 460.951 426.211C460.351 423.438 459.614 419.103 458.727 419.29V420.252C457.591 422.038 451.719 422.75 449.221 421.501L449.171 419.915Z" fill="#263238"/>
<path d="M466.76 313.434C461.838 311.827 457.339 309.138 453.593 305.564C453.593 305.564 456.092 310.561 463.687 315.133L462.075 357.83L466.76 313.434Z" fill="#263238"/>
<path d="M487.934 226.191C487.934 226.191 495.329 226.878 494.804 240.968L493.168 263.454V297.182C486.21 305.064 455.38 304.477 444.824 296.545C444.824 296.545 446.011 256.658 446.723 241.306C447.235 230.4 449.746 224.904 460.464 223.705L473.643 224.279L487.934 226.191Z" fill="url(#paint17_linear_683_29965)"/>
<path opacity="0.3" d="M466.91 233.586L465.211 245.428L461.263 245.353L465.723 246.065L466.91 233.586Z" fill="#11047A"/>
<path d="M476.778 194.436C476.855 198.249 475.416 201.936 472.776 204.688C470.137 207.44 466.512 209.032 462.7 209.114C454.917 209.114 448.959 202.531 448.609 194.449C447.997 180.12 454.917 179.771 462.7 179.771C466.51 179.853 470.132 181.443 472.772 184.192C475.411 186.942 476.852 190.626 476.778 194.436Z" fill="#263238"/>
<path d="M484.761 201.694C484.761 201.694 482.6 212.262 481.738 213.998C481.18 215.058 480.229 215.856 479.089 216.222L479.239 208.789L484.761 201.694Z" fill="#263238"/>
<path d="M482.087 186.554C482.087 186.554 483.636 186.167 485.285 188.74C486.697 190.938 487.022 195.885 484.798 201.694L480.738 202.181L482.087 186.554Z" fill="#263238"/>
<path d="M479.514 202.181C480.326 202.693 481.488 201.057 482.5 199.958C483.511 198.858 486.784 197.372 488.433 200.957C490.082 204.542 486.984 209.464 484.398 210.313C479.939 211.775 479.277 208.789 479.277 208.789L478.927 225.528C473.018 234.685 459.615 234.348 464.436 225.091V219.995C462.452 220.325 460.436 220.434 458.428 220.319C455.155 219.782 453.094 217.096 452.094 213.399C450.495 207.465 449.896 202.681 451.245 191.001C452.744 178.197 467.035 178.084 474.767 183.193C482.5 188.303 479.514 202.181 479.514 202.181Z" fill="#FFA8A7"/>
<path d="M479.002 221.781C477.627 224.594 475.653 227.071 473.218 229.039C471.149 230.568 468.747 231.586 466.21 232.012C468.303 233.43 470.019 235.338 471.207 237.571C472.693 240.819 483.099 231.862 482.999 225.503C482.999 225.503 481.375 219.12 479.127 218.72L479.002 221.781Z" fill="#263238"/>
<path d="M466.21 232.012C466.21 232.012 463 230.425 464.436 225.091V219.995L463.025 220.182C461.38 221.785 460.212 223.813 459.652 226.041C459.327 227.502 458.528 234.897 459.939 236.359C461.351 237.821 463.325 232.412 466.21 232.012Z" fill="#263238"/>
<path d="M474.043 188.19C474.408 188.11 474.788 188.132 475.142 188.253C476.391 188.802 476.616 192.575 476.828 193.662C477.54 197.322 478.14 203.53 479.514 203.555C479.926 203.555 481.488 200.869 482.5 199.908C483.911 198.571 482.087 186.504 482.087 186.504C482.46 185.462 482.531 184.336 482.292 183.255C482.053 182.175 481.515 181.184 480.738 180.395C478.24 177.497 474.218 176.848 470.582 176.648C466.298 176.41 461.95 176.735 457.728 175.798C456.402 175.43 455.054 175.142 453.693 174.936C453.636 174.912 453.574 174.899 453.512 174.899C453.45 174.899 453.388 174.912 453.331 174.936C453.194 175.049 453.219 175.261 453.256 175.436C453.521 176.701 453.967 177.921 454.58 179.059C452.067 178.86 449.585 178.37 447.185 177.597C447.047 177.554 446.899 177.554 446.76 177.597C446.473 177.685 446.423 178.059 446.448 178.359C446.61 181.382 448.047 185.954 450.508 187.728C452.689 189.156 455.222 189.956 457.828 190.039C464.449 190.289 468.521 188.89 474.043 188.19Z" fill="#263238"/>
<path d="M482.087 187.191L487.022 184.43C486.871 184.09 486.651 183.786 486.376 183.536C486.1 183.286 485.776 183.096 485.424 182.978C485.071 182.861 484.698 182.818 484.327 182.853C483.957 182.888 483.599 183 483.274 183.181C482.618 183.586 482.134 184.219 481.915 184.959C481.696 185.699 481.757 186.494 482.087 187.191Z" fill="#263238"/>
<path d="M464.449 219.995C464.449 219.995 471.757 218.458 474.317 217.046C475.834 216.212 477.066 214.941 477.853 213.399C477.472 214.95 476.788 216.41 475.841 217.696C473.98 220.194 464.449 222.018 464.449 222.018V219.995Z" fill="#F28F8F"/>
<path d="M466.21 200.282C466.237 200.564 466.345 200.832 466.52 201.054C466.696 201.275 466.933 201.441 467.201 201.531C467.469 201.621 467.758 201.631 468.032 201.56C468.306 201.489 468.553 201.34 468.744 201.131C468.935 200.922 469.061 200.662 469.107 200.383C469.153 200.104 469.117 199.818 469.004 199.558C468.89 199.299 468.704 199.079 468.468 198.923C468.231 198.768 467.955 198.685 467.672 198.683C467.47 198.69 467.271 198.736 467.088 198.821C466.904 198.905 466.74 199.025 466.603 199.174C466.467 199.323 466.362 199.498 466.295 199.689C466.227 199.879 466.198 200.081 466.21 200.282Z" fill="#263238"/>
<path d="M468.521 193.961L471.656 195.76C471.883 195.328 471.943 194.827 471.826 194.353C471.709 193.879 471.422 193.464 471.019 193.187C470.81 193.053 470.573 192.966 470.326 192.933C470.079 192.899 469.828 192.92 469.59 192.994C469.352 193.068 469.133 193.192 468.949 193.36C468.764 193.527 468.618 193.732 468.521 193.961Z" fill="#263238"/>
<path d="M465.111 210.826L461.763 212.075C461.829 212.305 461.942 212.519 462.094 212.703C462.246 212.888 462.435 213.04 462.648 213.148C462.861 213.257 463.094 213.321 463.333 213.337C463.572 213.352 463.812 213.318 464.037 213.236C464.482 213.038 464.838 212.682 465.036 212.237C465.235 211.792 465.261 211.289 465.111 210.826Z" fill="#F28F8F"/>
<path d="M452.756 195.298L455.617 193C455.488 192.798 455.318 192.627 455.117 192.496C454.917 192.366 454.691 192.279 454.455 192.243C454.219 192.206 453.977 192.22 453.747 192.284C453.517 192.347 453.302 192.459 453.119 192.612C452.737 192.936 452.488 193.39 452.421 193.886C452.355 194.382 452.474 194.885 452.756 195.298Z" fill="#263238"/>
<path d="M454.018 199.845C454.01 200.045 454.041 200.244 454.11 200.431C454.179 200.619 454.285 200.791 454.42 200.937C454.556 201.083 454.72 201.201 454.902 201.284C455.083 201.367 455.28 201.413 455.479 201.419C455.9 201.419 456.304 201.252 456.601 200.954C456.899 200.657 457.066 200.253 457.066 199.833C457.066 199.412 456.899 199.008 456.601 198.711C456.304 198.413 455.9 198.246 455.479 198.246C455.075 198.269 454.696 198.449 454.423 198.748C454.149 199.047 454.004 199.44 454.018 199.845Z" fill="#263238"/>
<path d="M461.863 198.621L461.688 207.877L456.429 206.666L461.863 198.621Z" fill="#F28F8F"/>
<path d="M502.324 207.927C504.435 205.129 508.707 211.338 510.681 215.622C512.655 219.907 512.692 222.331 511.068 224.029C509.444 225.728 506.384 224.704 503.323 220.644C500.263 216.584 501.112 209.989 502.324 207.927Z" fill="url(#paint18_linear_683_29965)"/>
<path opacity="0.5" d="M502.324 207.927C504.435 205.129 508.707 211.338 510.681 215.622C512.655 219.907 512.692 222.331 511.068 224.029C509.444 225.728 506.384 224.704 503.323 220.644C500.263 216.584 501.112 209.989 502.324 207.927Z" fill="#11047A"/>
<path d="M517.239 208.752C509.744 226.241 499.313 236.097 494.629 247.352C488.495 246.94 483.711 232.112 488.283 225.778C488.283 225.778 506.246 206.328 507.87 198.683C509.319 191.9 511.256 180.708 511.093 174.949C511.029 174.011 510.635 173.126 509.982 172.45C508.095 170.414 508.095 168.79 506.884 166.554C505.947 164.805 504.91 164.156 505.21 163.756C505.598 163.341 506.129 163.087 506.696 163.045C507.263 163.003 507.825 163.177 508.27 163.531C509.137 164.165 509.914 164.913 510.581 165.755C510.812 163.509 510.446 161.243 509.519 159.184C507.433 154.462 507.945 152.064 514.304 153.738C518.301 154.799 520.799 158.122 521.399 167.704C521.677 171.691 521.702 175.692 521.474 179.683C520.775 187.066 520.337 194.761 519.425 200.919C519.032 203.612 518.297 206.244 517.239 208.752Z" fill="#FFA8A7"/>
<path d="M486.41 225.991L502.249 207.877C502.249 207.877 500.363 212.287 504.485 218.72C508.608 225.154 511.056 224.029 511.056 224.029C511.056 224.029 501.7 237.683 499.201 242.255C496.703 246.827 494.092 250.687 494.092 250.687C493.816 251.22 493.386 251.659 492.858 251.946C492.331 252.233 491.729 252.356 491.131 252.299C488.808 252.299 482.649 241.98 486.41 225.991Z" fill="url(#paint19_linear_683_29965)"/>
<path opacity="0.3" d="M486.41 225.991L502.249 207.877C502.249 207.877 500.363 212.287 504.485 218.72C508.608 225.154 511.056 224.029 511.056 224.029C511.056 224.029 501.7 237.683 499.201 242.255C496.703 246.827 494.092 250.687 494.092 250.687C493.816 251.22 493.386 251.659 492.858 251.946C492.331 252.233 491.729 252.356 491.131 252.299C488.808 252.299 482.649 241.98 486.41 225.991Z" fill="#11047A"/>
<path d="M357.868 266.702L365.325 276.633L357.305 285.814L346.975 273.735L357.868 266.702Z" fill="#F28F8F"/>
<path d="M333.446 244.116C339.954 244.416 343.052 245.366 346.462 249.438C349.873 253.51 366.912 278.132 366.912 278.132C366.912 278.132 363.901 286.576 357.305 285.852L345.326 273.497L333.446 244.116Z" fill="#455A64"/>
<path d="M301.517 450.383C301.054 452.973 300.803 455.596 300.767 458.227C300.68 462.974 299.806 464.673 299.693 468.571C299.556 473.03 300.33 474.704 302.192 477.203C304.053 479.701 308.75 481.987 310.761 477.752C312.772 473.518 312.51 470.744 311.86 466.36C311.211 461.975 311.111 459.339 310.736 455.891C310.386 452.843 309.986 450.532 309.986 450.532L301.517 450.383Z" fill="#263238"/>
<path d="M315.021 413.044L299.343 412.757C299.581 423.225 301.242 440.639 301.517 450.445C301.517 452.294 301.517 464.798 302.166 468.608C303.216 474.317 309.986 473.542 310.349 470.132C310.711 466.722 309.911 452.106 309.936 450.595C309.874 444.349 312.822 427.885 314.371 416.579C314.446 415.967 314.946 413.519 315.021 413.044Z" fill="#FFBDA7"/>
<path d="M338.043 442.25C338.043 442.25 337.243 442.25 337.106 442.95C336.969 443.649 336.919 444.974 336.594 446.273C336.061 448.309 335.875 450.421 336.044 452.519C336.307 453.98 339.642 456.154 341.928 456.541C344.214 456.928 347.424 459.177 349.211 460.863C352.079 463.231 355.628 464.623 359.342 464.836C363.089 464.836 365.8 463.586 367.049 461.538C368.298 459.489 365.912 459.252 361.565 456.429L358.18 454.23C351.297 449.733 348.774 447.322 346.825 442.825L338.043 442.25Z" fill="#263238"/>
<path d="M346.875 439.802C346.762 436.554 348.411 412.694 348.411 412.694L334.933 414.219C338.131 433.231 338.38 439.714 338.018 442.488C337.95 442.744 337.921 443.009 337.931 443.275C337.931 447.022 342.115 448.971 345.426 451.432C346.675 452.406 350.01 455.404 353.883 456.716C356.381 457.578 361.016 457.965 361.603 456.379C357.655 453.356 352.259 449.408 349.111 445.948C347.562 444.274 346.987 443.025 346.875 439.802Z" fill="#FFBDA7"/>
<path d="M302.978 304.814C295.633 320.879 303.253 377.442 303.253 377.442C303.028 380.053 300.043 385.175 298.944 396.655C297.632 410.196 301.354 446.485 301.354 446.485C302.667 447.281 304.167 447.718 305.702 447.751C307.237 447.783 308.753 447.412 310.099 446.672C310.099 446.672 319.58 393.357 321.342 379.891C322.828 368.123 325.676 342.265 325.676 342.265L333.771 379.816C332.584 383.608 331.723 387.495 331.198 391.433C330.436 399.353 338.156 439.14 338.156 439.14C339.547 439.714 341.041 439.995 342.546 439.965C344.051 439.935 345.533 439.595 346.9 438.965C346.9 438.965 350.31 387.573 351.035 378.029C352.284 361.99 347.974 311.96 345.039 302.466L302.978 304.814Z" fill="url(#paint20_linear_683_29965)"/>
<path opacity="0.5" d="M302.978 304.814C295.633 320.879 303.253 377.442 303.253 377.442C303.028 380.053 300.043 385.175 298.944 396.655C297.632 410.196 301.354 446.485 301.354 446.485C302.667 447.281 304.167 447.718 305.702 447.751C307.237 447.783 308.753 447.412 310.099 446.672C310.099 446.672 319.58 393.357 321.342 379.891C322.828 368.123 325.676 342.265 325.676 342.265L333.771 379.816C332.584 383.608 331.723 387.495 331.198 391.433C330.436 399.353 338.156 439.14 338.156 439.14C339.547 439.714 341.041 439.995 342.546 439.965C344.051 439.935 345.533 439.595 346.9 438.965C346.9 438.965 350.31 387.573 351.035 378.029C352.284 361.99 347.974 311.96 345.039 302.466L302.978 304.814Z" fill="#11047A"/>
<path opacity="0.2" d="M325.651 342.265L328.037 327.35C328.037 327.35 338.13 325.264 342.715 320.954C339.553 324.662 335.416 327.41 330.773 328.886L328.087 340.379L332.784 375.144L325.651 342.265Z" fill="#11047A"/>
<path d="M306.751 254.934L316.744 257.533V236.384C311.223 234.947 306.751 238.133 306.751 243.504V254.934Z" fill="url(#paint21_linear_683_29965)"/>
<path opacity="0.6" d="M306.751 254.934L316.744 257.533V236.384C311.223 234.947 306.751 238.133 306.751 243.504V254.934Z" fill="#11047A"/>
<path d="M326.538 239.407L322.953 239.332C312.01 239.07 303.341 229.638 303.578 218.246C303.578 205.829 313.197 195.76 325.114 195.648C337.031 195.585 346.75 205.641 346.812 218.008V219.258C346.513 230.663 337.456 239.644 326.538 239.407Z" fill="url(#paint22_linear_683_29965)"/>
<path opacity="0.6" d="M326.538 239.407L322.953 239.332C312.01 239.07 303.341 229.638 303.578 218.246C303.578 205.829 313.197 195.76 325.114 195.648C337.031 195.585 346.75 205.641 346.812 218.008V219.258C346.513 230.663 337.456 239.644 326.538 239.407Z" fill="#11047A"/>
<path d="M309.786 200.832C309.699 200.47 309.538 200.129 309.314 199.832C309.089 199.534 308.806 199.286 308.481 199.104C308.156 198.921 307.797 198.807 307.426 198.769C307.056 198.731 306.681 198.77 306.326 198.883L307.288 202.631C307.089 202.378 306.843 202.166 306.563 202.006C306.239 201.823 305.88 201.71 305.51 201.674C305.139 201.638 304.765 201.68 304.412 201.798C304.059 201.916 303.734 202.106 303.459 202.357C303.184 202.608 302.965 202.914 302.816 203.255L307.688 206.116C307.941 205.628 308.054 205.078 308.013 204.53C308.71 204.238 309.276 203.7 309.603 203.018C309.93 202.337 309.995 201.559 309.786 200.832Z" fill="url(#paint23_linear_683_29965)"/>
<path opacity="0.6" d="M309.786 200.832C309.699 200.47 309.538 200.129 309.314 199.832C309.089 199.534 308.806 199.286 308.481 199.104C308.156 198.921 307.797 198.807 307.426 198.769C307.056 198.731 306.681 198.77 306.326 198.883L307.288 202.631C307.089 202.378 306.843 202.166 306.563 202.006C306.239 201.823 305.88 201.71 305.51 201.674C305.139 201.638 304.765 201.68 304.412 201.798C304.059 201.916 303.734 202.106 303.459 202.357C303.184 202.608 302.965 202.914 302.816 203.255L307.688 206.116C307.941 205.628 308.054 205.078 308.013 204.53C308.71 204.238 309.276 203.7 309.603 203.018C309.93 202.337 309.995 201.559 309.786 200.832Z" fill="#11047A"/>
<path d="M315.695 244.978C312.331 245.435 308.995 246.077 305.702 246.902C309.574 256.396 303.503 271.061 303.503 271.061L309.237 288.712C305.277 296.82 302.017 300.842 300.667 307.45C304.315 314.571 330.061 321.366 346.825 308.387C346.825 308.387 346.288 290.361 344.152 279.856C349.636 269.15 348.749 266.002 347.624 262.267C345.014 253.585 339.742 250.25 333.459 244.129L329.711 243.729L315.695 244.978Z" fill="#37474F"/>
<path d="M309.874 295.783C312.984 292.597 319.58 291.686 319.58 291.686L313.521 288.238L306.751 271.886C309.592 266.32 310.996 260.132 310.836 253.885L306.938 252.948C307.413 261.605 303.49 271.074 303.49 271.074L309.224 288.725C305.264 296.832 302.004 300.855 300.655 307.463C303.153 312.335 316.007 317.057 329.249 315.383C311.51 314.183 306.888 298.868 309.874 295.783Z" fill="#263238"/>
<path d="M327.8 315.52L328.524 315.445C328.281 315.45 328.039 315.475 327.8 315.52Z" fill="#E6E6E6"/>
<path d="M338.768 206.716C340.916 208.689 343.602 212.962 343.389 225.454C343.202 236.072 339.917 238.707 338.255 239.469C336.594 240.231 333.408 239.794 330.298 239.27V243.667C330.298 243.667 334.395 248.214 334.146 251.162C333.896 254.11 328.299 255.297 324.264 252.411C321.422 250.258 318.898 247.714 316.769 244.853V231.5C316.769 231.5 314.945 233.361 311.773 230.563C309.274 228.239 308.325 224.317 310.311 222.193C310.821 221.69 311.446 221.32 312.133 221.116C312.819 220.912 313.545 220.879 314.247 221.021C314.949 221.163 315.605 221.475 316.158 221.93C316.711 222.385 317.144 222.968 317.419 223.63C322.18 223.132 326.815 221.795 331.11 219.682C333.525 218.52 335.542 216.668 336.905 214.36C338.268 212.052 338.916 209.392 338.768 206.716Z" fill="#FFBDA7"/>
<path d="M330.285 223.068C330.285 223.31 330.213 223.547 330.08 223.75C329.947 223.953 329.757 224.112 329.535 224.209C329.312 224.306 329.066 224.336 328.827 224.295C328.588 224.254 328.366 224.145 328.188 223.98C328.01 223.815 327.883 223.602 327.824 223.367C327.766 223.131 327.777 222.884 327.856 222.655C327.935 222.425 328.08 222.224 328.272 222.076C328.464 221.927 328.695 221.838 328.936 221.818C329.279 221.811 329.611 221.938 329.863 222.171C330.115 222.404 330.266 222.725 330.285 223.068Z" fill="#263238"/>
<path d="M330.773 231.912L334.108 232.999C334.055 233.226 333.956 233.441 333.816 233.629C333.677 233.817 333.501 233.974 333.298 234.091C333.096 234.208 332.871 234.282 332.639 234.309C332.407 234.336 332.171 234.315 331.947 234.248C331.493 234.078 331.12 233.743 330.902 233.31C330.684 232.877 330.638 232.378 330.773 231.912Z" fill="#F79776"/>
<path d="M342.353 218.283L339.317 217.246C339.365 217.044 339.455 216.853 339.581 216.688C339.707 216.522 339.867 216.385 340.049 216.285C340.232 216.185 340.433 216.124 340.641 216.107C340.848 216.089 341.057 216.116 341.254 216.185C341.663 216.337 342.002 216.636 342.205 217.023C342.408 217.411 342.461 217.859 342.353 218.283Z" fill="#263238"/>
<path d="M317.432 222.443V226.928C317.719 226.94 318.006 226.893 318.275 226.789C318.544 226.686 318.789 226.529 318.995 226.328C319.201 226.127 319.364 225.886 319.473 225.619C319.582 225.353 319.636 225.067 319.63 224.779C319.634 224.182 319.408 223.606 318.999 223.171C318.589 222.736 318.028 222.475 317.432 222.443Z" fill="url(#paint24_linear_683_29965)"/>
<path opacity="0.6" d="M317.432 222.443V226.928C317.719 226.94 318.006 226.893 318.275 226.789C318.544 226.686 318.789 226.529 318.995 226.328C319.201 226.127 319.364 225.886 319.473 225.619C319.582 225.353 319.636 225.067 319.63 224.779C319.634 224.182 319.408 223.606 318.999 223.171C318.589 222.736 318.028 222.475 317.432 222.443Z" fill="#11047A"/>
<path d="M341.253 222.63C341.281 222.99 341.165 223.345 340.931 223.619C340.697 223.893 340.363 224.063 340.004 224.092C339.729 224.119 339.452 224.063 339.209 223.931C338.966 223.799 338.767 223.598 338.639 223.353C338.512 223.108 338.46 222.83 338.491 222.555C338.523 222.28 338.635 222.021 338.815 221.811C338.995 221.601 339.233 221.449 339.5 221.375C339.766 221.302 340.049 221.309 340.311 221.398C340.573 221.486 340.803 221.65 340.971 221.87C341.139 222.089 341.237 222.354 341.253 222.63Z" fill="#263238"/>
<path d="M334.133 220.819L334.108 229.513L338.155 228.177L334.133 220.819Z" fill="#F79776"/>
<path d="M330.298 239.32C327.013 238.895 320.305 236.909 319.193 234.135C319.615 235.526 320.447 236.758 321.579 237.671C323.603 239.457 330.323 241.418 330.323 241.418L330.298 239.32Z" fill="#F79776"/>
<path d="M290.324 289.375C290.324 289.375 298.344 300.767 299.718 302.254C301.092 303.74 302.041 303.241 303.528 302.578C305.341 301.846 307.202 301.241 309.099 300.767C311.598 300.155 312.072 302.416 309.649 304.028C307.9 305.202 305.901 305.701 306.726 306.663C308.435 308.211 310.418 309.427 312.572 310.248C318.493 312.584 318.031 313.759 316.944 315.67C315.995 317.344 313.197 320.942 302.653 316.694C298.281 314.933 292.135 309.949 289.237 306.701C285.052 302.066 278.519 293.759 278.519 293.759L290.324 289.375Z" fill="#FFBDA7"/>
<path d="M307.238 246.49C304.34 246.677 298.881 247.377 292.035 258.744C286.027 268.738 276.72 282.242 274.996 287.076C274.297 289.037 277.02 293.097 280.53 297.257C285.315 297.045 289.674 293.734 291.935 291.086C291.342 289.677 290.605 288.334 289.737 287.076L303.778 271.061C303.778 271.061 309.112 266.177 310.224 259.819C311.423 252.923 311.048 247.502 307.238 246.49Z" fill="#455A64"/>
<path d="M385.849 268.051L351.234 277.17L341.703 316.332L374.619 306.776L385.849 268.051Z" fill="url(#paint25_linear_683_29965)"/>
<path opacity="0.25" d="M385.849 268.051L351.234 277.17L341.703 316.332L374.619 306.776L385.849 268.051Z" fill="#11047A"/>
<g opacity="0.1">
<path d="M370.209 295.783C370.789 296.992 371.712 298.004 372.862 298.693C374.013 299.381 375.341 299.716 376.68 299.655L376.93 298.793L370.209 295.783Z" fill="#11047A"/>
</g>
<g opacity="0.1">
<path d="M375.419 274.272L375.706 272.948C375.868 272.223 373.832 272.186 371.171 272.948L366.062 274.197C363.401 274.896 361.065 276.046 360.953 276.77L360.678 278.094L375.419 274.272Z" fill="#11047A"/>
</g>
<path d="M378.08 269.313C378.179 268.85 377.355 268.725 376.243 269.038L374.22 269.6C374.22 269.6 374.819 266.739 370.347 267.739C369.146 267.915 368.012 268.399 367.053 269.143C366.095 269.888 365.345 270.867 364.876 271.986L362.727 272.598C361.478 272.935 360.453 273.572 360.316 274.022L360.054 274.846L377.892 270.15L378.08 269.313Z" fill="#37474F"/>
<path d="M375.619 270.712C373.995 271.111 373.308 271.324 373.12 272.448C372.933 273.572 372.721 274.672 372.721 274.672L364.838 276.758C364.838 276.758 365.225 275.134 365.35 274.509C365.475 273.885 365.2 273.485 363.939 273.822L363.839 273.322L376.206 270.162L375.619 270.712Z" fill="#37474F"/>
<path d="M375.893 274.384L376.181 273.06C376.343 272.336 374.307 272.298 371.646 273.06L366.537 274.309C363.876 275.009 361.54 276.158 361.428 276.883L361.153 278.207L375.893 274.384Z" fill="#37474F"/>
<path d="M382.202 280.63C382.202 280.63 380.953 285.065 380.615 286.114C380.278 287.163 376.431 289.075 373.895 289.774C371.359 290.474 368.561 291.298 369.772 294.858C370.872 298.144 375.069 298.893 377.193 298.793C379.316 298.693 382.252 296.67 383.439 293.384C384.9 289.187 384.113 284.715 384.688 282.267C385.262 279.818 383.476 279.169 382.202 280.63Z" fill="#FFBDA7"/>
<path d="M251.075 281.667C246.328 276.883 244.629 278.744 244.029 283.991C243.807 286.191 243.273 288.349 242.443 290.399C242.295 289.309 241.996 288.246 241.556 287.238C241.347 286.694 240.94 286.248 240.416 285.991C239.893 285.734 239.291 285.684 238.733 285.852C238.27 286.039 238.845 287.101 238.733 289.187C238.645 291.785 237.796 293.222 238.408 295.983C238.621 297.021 238.457 298.102 237.946 299.031C235.447 303.778 227.215 312.547 221.444 318.868L199.521 299.068C192.025 292.323 189.602 289.287 182.369 289.774C184.632 290.633 186.716 291.903 188.515 293.522C191.875 296.358 191.076 312.584 191.076 312.584C191.076 312.584 215.96 330.423 218.558 332.122C218.933 332.372 219.32 332.596 219.695 332.809C220.923 333.449 222.332 333.656 223.692 333.395C225.053 333.134 226.285 332.421 227.19 331.372C232.499 325.301 240.244 313.346 244.679 307.138C246.706 304.133 248.514 300.985 250.088 297.719C254.535 288.887 254.048 284.665 251.075 281.667Z" fill="#914F4E"/>
<path d="M183.144 289.375C184.891 289.057 186.687 289.115 188.41 289.546C190.133 289.976 191.745 290.77 193.137 291.873C197.409 295.121 215.622 311.86 215.622 311.86C215.622 311.86 216.122 320.717 206.878 325.988L184.555 310.248L183.144 289.375Z" fill="url(#paint26_linear_683_29965)"/>
<path opacity="0.3" d="M183.144 289.375C184.891 289.057 186.687 289.115 188.41 289.546C190.133 289.976 191.745 290.77 193.137 291.873C197.409 295.121 215.622 311.86 215.622 311.86C215.622 311.86 216.122 320.717 206.878 325.988L184.555 310.248L183.144 289.375Z" fill="#11047A"/>
<path d="M161.595 489.195H152.139V506.059H161.595V489.195Z" fill="#914F4E"/>
<path d="M184.93 488.295L194.387 488.633L194.861 470.782L184.93 470.445V488.295Z" fill="#914F4E"/>
<path d="M150.802 343.177C150.802 352.584 152.189 428.297 152.189 428.297C151.976 430.995 149.54 435.992 150.065 446.385C150.777 460.513 151.739 497.602 151.739 497.602C153.363 498.434 155.155 498.885 156.98 498.922C158.804 498.959 160.613 498.58 162.27 497.814C162.27 497.814 171.214 446.41 172.913 432.419C174.387 420.202 176.898 379.079 176.898 379.079L182.019 426.898C180.928 432.039 180.533 437.304 180.845 442.55C181.295 449.021 184.33 482.737 184.33 482.737C185.966 483.704 187.8 484.286 189.694 484.437C191.589 484.589 193.492 484.306 195.261 483.611C195.261 483.611 200.632 432.831 200.745 426.898C200.87 420.127 197.597 343.052 197.597 343.052L150.802 343.177Z" fill="#37474F"/>
<path d="M161.595 501.187V499.788C162.507 500.2 164.606 508.532 168.353 512.117C171.339 514.953 175.411 518.226 176.448 521.386C177.485 524.547 170.777 526.483 167.991 525.971C164.756 525.371 159.134 522.998 157.735 520.799C156.336 518.601 155.662 515.34 154.512 513.729C153.363 512.118 150.765 510.319 150.115 508.445C149.93 506.702 150.113 504.94 150.652 503.273C151.09 501.537 151.564 499.626 152.139 499.788V500.862C153.473 501.955 155.149 502.543 156.873 502.524C158.247 502.574 161.608 502.286 161.595 501.187Z" fill="#263238"/>
<path d="M194.486 485.597C194.974 485.597 195.373 486.334 196.46 487.558C198.066 489.248 199.945 490.654 202.019 491.718C205.567 493.567 212.45 496.415 215.573 497.877C217.521 498.789 217.422 501.237 215.41 502.624C213.399 504.01 208.54 505.022 202.706 503.673C199.533 502.923 195.386 499.925 192.713 500.038C190.039 500.15 185.217 500.163 183.256 498.789C181.295 497.415 182.094 494.429 182.644 491.893C183.244 489.107 183.993 484.773 184.868 484.96V485.922C186.004 487.721 191.876 488.42 194.374 487.171L194.486 485.597Z" fill="#263238"/>
<path d="M176.898 379.104C181.819 377.497 186.318 374.807 190.064 371.234C190.064 371.234 187.566 376.231 179.971 380.803L181.582 423.512L176.898 379.104Z" fill="#263238"/>
<path d="M155.724 291.873C155.724 291.873 148.329 292.547 148.853 306.651L150.49 329.136L150.34 362.864C157.285 370.747 188.128 370.172 198.683 362.227C198.683 362.227 197.597 322.341 196.885 306.988C196.372 296.083 193.862 290.586 183.144 289.387L169.952 289.962L155.724 291.873Z" fill="url(#paint27_linear_683_29965)"/>
<path opacity="0.3" d="M176.748 299.268L178.446 311.11L182.406 311.035L177.934 311.735L176.748 299.268Z" fill="#11047A"/>
<path d="M132.252 340.292C136.087 309.437 144.918 294.071 155.674 292.298L154.912 312.035C150.434 322.561 147.003 333.503 144.669 344.701C143.257 352.296 141.621 365.5 142.045 371.983C142.13 373.126 142.617 374.201 143.419 375.019C145.543 377.18 146.18 379.054 147.604 381.49C148.728 383.401 149.878 384.076 149.578 384.538C149.192 385.024 148.631 385.34 148.015 385.419C147.399 385.499 146.777 385.335 146.28 384.962C145.153 384.164 144.122 383.237 143.207 382.202C143.07 385.143 143.6 388.076 144.756 390.784C147.254 395.98 146.855 398.716 139.884 397.18C135.512 396.23 132.389 391.621 131.14 380.865C130.811 376.851 130.74 372.821 130.928 368.798C131.402 358.517 131.49 346.463 132.252 340.292Z" fill="#914F4E"/>
<path d="M156.286 291.785C150.702 291.785 145.605 292.747 141.546 300.53C137.661 308.025 134.675 323.877 133.164 329.061C133.164 329.061 141.321 333.883 148.828 333.758L154.112 315.42C154.112 315.42 157.685 306.863 156.286 291.785Z" fill="url(#paint28_linear_683_29965)"/>
<path opacity="0.3" d="M156.286 291.785C150.702 291.785 145.605 292.747 141.546 300.53C137.661 308.025 134.675 323.877 133.164 329.061C133.164 329.061 141.321 333.883 148.828 333.758L154.112 315.42C154.112 315.42 157.685 306.863 156.286 291.785Z" fill="#11047A"/>
<path d="M167.816 260.031C167.929 262.791 168.85 265.457 170.466 267.698C172.082 269.939 174.321 271.655 176.904 272.634C179.487 273.612 182.301 273.81 184.996 273.202C187.691 272.594 190.147 271.208 192.06 269.215C193.973 267.222 195.259 264.711 195.756 261.993C196.253 259.276 195.941 256.472 194.858 253.931C193.774 251.39 191.968 249.223 189.663 247.7C187.359 246.177 184.657 245.365 181.895 245.366C178.084 245.448 174.462 247.038 171.823 249.787C169.183 252.537 167.743 256.221 167.816 260.031Z" fill="#263238"/>
<path d="M158.859 267.364C158.859 267.364 161.02 277.932 161.882 279.668C162.445 280.731 163.399 281.534 164.543 281.904L164.381 274.409L158.859 267.364Z" fill="#263238"/>
<path d="M161.57 252.224C161.57 252.224 159.971 251.899 158.372 254.397C156.96 256.596 156.648 261.543 158.859 267.351L162.919 267.839L161.57 252.224Z" fill="#263238"/>
<path d="M164.144 267.851C163.332 268.363 162.17 266.727 161.158 265.64C160.146 264.553 156.873 263.042 155.237 266.639C153.601 270.237 156.673 275.146 159.259 275.983C163.719 277.445 164.381 274.459 164.381 274.459L164.731 291.211C170.639 300.355 184.043 300.03 179.221 290.761V285.627C181.206 285.957 183.221 286.066 185.23 285.952C188.503 285.427 190.564 282.729 191.563 279.031C193.162 273.098 193.762 268.313 192.413 256.646C190.926 243.854 176.648 243.717 168.928 248.776C161.208 253.835 164.144 267.851 164.144 267.851Z" fill="#914F4E"/>
<path d="M164.656 287.451C166.03 290.264 168.005 292.741 170.44 294.709C172.511 296.236 174.911 297.258 177.448 297.694C175.357 299.11 173.642 301.014 172.451 303.241C170.977 306.501 160.558 297.544 160.658 291.186C160.658 291.186 162.295 284.803 164.531 284.39L164.656 287.451Z" fill="#263238"/>
<path d="M177.46 297.694C177.46 297.694 180.67 296.095 179.234 290.761V285.627L180.645 285.814C182.29 287.417 183.458 289.446 184.018 291.673C184.343 293.135 185.142 300.53 183.731 301.991C182.319 303.453 180.333 298.119 177.46 297.694Z" fill="#263238"/>
<path d="M164.143 269.288C163.731 269.288 162.17 266.602 161.158 265.64C159.746 264.303 161.57 252.224 161.57 252.224C161.202 251.181 161.134 250.056 161.372 248.977C161.611 247.897 162.147 246.906 162.919 246.115C164.856 243.904 168.078 243.617 173.575 242.767C175.769 242.497 177.947 242.101 180.096 241.581C182.365 240.732 184.548 239.669 186.616 238.408C187.267 237.986 188.046 237.809 188.815 237.908C189.17 238.027 189.487 238.238 189.735 238.519C189.982 238.799 190.152 239.14 190.227 239.507C190.352 240.239 190.352 240.986 190.227 241.718C190.921 241.072 191.844 240.727 192.792 240.76C193.741 240.793 194.637 241.2 195.286 241.893C195.899 242.624 196.299 243.51 196.44 244.453C196.581 245.397 196.458 246.361 196.085 247.239C195.287 248.987 193.981 250.454 192.338 251.449C185.43 256.121 177.272 254.822 169.527 253.948C169.162 253.866 168.78 253.892 168.428 254.022C167.179 254.572 166.954 258.332 166.742 259.419C166.117 263.042 165.518 269.263 164.143 269.288Z" fill="#263238"/>
<path d="M161.57 252.861L156.648 250.1C156.798 249.759 157.017 249.453 157.292 249.202C157.567 248.951 157.891 248.76 158.245 248.643C158.598 248.525 158.972 248.483 159.342 248.518C159.713 248.554 160.072 248.668 160.396 248.851C161.05 249.258 161.532 249.892 161.748 250.632C161.965 251.371 161.902 252.165 161.57 252.861Z" fill="#263238"/>
<path d="M179.208 285.627C179.208 285.627 171.901 284.09 169.34 282.679C167.82 281.848 166.587 280.576 165.805 279.031C166.186 280.582 166.869 282.042 167.816 283.328C169.677 285.827 179.208 287.663 179.208 287.663V285.627Z" fill="#783736"/>
<path d="M176.56 265.515C176.569 265.715 176.537 265.915 176.468 266.103C176.4 266.291 176.294 266.464 176.158 266.611C176.023 266.759 175.859 266.878 175.677 266.962C175.496 267.046 175.299 267.093 175.099 267.102C174.694 267.079 174.315 266.899 174.042 266.6C173.769 266.301 173.623 265.907 173.637 265.503C173.637 265.115 173.791 264.743 174.065 264.469C174.339 264.195 174.711 264.041 175.099 264.041C175.486 264.041 175.858 264.195 176.132 264.469C176.406 264.743 176.56 265.115 176.56 265.503V265.515Z" fill="#263238"/>
<path d="M174.049 259.169L170.914 260.968C170.688 260.523 170.638 260.009 170.772 259.528C170.906 259.047 171.215 258.634 171.638 258.37C171.847 258.253 172.078 258.182 172.315 258.16C172.553 258.137 172.793 258.164 173.02 258.24C173.246 258.315 173.455 258.436 173.632 258.596C173.809 258.756 173.951 258.951 174.049 259.169Z" fill="#263238"/>
<path d="M178.547 276.495L181.895 277.807C181.829 278.037 181.716 278.251 181.563 278.435C181.411 278.619 181.222 278.77 181.009 278.878C180.795 278.986 180.562 279.049 180.323 279.062C180.084 279.076 179.845 279.04 179.621 278.956C179.165 278.757 178.8 278.393 178.601 277.937C178.402 277.48 178.382 276.965 178.547 276.495Z" fill="#783736"/>
<path d="M191.201 260.918L187.903 259.319C187.984 259.096 188.111 258.892 188.276 258.721C188.441 258.55 188.64 258.416 188.861 258.327C189.082 258.239 189.318 258.198 189.556 258.207C189.793 258.217 190.026 258.276 190.239 258.382C190.685 258.611 191.03 258.997 191.207 259.465C191.385 259.934 191.383 260.451 191.201 260.918Z" fill="#263238"/>
<path d="M189.04 265.515C189.059 265.719 189.035 265.925 188.97 266.119C188.905 266.314 188.799 266.492 188.661 266.644C188.523 266.795 188.355 266.916 188.167 266.999C187.98 267.082 187.777 267.125 187.572 267.125C187.367 267.125 187.164 267.082 186.977 266.999C186.789 266.916 186.621 266.795 186.483 266.644C186.345 266.492 186.24 266.314 186.175 266.119C186.109 265.925 186.086 265.719 186.104 265.515C186.096 265.315 186.127 265.116 186.196 264.929C186.265 264.741 186.371 264.57 186.507 264.423C186.643 264.277 186.806 264.159 186.988 264.076C187.17 263.993 187.366 263.947 187.566 263.941C187.969 263.957 188.35 264.132 188.625 264.426C188.901 264.721 189.05 265.112 189.04 265.515Z" fill="#263238"/>
<path d="M180.733 264.378L180.895 273.635L186.154 272.436L180.733 264.378Z" fill="#783736"/>
<path d="M174.299 261.693C173.328 261.693 172.398 262.078 171.711 262.765C171.025 263.451 170.639 264.382 170.639 265.353C170.639 266.323 171.025 267.254 171.711 267.941C172.398 268.627 173.328 269.013 174.299 269.013H174.961C175.932 269.013 176.863 268.627 177.549 267.941C178.236 267.254 178.621 266.323 178.621 265.353C178.621 264.382 178.236 263.451 177.549 262.765C176.863 262.078 175.932 261.693 174.961 261.693H174.299ZM169.965 265.353C169.955 264.195 170.404 263.081 171.214 262.254C172.024 261.428 173.129 260.956 174.287 260.943H174.961C176.022 261.082 176.997 261.603 177.702 262.407C178.408 263.211 178.797 264.245 178.797 265.315C178.797 266.385 178.408 267.419 177.702 268.223C176.997 269.028 176.022 269.548 174.961 269.687H174.299C173.152 269.681 172.053 269.222 171.241 268.41C170.43 267.599 169.971 266.5 169.965 265.353Z" fill="#263238"/>
<path d="M187.453 261.693C186.483 261.693 185.552 262.078 184.865 262.765C184.179 263.451 183.793 264.382 183.793 265.353C183.793 266.323 184.179 267.254 184.865 267.941C185.552 268.627 186.483 269.013 187.453 269.013H188.115C189.086 269.013 190.017 268.627 190.703 267.941C191.39 267.254 191.775 266.323 191.775 265.353C191.775 264.382 191.39 263.451 190.703 262.765C190.017 262.078 189.086 261.693 188.115 261.693H187.453ZM183.131 265.353C183.121 264.195 183.57 263.081 184.381 262.254C185.191 261.428 186.296 260.956 187.453 260.943H188.115C189.176 261.082 190.151 261.603 190.856 262.407C191.562 263.211 191.951 264.245 191.951 265.315C191.951 266.385 191.562 267.419 190.856 268.223C190.151 269.028 189.176 269.548 188.115 269.687H187.453C186.312 269.671 185.223 269.208 184.42 268.397C183.616 267.587 183.162 266.494 183.156 265.353H183.131Z" fill="#263238"/>
<path d="M179.233 264.478C179.495 264.115 179.838 263.819 180.235 263.613C180.632 263.407 181.072 263.297 181.519 263.291C181.888 263.252 182.262 263.301 182.607 263.436C182.953 263.571 183.261 263.787 183.506 264.066L184.093 263.616C183.781 263.235 183.379 262.939 182.923 262.753C182.466 262.568 181.971 262.499 181.482 262.554C180.915 262.56 180.357 262.703 179.857 262.971C179.357 263.238 178.929 263.622 178.609 264.091L179.233 264.478Z" fill="#263238"/>
<path d="M170.365 264.441H162.919V265.178H170.365V264.441Z" fill="#263238"/>
<defs>
<linearGradient id="paint0_linear_683_29965" x1="94.9488" y1="215.885" x2="109.761" y2="216.377" gradientUnits="userSpaceOnUse">
<stop stop-color="#868CFF"/>
<stop offset="1" stop-color="#4318FF"/>
</linearGradient>
<linearGradient id="paint1_linear_683_29965" x1="94.911" y1="215.885" x2="105.199" y2="216.924" gradientUnits="userSpaceOnUse">
<stop stop-color="#868CFF"/>
<stop offset="1" stop-color="#4318FF"/>
</linearGradient>
<linearGradient id="paint2_linear_683_29965" x1="103.676" y1="20.5616" x2="497.381" y2="313.712" gradientUnits="userSpaceOnUse">
<stop stop-color="#868CFF"/>
<stop offset="1" stop-color="#4318FF"/>
</linearGradient>
<linearGradient id="paint3_linear_683_29965" x1="103.676" y1="20.5616" x2="497.379" y2="313.712" gradientUnits="userSpaceOnUse">
<stop stop-color="#868CFF"/>
<stop offset="1" stop-color="#4318FF"/>
</linearGradient>
<linearGradient id="paint4_linear_683_29965" x1="103.676" y1="38.8872" x2="314.283" y2="329.623" gradientUnits="userSpaceOnUse">
<stop stop-color="#868CFF"/>
<stop offset="1" stop-color="#4318FF"/>
</linearGradient>
<linearGradient id="paint5_linear_683_29965" x1="114.405" y1="231.462" x2="254.095" y2="296.248" gradientUnits="userSpaceOnUse">
<stop stop-color="#868CFF"/>
<stop offset="1" stop-color="#4318FF"/>
</linearGradient>
<linearGradient id="paint6_linear_683_29965" x1="216.447" y1="162.454" x2="276.926" y2="260.339" gradientUnits="userSpaceOnUse">
<stop stop-color="#868CFF"/>
<stop offset="1" stop-color="#4318FF"/>
</linearGradient>
<linearGradient id="paint7_linear_683_29965" x1="217.169" y1="141.48" x2="306.092" y2="293.399" gradientUnits="userSpaceOnUse">
<stop stop-color="#868CFF"/>
<stop offset="1" stop-color="#4318FF"/>
</linearGradient>
<linearGradient id="paint8_linear_683_29965" x1="217.169" y1="153.247" x2="306.091" y2="305.166" gradientUnits="userSpaceOnUse">
<stop stop-color="#868CFF"/>
<stop offset="1" stop-color="#4318FF"/>
</linearGradient>
<linearGradient id="paint9_linear_683_29965" x1="217.169" y1="165.002" x2="306.06" y2="316.903" gradientUnits="userSpaceOnUse">
<stop stop-color="#868CFF"/>
<stop offset="1" stop-color="#4318FF"/>
</linearGradient>
<linearGradient id="paint10_linear_683_29965" x1="217.169" y1="176.769" x2="306.092" y2="328.688" gradientUnits="userSpaceOnUse">
<stop stop-color="#868CFF"/>
<stop offset="1" stop-color="#4318FF"/>
</linearGradient>
<linearGradient id="paint11_linear_683_29965" x1="216.58" y1="217.993" x2="281.471" y2="326.5" gradientUnits="userSpaceOnUse">
<stop stop-color="#868CFF"/>
<stop offset="1" stop-color="#4318FF"/>
</linearGradient>
<linearGradient id="paint12_linear_683_29965" x1="217.169" y1="212.059" x2="306.092" y2="363.978" gradientUnits="userSpaceOnUse">
<stop stop-color="#868CFF"/>
<stop offset="1" stop-color="#4318FF"/>
</linearGradient>
<linearGradient id="paint13_linear_683_29965" x1="217.169" y1="223.826" x2="306.091" y2="375.745" gradientUnits="userSpaceOnUse">
<stop stop-color="#868CFF"/>
<stop offset="1" stop-color="#4318FF"/>
</linearGradient>
<linearGradient id="paint14_linear_683_29965" x1="217.169" y1="235.581" x2="306.106" y2="387.509" gradientUnits="userSpaceOnUse">
<stop stop-color="#868CFF"/>
<stop offset="1" stop-color="#4318FF"/>
</linearGradient>
<linearGradient id="paint15_linear_683_29965" x1="215.95" y1="309.833" x2="253.526" y2="370.255" gradientUnits="userSpaceOnUse">
<stop stop-color="#868CFF"/>
<stop offset="1" stop-color="#4318FF"/>
</linearGradient>
<linearGradient id="paint16_linear_683_29965" x1="438.198" y1="223.936" x2="470.362" y2="240.157" gradientUnits="userSpaceOnUse">
<stop stop-color="#868CFF"/>
<stop offset="1" stop-color="#4318FF"/>
</linearGradient>
<linearGradient id="paint17_linear_683_29965" x1="445.39" y1="223.705" x2="514.684" y2="268.397" gradientUnits="userSpaceOnUse">
<stop stop-color="#868CFF"/>
<stop offset="1" stop-color="#4318FF"/>
</linearGradient>
<linearGradient id="paint18_linear_683_29965" x1="501.346" y1="207.227" x2="516.689" y2="217.024" gradientUnits="userSpaceOnUse">
<stop stop-color="#868CFF"/>
<stop offset="1" stop-color="#4318FF"/>
</linearGradient>
<linearGradient id="paint19_linear_683_29965" x1="485.513" y1="207.877" x2="523.012" y2="230.119" gradientUnits="userSpaceOnUse">
<stop stop-color="#868CFF"/>
<stop offset="1" stop-color="#4318FF"/>
</linearGradient>
<linearGradient id="paint20_linear_683_29965" x1="299.259" y1="302.466" x2="390.067" y2="336.002" gradientUnits="userSpaceOnUse">
<stop stop-color="#868CFF"/>
<stop offset="1" stop-color="#4318FF"/>
</linearGradient>
<linearGradient id="paint21_linear_683_29965" x1="306.864" y1="236.039" x2="322.871" y2="243.632" gradientUnits="userSpaceOnUse">
<stop stop-color="#868CFF"/>
<stop offset="1" stop-color="#4318FF"/>
</linearGradient>
<linearGradient id="paint22_linear_683_29965" x1="304.062" y1="195.648" x2="346.147" y2="238.067" gradientUnits="userSpaceOnUse">
<stop stop-color="#868CFF"/>
<stop offset="1" stop-color="#4318FF"/>
</linearGradient>
<linearGradient id="paint23_linear_683_29965" x1="302.896" y1="198.755" x2="309.974" y2="205.71" gradientUnits="userSpaceOnUse">
<stop stop-color="#868CFF"/>
<stop offset="1" stop-color="#4318FF"/>
</linearGradient>
<linearGradient id="paint24_linear_683_29965" x1="317.457" y1="222.443" x2="320.908" y2="224.169" gradientUnits="userSpaceOnUse">
<stop stop-color="#868CFF"/>
<stop offset="1" stop-color="#4318FF"/>
</linearGradient>
<linearGradient id="paint25_linear_683_29965" x1="342.203" y1="268.051" x2="388.52" y2="311.257" gradientUnits="userSpaceOnUse">
<stop stop-color="#868CFF"/>
<stop offset="1" stop-color="#4318FF"/>
</linearGradient>
<linearGradient id="paint26_linear_683_29965" x1="183.511" y1="289.173" x2="218.72" y2="320.866" gradientUnits="userSpaceOnUse">
<stop stop-color="#868CFF"/>
<stop offset="1" stop-color="#4318FF"/>
</linearGradient>
<linearGradient id="paint27_linear_683_29965" x1="149.391" y1="289.387" x2="218.601" y2="333.889" gradientUnits="userSpaceOnUse">
<stop stop-color="#868CFF"/>
<stop offset="1" stop-color="#4318FF"/>
</linearGradient>
<linearGradient id="paint28_linear_683_29965" x1="133.429" y1="291.785" x2="168.157" y2="311.576" gradientUnits="userSpaceOnUse">
<stop stop-color="#868CFF"/>
<stop offset="1" stop-color="#4318FF"/>
</linearGradient>
</defs>
</svg>
