<svg width="24" height="24" viewBox="0 0 24 24" fill="none" xmlns="http://www.w3.org/2000/svg">
<path d="M1.33301 14.6667H4.89903C5.55127 14.6667 5.87739 14.6667 6.18429 14.7404C6.45639 14.8057 6.71651 14.9134 6.9551 15.0596C7.22421 15.2245 7.45482 15.4552 7.91602 15.9164L8.08333 16.0837C8.54453 16.5449 8.77514 16.7755 9.04425 16.9404C9.28284 17.0866 9.54296 17.1943 9.81506 17.2597C10.122 17.3333 10.4481 17.3333 11.1003 17.3333H12.899C13.5513 17.3333 13.8774 17.3333 14.1843 17.2597C14.4564 17.1943 14.7165 17.0866 14.9551 16.9404C15.2242 16.7755 15.4548 16.5449 15.916 16.0837L16.0833 15.9164C16.5445 15.4552 16.7751 15.2245 17.0442 15.0596C17.2828 14.9134 17.543 14.8057 17.8151 14.7404C18.122 14.6667 18.4481 14.6667 19.1003 14.6667H22.6663M7.73301 22.6667H16.2663C18.5066 22.6667 19.6267 22.6667 20.4823 22.2307C21.235 21.8472 21.8469 21.2353 22.2304 20.4826C22.6663 19.627 22.6663 18.5069 22.6663 16.2667V7.73334C22.6663 5.49313 22.6663 4.37303 22.2304 3.51738C21.8469 2.76473 21.235 2.15281 20.4823 1.76932C19.6267 1.33334 18.5066 1.33334 16.2663 1.33334H7.73301C5.4928 1.33334 4.37269 1.33334 3.51705 1.76932C2.7644 2.15281 2.15248 2.76473 1.76898 3.51738C1.33301 4.37303 1.33301 5.49313 1.33301 7.73334V16.2667C1.33301 18.5069 1.33301 19.627 1.76898 20.4826C2.15248 21.2353 2.7644 21.8472 3.51705 22.2307C4.37269 22.6667 5.4928 22.6667 7.73301 22.6667Z" stroke="#A3AED0" stroke-width="2" stroke-linecap="round" stroke-linejoin="round"/>
</svg>
