<svg width="880" height="880" viewBox="0 0 880 880" fill="none" xmlns="http://www.w3.org/2000/svg">
<path d="M441.496 799.41C647.117 799.41 813.806 712.22 813.806 604.666C813.806 497.111 647.117 409.922 441.496 409.922C235.875 409.922 69.1855 497.111 69.1855 604.666C69.1855 712.22 235.875 799.41 441.496 799.41Z" fill="#F5F5F5"/>
<path d="M313.844 637.525L334.4 649.44C336.762 650.638 339.373 651.263 342.021 651.263C344.669 651.263 347.28 650.638 349.642 649.44L548.874 534.406C553.08 531.978 553.08 528.035 548.874 525.606L528.37 513.762C526.008 512.563 523.397 511.939 520.749 511.939C518.101 511.939 515.49 512.563 513.128 513.762L313.896 628.795C309.637 631.154 309.637 635.096 313.844 637.525Z" fill="#E0E0E0"/>
<path d="M691.398 677.178C741.7 677.178 782.478 654.854 782.478 627.317C782.478 599.779 741.7 577.456 691.398 577.456C641.096 577.456 600.318 599.779 600.318 627.317C600.318 654.854 641.096 677.178 691.398 677.178Z" fill="#E0E0E0"/>
<path d="M129.87 675.558C158.418 689.163 204.706 689.163 233.253 675.558C261.8 661.954 261.8 639.901 233.253 626.278C204.706 612.656 158.418 612.674 129.87 626.278C101.323 639.883 101.323 661.954 129.87 675.558Z" fill="#E0E0E0"/>
<path d="M543.541 108.469C543.048 104.949 540.215 103.646 536.8 105.635L349.395 213.822C347.414 215.119 345.765 216.863 344.581 218.915C343.398 220.966 342.714 223.267 342.584 225.632V639.232C342.584 643.227 345.189 645.058 348.533 643.579C346.504 644.445 344.311 644.856 342.106 644.783C339.902 644.71 337.74 644.155 335.773 643.157L327.959 638.669C325.972 637.376 324.318 635.633 323.131 633.581C321.944 631.529 321.259 629.226 321.13 626.859V213.277C321.255 210.909 321.938 208.604 323.125 206.552C324.312 204.499 325.969 202.757 327.959 201.467L515.346 93.28C517.455 92.2045 519.789 91.6438 522.157 91.6438C524.525 91.6438 526.859 92.2045 528.968 93.28L536.8 97.7504C538.625 98.9513 540.171 100.529 541.333 102.378C542.496 104.227 543.249 106.304 543.541 108.469Z" fill="#455A64"/>
<path d="M536.8 105.6L349.395 213.822C347.413 215.119 345.764 216.863 344.581 218.915C343.398 220.966 342.714 223.267 342.584 225.632V639.232C342.584 643.562 345.646 645.339 349.395 643.157L536.8 534.899C538.781 533.602 540.429 531.857 541.612 529.806C542.795 527.754 543.48 525.454 543.611 523.09V109.49C543.611 105.23 540.549 103.453 536.8 105.6ZM533.79 484.123C533.79 487.837 531.186 490.195 527.947 492.061L357.562 590.427C354.341 592.293 351.718 590.797 351.718 587.066V265.126C351.831 263.097 352.419 261.123 353.434 259.362C354.449 257.602 355.862 256.104 357.562 254.989L528 156.64C531.238 154.774 533.843 156.288 533.843 160.002L533.79 484.123Z" fill="#37474F"/>
<path d="M348.48 643.509C346.452 644.375 344.258 644.785 342.054 644.712C339.849 644.639 337.687 644.084 335.72 643.086L327.906 638.598C325.921 637.304 324.268 635.56 323.082 633.509C321.896 631.457 321.209 629.155 321.077 626.789V213.277C321.165 210.896 321.855 208.577 323.084 206.536L344.538 218.856C343.313 220.892 342.622 223.205 342.532 225.579V639.179C342.584 643.157 345.189 644.987 348.48 643.509Z" fill="#263238"/>
<path d="M443.097 168.837C445.614 167.376 447.673 168.555 447.673 171.477C447.583 173.063 447.122 174.606 446.328 175.981C445.533 177.357 444.427 178.527 443.097 179.397C440.581 180.84 438.521 179.661 438.521 176.757C438.61 175.17 439.071 173.627 439.865 172.251C440.66 170.876 441.767 169.706 443.097 168.837Z" fill="#263238"/>
<path d="M440.001 579.04C438.865 579.053 437.747 578.761 436.762 578.195C434.439 576.858 433.242 574.112 433.242 570.469C433.46 566.59 434.587 562.817 436.531 559.454C438.475 556.091 441.183 553.233 444.436 551.109C447.586 549.349 450.613 549.014 452.919 550.352C455.225 551.69 456.439 554.435 456.439 558.078C456.225 561.958 455.101 565.732 453.156 569.096C451.211 572.46 448.501 575.318 445.245 577.438C443.669 578.425 441.859 578.977 440.001 579.04ZM449.61 551.25C448.063 551.317 446.559 551.784 445.245 552.605C442.248 554.567 439.753 557.206 437.961 560.309C436.17 563.411 435.132 566.892 434.932 570.469C434.932 573.461 435.882 575.661 437.642 576.682C439.402 577.702 441.778 577.421 444.365 575.925C447.365 573.961 449.862 571.319 451.653 568.213C453.445 565.107 454.481 561.623 454.679 558.043C454.679 555.051 453.729 552.851 451.969 551.848C451.223 551.431 450.376 551.23 449.522 551.267L449.61 551.25Z" fill="#E6E6E6"/>
<path d="M425.463 196.627L460.663 176.264C462.775 175.05 464.482 175.912 464.482 178.182C464.389 179.465 463.995 180.707 463.331 181.808C462.667 182.909 461.753 183.837 460.663 184.518L425.463 204.882C423.351 206.096 421.644 205.234 421.644 202.963C421.737 201.681 422.131 200.439 422.795 199.338C423.458 198.237 424.372 197.308 425.463 196.627Z" fill="#263238"/>
<path d="M533.791 484.158C533.791 487.872 531.186 490.23 527.948 492.096L357.562 590.462C354.341 592.328 351.719 590.832 351.719 587.101V265.126C351.832 263.097 352.419 261.123 353.434 259.362C354.449 257.602 355.863 256.104 357.562 254.989L528 156.64C531.239 154.774 533.844 156.288 533.844 160.002L533.791 484.158Z" fill="url(#paint0_linear_605_31382)"/>
<path opacity="0.75" d="M533.791 484.158C533.791 487.872 531.186 490.23 527.948 492.096L357.562 590.462C354.341 592.328 351.719 590.832 351.719 587.101V265.126C351.832 263.097 352.419 261.123 353.434 259.362C354.449 257.602 355.863 256.104 357.562 254.989L528 156.64C531.239 154.774 533.844 156.288 533.844 160.002L533.791 484.158Z" fill="white"/>
<path d="M528 156.64L357.615 254.989C355.916 256.104 354.502 257.602 353.487 259.362C352.472 261.123 351.884 263.097 351.771 265.126V286.88L533.844 181.738V160.002C533.791 156.288 531.186 154.774 528 156.64Z" fill="url(#paint1_linear_605_31382)"/>
<path d="M351.719 563.358V587.101C351.719 590.832 354.341 592.381 357.562 590.462L528 492.096C531.239 490.23 533.844 487.872 533.844 484.158V458.251L351.719 563.358Z" fill="url(#paint2_linear_605_31382)"/>
<path opacity="0.15" d="M366.696 563.728L494.014 490.16C496.954 488.4 499.294 489.843 499.294 493.24C499.197 495.086 498.669 496.883 497.752 498.487C496.835 500.092 495.555 501.459 494.014 502.48L366.696 576.048C363.757 577.808 361.416 576.365 361.416 572.968C361.513 571.122 362.041 569.325 362.958 567.721C363.875 566.116 365.155 564.748 366.696 563.728Z" fill="#11047A"/>
<path d="M508.429 479.846V483.595C508.429 484.44 508.869 485.021 509.397 484.898L515.398 483.507C515.926 483.384 515.926 483.683 515.398 484.176L509.397 489.702C508.796 490.364 508.452 491.22 508.429 492.114V495.862C508.429 496.707 508.851 496.901 509.362 496.302L523.6 479.653C524.093 479.054 524.093 478.562 523.6 478.562L509.362 478.333C508.851 478.333 508.429 479.002 508.429 479.846Z" fill="#455A64"/>
<path d="M391.424 346.104L382.378 340.824C382.199 340.751 382.051 340.621 381.955 340.454L380.301 337.55L385.581 334.453L385.422 334.91L391.424 346.104Z" fill="#E0E0E0"/>
<path d="M384.842 334.946L391.107 345.787C391.186 345.966 391.319 346.115 391.487 346.214C391.655 346.313 391.85 346.357 392.044 346.339C392.238 346.322 392.422 346.244 392.57 346.116C392.718 345.989 392.822 345.818 392.867 345.629L399.485 326.515L384.842 334.946Z" fill="#F0F0F0"/>
<path d="M450.296 256.414C450.214 254.894 449.774 253.415 449.012 252.097C448.251 250.779 447.189 249.66 445.914 248.829C444.554 248.127 443.045 247.76 441.514 247.76C439.983 247.76 438.474 248.127 437.114 248.829L366.327 289.696C365.053 290.529 363.993 291.649 363.232 292.967C362.471 294.284 362.03 295.762 361.944 297.282V333.15C362.027 334.67 362.467 336.149 363.228 337.467C363.99 338.785 365.051 339.905 366.327 340.736C367.687 341.438 369.196 341.805 370.727 341.805C372.258 341.805 373.766 341.438 375.127 340.736L446.372 299.587C450.314 297.352 450.349 295.099 450.349 292.301L450.296 256.414Z" fill="#F0F0F0"/>
<path d="M361.944 333.15C362.027 334.67 362.467 336.149 363.228 337.467C363.99 338.785 365.051 339.905 366.327 340.736C367.556 341.361 368.905 341.718 370.282 341.781C371.66 341.845 373.035 341.615 374.317 341.106C372.258 341.898 370.692 340.718 370.692 338.219V302.333C370.739 300.808 371.182 299.323 371.976 298.021L363.176 292.97C362.388 294.274 361.946 295.758 361.892 297.282L361.944 333.15Z" fill="#E0E0E0"/>
<path d="M450.138 255.2C449.628 253.44 447.938 252.754 445.914 253.915L375.074 294.782C373.777 295.583 372.715 296.713 371.994 298.056L363.194 293.005C363.923 291.672 364.984 290.55 366.274 289.749L437.114 248.882C438.477 248.188 439.985 247.826 441.514 247.826C443.044 247.826 444.551 248.188 445.914 248.882C447.013 249.59 447.955 250.516 448.681 251.603C449.408 252.69 449.904 253.914 450.138 255.2Z" fill="#FAFAFA"/>
<path d="M382.449 310.886L433.066 281.6C434.527 280.755 435.706 281.142 435.706 282.462C435.602 283.277 435.309 284.056 434.85 284.737C434.392 285.418 433.781 285.983 433.066 286.387L382.449 315.674C380.988 316.518 379.809 316.131 379.809 314.811C379.913 313.997 380.206 313.218 380.665 312.537C381.123 311.855 381.734 311.29 382.449 310.886Z" fill="#455A64"/>
<path d="M382.449 321.27L417.649 300.819C419.127 299.974 420.306 300.362 420.306 301.682C420.2 302.498 419.904 303.278 419.443 303.959C418.981 304.64 418.367 305.205 417.649 305.606L382.449 326.058C380.988 326.902 379.809 326.515 379.809 325.195C379.913 324.381 380.206 323.602 380.665 322.921C381.123 322.239 381.734 321.674 382.449 321.27Z" fill="#455A64"/>
<path d="M382.449 300.538L433.066 271.181C434.527 270.336 435.706 270.723 435.706 272.043C435.602 272.858 435.309 273.636 434.85 274.318C434.392 274.999 433.781 275.564 433.066 275.968L382.449 305.325C380.988 306.17 379.809 305.782 379.809 304.462C379.913 303.648 380.206 302.869 380.665 302.188C381.123 301.507 381.734 300.941 382.449 300.538Z" fill="#455A64"/>
<path d="M381.814 349.923L376.27 346.755C375.32 346.322 374.272 346.149 373.233 346.255C372.194 346.36 371.201 346.739 370.357 347.353C368.055 348.784 366.13 350.746 364.742 353.073C363.043 355.705 362.077 358.743 361.944 361.873C361.837 362.917 362.009 363.97 362.442 364.925C362.875 365.881 363.553 366.704 364.408 367.312L369.952 370.497C370.914 370.987 371.994 371.198 373.069 371.108C374.145 371.018 375.174 370.63 376.042 369.987C378.489 368.393 380.526 366.244 381.988 363.715C383.449 361.186 384.294 358.348 384.454 355.432C384.567 354.359 384.38 353.276 383.914 352.304C383.448 351.331 382.721 350.507 381.814 349.923Z" fill="#455A64"/>
<path d="M376.27 346.72C375.32 346.287 374.272 346.114 373.233 346.219C372.194 346.325 371.201 346.704 370.357 347.318C368.059 348.754 366.135 350.714 364.742 353.038C363.043 355.67 362.077 358.708 361.944 361.838C361.833 362.882 362.004 363.936 362.437 364.893C362.87 365.849 363.55 366.672 364.408 367.277L369.899 370.427C369.114 369.803 368.496 368.994 368.1 368.073C367.703 367.151 367.542 366.146 367.629 365.147C367.791 362.229 368.638 359.39 370.099 356.858C371.56 354.327 373.596 352.175 376.042 350.574C376.86 349.997 377.809 349.629 378.803 349.503C379.797 349.377 380.807 349.497 381.744 349.853L376.27 346.72Z" fill="#37474F"/>
<path d="M375.69 353.162C377.239 352.264 378.488 352.986 378.488 354.763C378.437 355.736 378.156 356.683 377.67 357.527C377.184 358.371 376.505 359.088 375.69 359.621C374.141 360.501 372.892 359.779 372.892 358.002C372.94 357.031 373.22 356.085 373.706 355.244C374.193 354.402 374.873 353.688 375.69 353.162Z" fill="white"/>
<path d="M376.06 368.474C378.233 367.098 380.006 365.173 381.199 362.894V362.666C381.199 359.726 379.14 358.547 376.605 360.008L375.021 360.923C373.744 361.76 372.672 362.873 371.883 364.18C371.094 365.487 370.609 366.954 370.463 368.474C370.585 368.61 370.721 368.734 370.868 368.843C371.68 369.278 372.598 369.475 373.517 369.409C374.436 369.344 375.318 369.019 376.06 368.474Z" fill="white"/>
<path d="M391.424 476.309L382.378 471.029C382.203 470.951 382.056 470.822 381.955 470.659L380.301 467.755L385.581 464.64L385.422 465.115L391.424 476.309Z" fill="#E0E0E0"/>
<path d="M384.842 465.15L391.107 475.992C391.186 476.17 391.319 476.32 391.487 476.419C391.655 476.518 391.85 476.561 392.044 476.544C392.238 476.526 392.422 476.449 392.57 476.321C392.718 476.194 392.822 476.023 392.867 475.834L399.485 456.72L384.842 465.15Z" fill="#F0F0F0"/>
<path d="M450.296 386.619C450.214 385.099 449.774 383.62 449.012 382.302C448.251 380.984 447.189 379.864 445.914 379.034C444.551 378.34 443.043 377.978 441.514 377.978C439.985 377.978 438.477 378.34 437.114 379.034L366.274 419.901C364.999 420.732 363.937 421.851 363.176 423.169C362.414 424.487 361.974 425.966 361.892 427.486V463.355C361.977 464.874 362.418 466.352 363.179 467.67C363.94 468.988 365.001 470.108 366.274 470.941C367.634 471.643 369.143 472.01 370.674 472.01C372.205 472.01 373.714 471.643 375.074 470.941L446.319 429.792C450.261 427.539 450.296 425.286 450.296 422.506V386.619Z" fill="#F0F0F0"/>
<path d="M361.944 463.355C362.03 464.874 362.471 466.352 363.232 467.67C363.993 468.988 365.053 470.108 366.327 470.941C367.556 471.566 368.905 471.922 370.282 471.986C371.66 472.05 373.035 471.82 374.317 471.31C372.258 472.085 370.692 470.923 370.692 468.424V432.52C370.746 430.997 371.188 429.513 371.976 428.208L363.176 423.174C362.386 424.478 361.944 425.963 361.892 427.486L361.944 463.355Z" fill="#E0E0E0"/>
<path d="M450.138 385.44C449.628 383.574 447.938 382.994 445.914 384.155L375.074 425.022C373.774 425.819 372.71 426.949 371.994 428.296L363.194 423.245C363.923 421.912 364.984 420.79 366.274 419.989L437.114 379.104C438.48 378.418 439.986 378.061 441.514 378.061C443.042 378.061 444.549 378.418 445.914 379.104C447.014 379.816 447.956 380.745 448.682 381.835C449.408 382.925 449.904 384.151 450.138 385.44Z" fill="#FAFAFA"/>
<path d="M382.449 441.091L433.066 411.717C434.527 410.872 435.706 411.259 435.706 412.597C435.599 413.408 435.305 414.183 434.847 414.861C434.388 415.54 433.779 416.102 433.066 416.504L382.449 445.861C380.988 446.723 379.809 446.336 379.809 444.998C379.916 444.187 380.21 443.412 380.668 442.734C381.126 442.056 381.736 441.493 382.449 441.091Z" fill="#455A64"/>
<path d="M382.449 451.458L417.649 431.024C419.127 430.179 420.306 430.566 420.306 431.886C420.2 432.702 419.904 433.482 419.443 434.164C418.981 434.845 418.367 435.409 417.649 435.811L382.449 456.245C380.988 457.09 379.809 456.702 379.809 455.382C379.913 454.568 380.206 453.789 380.665 453.108C381.123 452.426 381.734 451.861 382.449 451.458Z" fill="#455A64"/>
<path d="M382.449 430.742L433.066 401.386C434.527 400.523 435.706 400.91 435.706 402.248C435.602 403.062 435.309 403.841 434.85 404.523C434.392 405.204 433.781 405.769 433.066 406.173L382.449 435.53C380.988 436.374 379.809 435.987 379.809 434.667C379.913 433.853 380.206 433.074 380.665 432.393C381.123 431.711 381.734 431.146 382.449 430.742Z" fill="#455A64"/>
<path d="M381.814 480.128L376.27 476.96C375.32 476.527 374.272 476.354 373.233 476.459C372.194 476.565 371.201 476.944 370.357 477.558C368.055 478.989 366.13 480.951 364.742 483.278C363.043 485.91 362.077 488.948 361.944 492.078C361.837 493.122 362.009 494.175 362.442 495.13C362.875 496.086 363.553 496.909 364.408 497.517L369.952 500.685C370.911 501.181 371.991 501.397 373.067 501.31C374.144 501.223 375.174 500.836 376.042 500.192C378.491 498.596 380.53 496.444 381.992 493.912C383.453 491.38 384.297 488.539 384.454 485.619C384.566 484.549 384.378 483.469 383.912 482.5C383.446 481.53 382.72 480.709 381.814 480.128Z" fill="#455A64"/>
<path d="M376.27 476.96C375.32 476.527 374.272 476.354 373.233 476.459C372.194 476.565 371.201 476.944 370.357 477.558C368.059 478.994 366.135 480.954 364.742 483.278C363.043 485.91 362.077 488.948 361.944 492.078C361.833 493.122 362.004 494.176 362.437 495.133C362.87 496.089 363.55 496.912 364.408 497.517L369.899 500.65C369.11 500.029 368.49 499.22 368.093 498.298C367.696 497.376 367.537 496.369 367.629 495.37C367.751 492.237 368.717 489.197 370.427 486.57C371.815 484.237 373.74 482.27 376.042 480.832C376.86 480.254 377.809 479.887 378.803 479.761C379.797 479.635 380.807 479.755 381.744 480.11L376.27 476.96Z" fill="#37474F"/>
<path d="M375.69 483.349C377.239 482.469 378.488 483.19 378.488 484.968C378.437 485.938 378.156 486.883 377.67 487.724C377.184 488.565 376.505 489.279 375.69 489.808C374.141 490.706 372.892 489.984 372.892 488.206C372.943 487.234 373.224 486.287 373.71 485.443C374.196 484.599 374.875 483.881 375.69 483.349Z" fill="white"/>
<path d="M376.06 498.678C378.234 497.296 380.006 495.365 381.199 493.082V492.8C381.199 489.861 379.14 488.682 376.605 490.142L375.021 491.058C373.745 491.891 372.672 493 371.883 494.304C371.094 495.608 370.609 497.073 370.463 498.59C370.58 498.737 370.716 498.867 370.868 498.978C371.673 499.423 372.588 499.631 373.507 499.578C374.426 499.525 375.311 499.213 376.06 498.678Z" fill="white"/>
<path d="M497.288 353.285L488.242 348.005C488.064 347.932 487.915 347.802 487.819 347.635L486.147 344.731L491.533 341.634L491.357 342.109L497.288 353.285Z" fill="url(#paint3_linear_605_31382)"/>
<g opacity="0.1">
<path d="M497.288 353.285L488.242 348.005C488.064 347.932 487.915 347.802 487.819 347.635L486.147 344.731L491.533 341.634L491.357 342.109L497.288 353.285Z" fill="#11047A"/>
</g>
<path d="M490.706 342.126L496.972 352.968C497.05 353.146 497.183 353.296 497.351 353.395C497.519 353.494 497.714 353.537 497.908 353.52C498.103 353.502 498.287 353.425 498.434 353.297C498.582 353.17 498.686 352.999 498.732 352.81L505.349 333.714L490.706 342.126Z" fill="url(#paint4_linear_605_31382)"/>
<path d="M524.991 281.688C524.909 280.17 524.471 278.693 523.713 277.375C522.954 276.057 521.897 274.936 520.626 274.102C519.263 273.408 517.755 273.047 516.226 273.047C514.696 273.047 513.189 273.408 511.826 274.102L441.039 315.04C439.763 315.866 438.7 316.982 437.939 318.298C437.177 319.613 436.737 321.09 436.656 322.608V358.494C436.737 360.012 437.177 361.489 437.939 362.805C438.7 364.12 439.763 365.236 441.039 366.062C442.402 366.756 443.909 367.118 445.439 367.118C446.968 367.118 448.476 366.756 449.839 366.062L520.96 324.843C524.885 322.608 524.92 320.355 524.92 317.557L524.991 281.688Z" fill="url(#paint5_linear_605_31382)"/>
<path d="M460.205 334.4L510.805 305.043C512.266 304.198 513.463 304.586 513.463 305.906C513.357 306.722 513.061 307.502 512.599 308.183C512.138 308.864 511.524 309.429 510.805 309.83L460.205 339.187C458.745 340.032 457.548 339.645 457.548 338.325C457.654 337.509 457.95 336.729 458.411 336.047C458.873 335.366 459.487 334.802 460.205 334.4Z" fill="#455A64"/>
<path d="M475.535 335.755L510.735 315.304C512.195 314.459 513.392 314.846 513.392 316.166C513.286 316.982 512.99 317.762 512.529 318.444C512.067 319.125 511.453 319.689 510.735 320.091L475.535 340.542C474.074 341.387 472.877 341 472.877 339.68C472.983 338.864 473.279 338.084 473.741 337.403C474.202 336.721 474.816 336.157 475.535 335.755Z" fill="#455A64"/>
<path d="M460.205 324.051L510.805 294.694C512.266 293.85 513.463 294.237 513.463 295.557C513.357 296.373 513.061 297.153 512.599 297.834C512.138 298.516 511.524 299.08 510.805 299.482L460.205 328.838C458.745 329.683 457.548 329.296 457.548 327.976C457.654 327.16 457.95 326.38 458.411 325.699C458.873 325.017 459.487 324.453 460.205 324.051Z" fill="#455A64"/>
<path opacity="0.1" d="M436.656 358.442C436.737 359.959 437.177 361.437 437.939 362.752C438.7 364.067 439.763 365.184 441.039 366.01C442.274 366.627 443.624 366.978 445.004 367.042C446.383 367.106 447.76 366.88 449.047 366.379C446.987 367.154 445.421 365.974 445.421 363.475V327.606C445.473 326.083 445.916 324.598 446.706 323.294L437.906 318.243C437.118 319.548 436.676 321.032 436.621 322.555L436.656 358.442Z" fill="#11047A"/>
<path opacity="0.3" d="M524.85 280.438C524.34 278.59 522.65 277.992 520.626 279.154L449.769 320.021C448.476 320.827 447.415 321.955 446.689 323.294L437.889 318.261C438.615 316.921 439.676 315.793 440.969 314.987L511.791 274.12C513.155 273.429 514.662 273.069 516.191 273.069C517.72 273.069 519.227 273.429 520.591 274.12C521.694 274.828 522.64 275.753 523.372 276.84C524.105 277.926 524.608 279.151 524.85 280.438Z" fill="white"/>
<path d="M522.333 339.68L516.807 336.512C515.856 336.079 514.808 335.906 513.769 336.011C512.73 336.117 511.737 336.496 510.893 337.11C508.588 338.536 506.662 340.499 505.279 342.83C503.575 345.46 502.608 348.499 502.48 351.63C502.37 352.672 502.538 353.725 502.968 354.681C503.398 355.636 504.074 356.46 504.927 357.069L510.488 360.254C511.45 360.744 512.53 360.955 513.606 360.865C514.681 360.775 515.711 360.387 516.578 359.744C519.028 358.148 521.066 355.996 522.528 353.464C523.99 350.932 524.834 348.091 524.991 345.171C525.103 344.099 524.913 343.017 524.444 342.047C523.974 341.077 523.243 340.257 522.333 339.68Z" fill="#455A64"/>
<path d="M516.807 336.529C515.856 336.096 514.808 335.924 513.769 336.029C512.73 336.134 511.737 336.513 510.893 337.128C508.588 338.554 506.662 340.516 505.279 342.848C503.575 345.478 502.608 348.517 502.48 351.648C502.37 352.69 502.538 353.742 502.968 354.698C503.398 355.654 504.074 356.478 504.927 357.086L510.418 360.237C509.638 359.609 509.025 358.798 508.632 357.878C508.24 356.957 508.079 355.954 508.165 354.957C508.29 351.825 509.256 348.785 510.964 346.157C512.346 343.82 514.272 341.852 516.578 340.419C517.397 339.841 518.345 339.474 519.339 339.348C520.333 339.222 521.343 339.342 522.28 339.697L516.807 336.529Z" fill="#37474F"/>
<path d="M516.103 343.2C517.634 342.302 518.901 343.042 518.901 344.819C518.847 345.789 518.565 346.732 518.079 347.573C517.593 348.414 516.916 349.128 516.103 349.659C514.554 350.557 513.305 349.835 513.305 348.04C513.358 347.07 513.639 346.126 514.125 345.285C514.611 344.444 515.289 343.73 516.103 343.2Z" fill="url(#paint6_linear_605_31382)"/>
<path d="M516.455 358.547C518.638 357.17 520.418 355.239 521.612 352.95V352.739C521.612 349.8 519.553 348.621 517.018 350.082L515.434 350.997C514.158 351.832 513.085 352.941 512.293 354.245C511.501 355.548 511.011 357.012 510.858 358.53C510.991 358.668 511.132 358.797 511.281 358.917C512.089 359.353 513.005 359.549 513.922 359.484C514.838 359.418 515.717 359.094 516.455 358.547Z" fill="url(#paint7_linear_605_31382)"/>
<path d="M494.701 453.13L489.615 450.19C489.564 450.173 489.518 450.145 489.478 450.109C489.439 450.072 489.407 450.028 489.386 449.979L488.436 448.342L491.463 446.582L491.375 446.864L494.701 453.13Z" fill="url(#paint8_linear_605_31382)"/>
<g opacity="0.1">
<path d="M494.701 453.13L489.615 450.19C489.564 450.173 489.518 450.145 489.478 450.109C489.439 450.072 489.407 450.028 489.386 449.979L488.436 448.342L491.463 446.582L491.375 446.864L494.701 453.13Z" fill="#11047A"/>
</g>
<path d="M491.04 446.864L494.56 452.954C494.611 453.04 494.685 453.109 494.774 453.155C494.863 453.2 494.964 453.22 495.063 453.21C495.163 453.201 495.258 453.164 495.337 453.103C495.416 453.042 495.476 452.96 495.51 452.866L499.224 442.13L491.04 446.864Z" fill="url(#paint9_linear_605_31382)"/>
<path d="M518.584 416.539C518.499 415.022 518.058 413.547 517.296 412.232C516.535 410.917 515.475 409.8 514.202 408.971C512.839 408.277 511.331 407.916 509.802 407.916C508.272 407.916 506.765 408.277 505.402 408.971L480.322 423.438C479.051 424.268 477.994 425.386 477.235 426.701C476.477 428.016 476.039 429.491 475.957 431.006V440.581C476.036 442.099 476.473 443.578 477.231 444.896C477.99 446.214 479.049 447.335 480.322 448.166C481.682 448.869 483.191 449.235 484.722 449.235C486.253 449.235 487.761 448.869 489.122 448.166L514.607 433.418C518.549 431.182 518.584 428.93 518.584 426.149V416.539Z" fill="url(#paint10_linear_605_31382)"/>
<path opacity="0.1" d="M476.01 440.581C476.089 442.099 476.526 443.578 477.284 444.896C478.043 446.214 479.101 447.335 480.375 448.166C481.607 448.792 482.958 449.149 484.339 449.212C485.719 449.276 487.098 449.045 488.383 448.536C486.323 449.328 484.757 448.149 484.757 445.65V436.075C484.811 434.552 485.254 433.068 486.042 431.763L477.242 426.712C476.454 428.017 476.011 429.501 475.957 431.024L476.01 440.581Z" fill="#11047A"/>
<path opacity="0.3" d="M518.426 415.36C517.916 413.494 516.226 412.914 514.202 414.075L489.122 428.542C487.826 429.337 486.763 430.46 486.042 431.798L477.242 426.765C477.978 425.433 479.037 424.307 480.322 423.491L505.402 409.024C506.768 408.338 508.274 407.981 509.802 407.981C511.33 407.981 512.837 408.338 514.202 409.024C515.302 409.736 516.243 410.665 516.97 411.755C517.696 412.845 518.192 414.071 518.426 415.36Z" fill="white"/>
<path d="M494.438 433.365C493.739 433.819 493.158 434.432 492.742 435.154C492.326 435.876 492.087 436.686 492.044 437.518C492.044 439.032 493.1 439.666 494.438 438.891C495.134 438.439 495.713 437.828 496.129 437.109C496.545 436.391 496.785 435.584 496.831 434.755C496.831 433.224 495.758 432.608 494.438 433.365Z" fill="#455A64"/>
<path d="M502.005 428.982C501.307 429.437 500.726 430.05 500.31 430.772C499.894 431.494 499.654 432.304 499.611 433.136C499.611 434.65 500.685 435.283 502.005 434.509C502.701 434.056 503.281 433.446 503.696 432.727C504.112 432.008 504.353 431.202 504.399 430.373C504.399 428.842 503.36 428.226 502.005 428.982Z" fill="#455A64"/>
<path d="M509.591 424.6C508.895 425.053 508.315 425.663 507.899 426.382C507.483 427.1 507.243 427.907 507.197 428.736C507.197 430.267 508.271 430.883 509.591 430.126C510.296 429.667 510.882 429.045 511.298 428.314C511.714 427.582 511.95 426.761 511.984 425.92C511.984 424.459 510.911 423.843 509.591 424.6Z" fill="#455A64"/>
<path d="M522.333 441.285L516.807 438.117C515.856 437.684 514.808 437.511 513.769 437.616C512.73 437.721 511.737 438.101 510.893 438.715C508.588 440.141 506.662 442.104 505.279 444.435C503.575 447.065 502.608 450.104 502.48 453.235C502.37 454.277 502.538 455.33 502.968 456.285C503.398 457.241 504.074 458.065 504.927 458.674L510.488 461.859C511.45 462.348 512.53 462.56 513.606 462.47C514.681 462.379 515.711 461.991 516.578 461.349C519.025 459.754 521.062 457.606 522.524 455.077C523.986 452.548 524.831 449.71 524.991 446.794C525.104 445.719 524.915 444.634 524.446 443.661C523.976 442.688 523.245 441.865 522.333 441.285Z" fill="#455A64"/>
<path d="M516.807 438.117C515.856 437.684 514.808 437.511 513.769 437.616C512.73 437.721 511.737 438.101 510.893 438.715C508.588 440.141 506.662 442.104 505.279 444.435C503.575 447.065 502.608 450.104 502.48 453.235C502.37 454.277 502.538 455.33 502.968 456.285C503.398 457.241 504.074 458.065 504.927 458.674L510.418 461.824C509.638 461.196 509.025 460.386 508.632 459.465C508.24 458.544 508.079 457.541 508.165 456.544C508.29 453.412 509.256 450.372 510.964 447.744C512.351 445.411 514.276 443.444 516.578 442.006C517.397 441.429 518.345 441.061 519.339 440.935C520.333 440.809 521.343 440.929 522.28 441.285L516.807 438.117Z" fill="#37474F"/>
<path d="M516.103 444.805C517.634 443.925 518.901 444.646 518.901 446.424C518.847 447.394 518.565 448.337 518.079 449.178C517.593 450.018 516.916 450.733 516.103 451.264C514.554 452.162 513.305 451.44 513.305 449.645C513.358 448.675 513.639 447.731 514.125 446.89C514.611 446.049 515.289 445.335 516.103 444.805Z" fill="url(#paint11_linear_605_31382)"/>
<path d="M516.455 460.134C518.638 458.757 520.418 456.826 521.612 454.538V454.326C521.612 451.387 519.553 450.208 517.018 451.669L515.434 452.584C514.158 453.419 513.085 454.529 512.293 455.832C511.501 457.135 511.011 458.599 510.858 460.117C510.991 460.255 511.132 460.384 511.281 460.504C512.089 460.94 513.005 461.136 513.922 461.071C514.838 461.006 515.717 460.681 516.455 460.134Z" fill="url(#paint12_linear_605_31382)"/>
<path d="M675.118 376.816L666.072 371.536C665.896 371.452 665.749 371.317 665.65 371.149L663.995 368.245L669.363 365.147L669.187 365.622L675.118 376.816Z" fill="#E0E0E0"/>
<path d="M668.535 365.658L674.801 376.499C674.88 376.678 675.012 376.827 675.18 376.926C675.348 377.025 675.543 377.069 675.738 377.051C675.932 377.034 676.116 376.956 676.263 376.828C676.411 376.701 676.515 376.53 676.561 376.341L683.108 357.28L668.535 365.658Z" fill="#F0F0F0"/>
<path d="M733.919 287.126C733.834 285.607 733.393 284.129 732.632 282.812C731.871 281.494 730.811 280.374 729.537 279.541C728.177 278.839 726.668 278.472 725.137 278.472C723.606 278.472 722.097 278.839 720.737 279.541L649.897 320.39C648.624 321.223 647.564 322.344 646.802 323.661C646.041 324.979 645.6 326.457 645.515 327.976V363.845C645.597 365.365 646.037 366.844 646.799 368.162C647.56 369.48 648.622 370.6 649.897 371.43C651.26 372.124 652.768 372.486 654.297 372.486C655.826 372.486 657.334 372.124 658.697 371.43L729.942 330.264C733.867 328.029 733.919 325.776 733.919 322.978V287.126Z" fill="#F0F0F0"/>
<path d="M645.638 363.862C645.72 365.382 646.16 366.861 646.922 368.179C647.683 369.497 648.745 370.617 650.02 371.448C651.252 372.066 652.601 372.417 653.978 372.478C655.355 372.538 656.729 372.307 658.011 371.8C655.951 372.592 654.385 371.413 654.385 368.914V333.045C654.437 331.521 654.879 330.036 655.67 328.733L646.87 323.682C646.082 324.986 645.639 326.47 645.585 327.994L645.638 363.862Z" fill="#E0E0E0"/>
<path d="M733.92 285.877C733.409 284.029 731.72 283.43 729.696 284.592L658.768 325.459C657.471 326.26 656.408 327.39 655.688 328.733L646.888 323.699C647.614 322.36 648.675 321.232 649.968 320.426L720.79 279.558C722.154 278.867 723.661 278.507 725.19 278.507C726.719 278.507 728.226 278.867 729.59 279.558C730.706 280.259 731.666 281.182 732.41 282.268C733.155 283.355 733.669 284.583 733.92 285.877Z" fill="#F5F5F5"/>
<path d="M666.142 341.598L716.742 312.242C718.22 311.397 719.4 311.784 719.4 313.104C719.293 313.92 718.997 314.7 718.536 315.381C718.075 316.063 717.46 316.627 716.742 317.029L666.142 346.386C664.681 347.23 663.502 346.843 663.502 345.523C663.607 344.709 663.9 343.93 664.358 343.249C664.816 342.567 665.427 342.002 666.142 341.598Z" fill="#455A64"/>
<path d="M666.142 352L701.342 331.549C702.803 330.704 704 331.091 704 332.411C703.893 333.227 703.597 334.007 703.136 334.689C702.675 335.37 702.06 335.934 701.342 336.336L666.142 356.787C664.681 357.632 663.502 357.245 663.502 355.925C663.607 355.11 663.9 354.332 664.358 353.65C664.816 352.969 665.427 352.404 666.142 352Z" fill="#455A64"/>
<path d="M666.142 331.25L716.742 301.893C718.22 301.048 719.4 301.435 719.4 302.755C719.293 303.571 718.997 304.351 718.536 305.033C718.075 305.714 717.46 306.278 716.742 306.68L666.142 336.037C664.681 336.882 663.502 336.494 663.502 335.174C663.607 334.36 663.9 333.581 664.358 332.9C664.816 332.218 665.427 331.653 666.142 331.25Z" fill="#455A64"/>
<path d="M178.938 239.096L187.985 233.816C188.164 233.737 188.313 233.601 188.407 233.429L190.167 230.525L184.782 227.427L184.958 227.902L178.938 239.096Z" fill="url(#paint13_linear_605_31382)"/>
<g opacity="0.1">
<path d="M178.938 239.096L187.985 233.816C188.164 233.737 188.313 233.601 188.407 233.429L190.167 230.525L184.782 227.427L184.958 227.902L178.938 239.096Z" fill="#11047A"/>
</g>
<path d="M185.521 227.92L179.256 238.762C179.177 238.94 179.044 239.089 178.876 239.188C178.708 239.287 178.513 239.331 178.319 239.314C178.124 239.296 177.941 239.218 177.793 239.091C177.645 238.963 177.541 238.793 177.496 238.603L170.878 219.507L185.521 227.92Z" fill="url(#paint14_linear_605_31382)"/>
<path d="M151.236 167.482C151.317 165.964 151.757 164.487 152.519 163.171C153.28 161.856 154.343 160.74 155.619 159.914C156.982 159.22 158.489 158.858 160.019 158.858C161.548 158.858 163.056 159.22 164.419 159.914L235.276 200.781C236.547 201.611 237.605 202.728 238.363 204.043C239.121 205.358 239.559 206.833 239.641 208.349V244.235C239.559 245.751 239.121 247.226 238.363 248.541C237.605 249.856 236.547 250.973 235.276 251.803C233.913 252.497 232.406 252.859 230.876 252.859C229.347 252.859 227.839 252.497 226.476 251.803L155.196 210.637C151.272 208.402 151.236 206.149 151.236 203.368V167.482Z" fill="url(#paint15_linear_605_31382)"/>
<path d="M216.022 220.194L165.44 190.837C163.979 189.992 162.8 190.379 162.8 191.699C162.904 192.514 163.197 193.292 163.656 193.974C164.114 194.655 164.725 195.22 165.44 195.624L216.04 224.981C217.518 225.826 218.697 225.438 218.697 224.118C218.589 223.301 218.291 222.52 217.826 221.838C217.361 221.157 216.744 220.593 216.022 220.194Z" fill="#F4F7FE"/>
<path d="M200.64 221.549L165.44 201.098C163.979 200.253 162.8 200.64 162.8 201.96C162.899 202.781 163.19 203.567 163.648 204.254C164.107 204.942 164.72 205.513 165.44 205.92L200.64 226.371C202.101 227.216 203.297 226.829 203.297 225.509C203.196 224.687 202.903 223.9 202.441 223.212C201.979 222.524 201.362 221.954 200.64 221.549Z" fill="#F4F7FE"/>
<path d="M216.022 209.845L165.44 180.488C163.979 179.643 162.8 180.03 162.8 181.35C162.904 182.165 163.197 182.944 163.656 183.625C164.114 184.306 164.725 184.871 165.44 185.275L216.022 214.72C217.501 215.565 218.68 215.178 218.68 213.858C218.587 213.026 218.297 212.228 217.835 211.531C217.373 210.833 216.751 210.255 216.022 209.845Z" fill="#F4F7FE"/>
<path opacity="0.1" d="M239.571 244.235C239.489 245.751 239.051 247.226 238.293 248.541C237.534 249.856 236.477 250.973 235.206 251.803C233.974 252.429 232.623 252.785 231.242 252.849C229.861 252.913 228.483 252.682 227.198 252.173C229.257 252.947 230.824 251.768 230.824 249.286V213.4C230.769 211.877 230.327 210.393 229.539 209.088L238.339 204.054C239.131 205.351 239.573 206.83 239.624 208.349L239.571 244.235Z" fill="#11047A"/>
<path opacity="0.3" d="M151.359 166.25C151.87 164.384 153.559 163.803 155.583 164.965L226.459 205.92C227.755 206.714 228.817 207.838 229.539 209.176L238.339 204.142C237.602 202.81 236.543 201.685 235.259 200.869L164.366 159.914C163.002 159.222 161.495 158.862 159.966 158.862C158.437 158.862 156.93 159.222 155.566 159.914C154.471 160.629 153.534 161.559 152.81 162.649C152.087 163.738 151.593 164.963 151.359 166.25Z" fill="white"/>
<path d="M597.977 259.054L588.226 253.422C588.033 253.343 587.872 253.2 587.769 253.018L586.009 249.885L591.799 246.541L591.623 247.051L597.977 259.054Z" fill="#263238"/>
<path d="M590.885 247.016L597.626 258.702C597.73 258.848 597.871 258.964 598.035 259.037C598.198 259.111 598.378 259.141 598.556 259.123C598.735 259.105 598.905 259.041 599.051 258.936C599.196 258.831 599.312 258.69 599.386 258.526L606.426 237.934L590.885 247.016Z" fill="#37474F"/>
<path d="M670.929 107.923C670.842 106.287 670.369 104.694 669.549 103.275C668.73 101.856 667.586 100.65 666.212 99.7568L662.375 97.5392C660.915 96.793 659.299 96.4039 657.659 96.4039C656.019 96.4039 654.402 96.793 652.942 97.5392L562.284 149.899C560.91 150.793 559.767 151.998 558.947 153.417C558.127 154.836 557.655 156.429 557.567 158.066V245.502C557.655 247.139 558.127 248.732 558.947 250.151C559.767 251.57 560.91 252.775 562.284 253.669L566.121 255.886C567.581 256.633 569.198 257.022 570.838 257.022C572.478 257.022 574.094 256.633 575.555 255.886L666.652 203.21C670.894 200.798 670.929 198.37 670.929 195.36V107.923Z" fill="#37474F"/>
<path d="M557.567 245.502C557.655 247.139 558.127 248.732 558.947 250.151C559.767 251.57 560.91 252.775 562.284 253.669L566.121 255.886C567.449 256.558 568.904 256.941 570.39 257.01C571.876 257.08 573.36 256.835 574.745 256.291C572.527 257.118 570.838 255.851 570.838 253.176V165.722C570.895 164.079 571.374 162.479 572.228 161.075L558.958 153.419C558.101 154.822 557.622 156.423 557.567 158.066V245.502Z" fill="#263238"/>
<path d="M670.771 106.586C670.225 104.579 668.395 103.946 666.212 105.195L575.52 157.555C574.124 158.42 572.977 159.633 572.193 161.075L558.923 153.419C559.712 151.981 560.858 150.769 562.249 149.899L652.96 97.5392C654.424 96.8079 656.039 96.4272 657.676 96.4272C659.314 96.4272 660.928 96.8079 662.393 97.5392L666.248 99.7568C667.424 100.53 668.431 101.534 669.208 102.708C669.986 103.882 670.517 105.201 670.771 106.586Z" fill="#455A64"/>
<path d="M580.184 171.582C580.214 171.074 580.364 170.579 580.621 170.139C580.878 169.699 581.234 169.325 581.662 169.048L656.48 125.805C656.937 125.58 657.44 125.463 657.949 125.463C658.459 125.463 658.962 125.58 659.419 125.805L661.073 126.755C661.496 127.036 661.847 127.412 662.101 127.851C662.354 128.291 662.502 128.783 662.534 129.29V186.701C662.502 187.21 662.354 187.704 662.101 188.147C661.848 188.589 661.496 188.968 661.073 189.253L586.238 232.496C585.781 232.721 585.278 232.838 584.768 232.838C584.259 232.838 583.756 232.721 583.299 232.496L581.662 231.546C581.234 231.265 580.878 230.887 580.621 230.444C580.364 230.001 580.215 229.505 580.184 228.994V171.582Z" fill="url(#paint16_linear_605_31382)"/>
<path opacity="0.4" d="M580.184 171.582C580.214 171.074 580.364 170.579 580.621 170.139C580.878 169.699 581.234 169.325 581.662 169.048L656.48 125.805C656.937 125.58 657.44 125.463 657.949 125.463C658.459 125.463 658.962 125.58 659.419 125.805L661.073 126.755C661.496 127.036 661.847 127.412 662.101 127.851C662.354 128.291 662.502 128.783 662.534 129.29V186.701C662.502 187.21 662.354 187.704 662.101 188.147C661.848 188.589 661.496 188.968 661.073 189.253L586.238 232.496C585.781 232.721 585.278 232.838 584.768 232.838C584.259 232.838 583.756 232.721 583.299 232.496L581.662 231.546C581.234 231.265 580.878 230.887 580.621 230.444C580.364 230.001 580.215 229.505 580.184 228.994V171.582Z" fill="white"/>
<path d="M587.048 173.87L580.624 170.139C580.358 170.576 580.207 171.072 580.184 171.582V228.994C580.215 229.505 580.364 230.001 580.621 230.444C580.878 230.887 581.234 231.265 581.662 231.546L583.299 232.496C583.756 232.721 584.259 232.838 584.768 232.838C585.278 232.838 585.781 232.721 586.238 232.496L587.048 232.021V173.87Z" fill="url(#paint17_linear_605_31382)"/>
<path opacity="0.3" d="M587.048 173.87L580.624 170.139C580.358 170.576 580.207 171.072 580.184 171.582V228.994C580.215 229.505 580.364 230.001 580.621 230.444C580.878 230.887 581.234 231.265 581.662 231.546L583.299 232.496C583.756 232.721 584.259 232.838 584.768 232.838C585.278 232.838 585.781 232.721 586.238 232.496L587.048 232.021V173.87Z" fill="#11047A"/>
<path d="M662.604 129.29V186.718C662.575 187.195 662.441 187.659 662.213 188.079C661.985 188.499 661.668 188.863 661.284 189.147H661.196L586.238 232.496C586.093 232.596 585.925 232.658 585.75 232.676C585.575 232.695 585.398 232.669 585.235 232.602C585.078 232.498 584.954 232.352 584.876 232.181C584.798 232.01 584.77 231.82 584.795 231.634V174.24C584.779 174.035 584.814 173.829 584.896 173.64C584.979 173.451 585.107 173.286 585.269 173.159C585.431 173.032 585.622 172.947 585.825 172.911C586.028 172.876 586.236 172.891 586.432 172.955L617.936 180.435L622.054 181.421C622.542 181.51 623.045 181.466 623.51 181.293C623.975 181.119 624.384 180.823 624.694 180.435L629.464 173.782L661.636 128.99C662.164 128.216 662.604 128.357 662.604 129.29Z" fill="url(#paint18_linear_605_31382)"/>
<path d="M661.144 189.253H661.232C661.584 189.002 661.879 188.678 662.094 188.302C662.367 187.862 662.525 187.359 662.552 186.842L629.394 173.87L651.587 194.832L661.144 189.253Z" fill="url(#paint19_linear_605_31382)"/>
<path opacity="0.2" d="M661.144 189.253H661.232C661.584 189.002 661.879 188.678 662.094 188.302C662.367 187.862 662.525 187.359 662.552 186.842L629.394 173.87L651.587 194.832L661.144 189.253Z" fill="#11047A"/>
<path d="M584.777 231.634C584.753 231.82 584.781 232.01 584.859 232.181C584.936 232.352 585.061 232.498 585.217 232.602C585.38 232.669 585.557 232.695 585.732 232.676C585.908 232.658 586.075 232.596 586.221 232.496L612.005 217.606L617.901 180.418L584.76 230.683L584.777 231.634Z" fill="url(#paint20_linear_605_31382)"/>
<path opacity="0.2" d="M584.777 231.634C584.753 231.82 584.781 232.01 584.859 232.181C584.936 232.352 585.061 232.498 585.217 232.602C585.38 232.669 585.557 232.695 585.732 232.676C585.908 232.658 586.075 232.596 586.221 232.496L612.005 217.606L617.901 180.418L584.76 230.683L584.777 231.634Z" fill="#11047A"/>
<path d="M662.146 188.197C661.931 188.572 661.636 188.896 661.284 189.147L586.238 232.496C586.092 232.596 585.925 232.658 585.749 232.676C585.574 232.695 585.397 232.669 585.234 232.602L621.103 175.349C621.824 174.206 622.93 173.359 624.222 172.961C625.514 172.564 626.905 172.643 628.143 173.184L662.146 188.197Z" fill="url(#paint21_linear_605_31382)"/>
<path opacity="0.3" d="M585.376 172.85L619.52 187.898C620.754 188.459 622.15 188.55 623.446 188.155C624.742 187.76 625.85 186.905 626.56 185.75L662.218 128.48L585.376 172.85Z" fill="#11047A"/>
<path d="M585.376 172.85L619.696 185.68C620.883 186.121 622.185 186.146 623.387 185.749C624.59 185.352 625.622 184.558 626.314 183.498L662.218 128.48L585.376 172.85Z" fill="url(#paint22_linear_605_31382)"/>
<path d="M690.729 86.24L682.879 81.576C680.169 80.0448 676.438 80.2736 672.319 82.6496C664.03 87.4368 657.307 99.088 657.307 108.68C657.307 113.45 658.979 116.811 661.689 118.395L669.063 122.619L670.383 120.402C671.902 120.037 673.356 119.443 674.695 118.642C683.003 113.837 689.726 102.186 689.726 92.6112C689.723 91.3177 689.564 90.0294 689.251 88.7744L690.729 86.24Z" fill="#F28F8F"/>
<path d="M679.782 87.0144C671.493 91.8016 664.77 103.453 664.77 113.027C664.77 122.602 671.493 126.509 679.782 121.704C688.072 116.899 694.813 105.266 694.813 95.6912C694.813 86.1168 688.16 82.2272 679.782 87.0144Z" fill="#FFA8A7"/>
<path d="M674.414 104.773C674.316 104.629 674.278 104.452 674.308 104.28C674.342 104.061 674.42 103.852 674.537 103.664L678.902 96.624L679.306 96.0256C679.448 95.812 679.634 95.6318 679.852 95.4976L682.316 94.0544C682.376 94.015 682.447 93.994 682.519 93.994C682.59 93.994 682.661 94.015 682.721 94.0544C682.777 94.1087 682.82 94.1748 682.847 94.2478C682.875 94.3209 682.886 94.3991 682.879 94.4768V112.077C682.875 112.286 682.82 112.491 682.721 112.675C682.629 112.856 682.489 113.008 682.316 113.115L679.659 114.664C679.603 114.707 679.535 114.73 679.465 114.73C679.395 114.73 679.327 114.707 679.271 114.664C679.215 114.61 679.172 114.544 679.145 114.471C679.117 114.398 679.106 114.319 679.113 114.242V102.344L676.684 106.198C676.596 106.365 676.453 106.496 676.279 106.568C676.227 106.609 676.161 106.632 676.094 106.632C676.027 106.632 675.962 106.609 675.91 106.568L674.414 104.773Z" fill="white"/>
<path d="M709.913 545.934C705.636 540.971 702.187 533.931 700.656 532.47C696.203 528.229 691.68 468.16 691.68 468.16C702.081 467.808 707.66 471.68 709.456 479.67C711.251 487.661 718.379 526.31 718.379 526.31" fill="#FFA8A7"/>
<path d="M646.535 550.405C641.361 560.859 628.583 592.328 623.514 614.099C618.762 634.48 616.914 648.595 623.514 653.523C630.114 658.451 648.999 655.459 660.967 629.992C664.716 622.019 678.814 597.414 678.814 597.414C678.814 597.414 689.233 593.666 692.894 590.85C692.894 590.85 727.671 591.853 744.567 588.403C761.463 584.954 779.433 564.291 772.516 562.267C760.073 558.606 735.82 555.949 707.748 554.136L646.535 550.405Z" fill="#37474F"/>
<path d="M727.918 584.038C720.314 585.798 709.05 583.44 702.679 581.592C703.07 579.354 702.998 577.06 702.468 574.851C702.115 577.83 701.157 580.705 699.652 583.299C698.614 583.898 697.716 584.39 697.082 584.707C692.858 586.872 681.242 592.803 679.095 590.938C675.85 586.751 671.243 583.831 666.071 582.683C669.714 585.13 680.257 592.68 676.508 601.445L678.814 597.414C678.814 597.414 689.233 593.666 692.894 590.85C692.894 590.85 712.254 591.413 729.22 590.251L749.249 576.382C749.249 576.382 739.586 575.819 727.918 584.038Z" fill="#263238"/>
<path d="M708.435 608.379C704.792 611.67 699.23 614.31 695.323 613.501C691.416 612.691 685.819 612.304 683.637 620.101C681.155 628.901 673.077 634.339 668.642 639.197C664.206 644.054 665.597 651.341 667.92 656.374C671.827 664.858 677.53 659.736 680.698 654.35C683.866 648.965 693.158 639.091 697.646 634.99C702.621 630.046 707.912 625.431 713.486 621.174L708.435 608.379Z" fill="#FFA8A7"/>
<path d="M760.813 561.616C782.584 559.398 783.024 572.686 777.427 581.68C771.39 591.36 748.352 603.31 737.07 609.048C725.789 614.786 710.037 623.797 710.037 623.797C706.669 620.201 704.552 615.615 704 610.72C716.32 602.061 728.446 579.814 749.126 576.382L760.813 561.616Z" fill="#37474F"/>
<path d="M696.766 613.642C696.282 613.631 695.8 613.584 695.323 613.501C691.416 612.674 685.819 612.304 683.637 620.101C681.155 628.901 673.077 634.339 668.642 639.197C664.206 644.054 665.597 651.341 667.92 656.374C671.827 664.858 677.53 659.736 680.698 654.35C682.425 651.646 684.361 649.08 686.488 646.677C685.509 647.841 684.124 648.59 682.614 648.769C681.103 648.949 679.581 648.547 678.357 647.645C676.755 646.254 677.934 641.362 680.909 638.07C683.883 634.779 694.707 613.378 696.766 613.642Z" fill="#263238"/>
<path d="M699.477 611.072C703.454 610.069 709.297 608.643 711.709 605.475C714.12 602.307 719.118 599.227 725.894 603.715C733.568 608.766 743.177 607.57 749.725 608.291C756.272 609.013 759.985 615.472 761.534 620.787C764.157 629.763 756.624 626.701 750.71 624.712C744.797 622.723 731.051 620.858 725.225 621.632C719.4 622.406 704.792 626.102 704.792 626.102L699.477 611.072Z" fill="#FFA8A7"/>
<path d="M747.894 623.85C748.932 624.114 749.9 624.378 750.71 624.659C756.623 626.648 764.156 629.71 761.534 620.734C759.985 615.454 756.254 608.978 749.724 608.238C743.195 607.499 733.567 608.714 725.894 603.662C719.118 599.227 714.119 602.29 711.708 605.422C711.425 605.776 711.113 606.106 710.775 606.408C710.775 606.408 718.572 608.819 727.161 611.301C735.75 613.782 750.287 618.077 750.833 620.294C751.238 621.949 751.519 623.955 747.894 623.85Z" fill="#263238"/>
<path d="M619.942 647.68C621.21 655.424 629.886 659.155 648.49 655.424C667.093 651.693 707.168 626.261 707.168 626.261C707.168 626.261 709.632 613.149 699.459 610.28C699.459 610.28 690.202 612.04 675.101 615.243C668.284 616.745 661.551 618.608 654.931 620.822C644.723 634.515 634.093 628.989 630.291 633.811C623.902 641.89 619.942 647.68 619.942 647.68Z" fill="#37474F"/>
<path d="M667.797 617.021C660.095 618.649 652.73 621.59 646.025 625.715C646.025 625.715 655.547 614.557 670.261 612.55L667.797 617.021Z" fill="#263238"/>
<path d="M704.897 517.018C705.742 524.938 707.696 554.136 707.696 554.136C701.553 574.851 653.857 570.68 644.635 554.435C647.582 547.688 649.978 540.713 651.798 533.579L646.729 511.421C646.729 511.421 658.856 500.368 646.729 477.805L662.763 473L691.68 468.16C696.555 468.424 704.827 479.6 708.012 487.766C710.036 492.994 711.673 503.606 704.897 517.018Z" fill="url(#paint23_linear_605_31382)"/>
<path opacity="0.15" d="M679.888 568.181C659.876 567.336 650.654 555.034 650.865 551.795C651.591 547.051 652.578 542.35 653.822 537.715L661.32 540.654L655.142 531.643L650.865 512.442C655.388 505.806 653.153 493.803 653.153 493.803L651.904 493.064C653.364 505.384 646.729 511.421 646.729 511.421L651.798 533.579C649.976 540.701 647.58 547.664 644.635 554.4C649.528 563.059 665.28 568.286 679.888 568.181Z" fill="#11047A"/>
<path d="M679.659 460.469L669.099 460.75C665.615 460.846 662.147 460.255 658.892 459.01C655.637 457.765 652.66 455.891 650.13 453.495C647.6 451.099 645.566 448.228 644.146 445.045C642.726 441.863 641.947 438.432 641.854 434.949C641.739 430.776 642.447 426.621 643.938 422.722C645.43 418.822 647.674 415.255 650.544 412.223C653.414 409.191 656.853 406.755 660.665 405.052C664.477 403.35 668.586 402.415 672.759 402.301C676.933 402.186 681.087 402.894 684.987 404.385C688.886 405.876 692.453 408.121 695.485 410.991C698.517 413.861 700.954 417.3 702.656 421.112C704.358 424.923 705.293 429.033 705.407 433.206C705.602 440.234 702.999 447.052 698.172 452.163C693.344 457.275 686.686 460.262 679.659 460.469Z" fill="#263238"/>
<path d="M647.081 419.496L639.179 416.733C639.331 416.198 639.592 415.7 639.946 415.271C640.299 414.841 640.737 414.489 641.232 414.237C641.728 413.984 642.27 413.836 642.825 413.802C643.38 413.769 643.936 413.849 644.459 414.04C645.511 414.441 646.369 415.23 646.857 416.245C647.345 417.26 647.425 418.424 647.081 419.496Z" fill="#263238"/>
<path d="M646.993 417.454L644.564 409.464C645.082 409.27 645.634 409.184 646.186 409.212C646.739 409.24 647.279 409.381 647.775 409.627C648.27 409.873 648.709 410.219 649.065 410.642C649.421 411.065 649.687 411.556 649.844 412.086C650.16 413.176 650.039 414.346 649.507 415.348C648.975 416.35 648.073 417.106 646.993 417.454Z" fill="#263238"/>
<path d="M692.788 415.994C696.203 417.894 700.585 426.219 700.655 443.942C700.655 458.955 695.956 462.792 693.615 463.918C691.275 465.045 686.47 464.534 681.876 463.918L681.964 470.131C681.964 470.131 690.219 479.16 689.919 483.296C689.62 487.432 679.359 489.579 673.34 485.707C668.976 482.531 665.174 478.647 662.094 474.214L661.636 453.411C661.636 453.411 659.014 456.104 654.332 452.232C650.478 449.029 649.052 443.432 651.921 440.44C652.66 439.697 653.566 439.141 654.564 438.82C655.562 438.499 656.622 438.421 657.655 438.593C658.689 438.766 659.667 439.183 660.506 439.81C661.346 440.438 662.023 441.257 662.481 442.2C662.481 442.2 669.785 442.2 679.359 436.656C683.06 434.505 686.204 431.514 688.536 427.925C690.869 424.336 692.325 420.249 692.788 415.994Z" fill="#FFA8A7"/>
<path d="M683.795 440.616C683.829 440.871 683.812 441.13 683.743 441.377C683.674 441.625 683.555 441.856 683.393 442.055C683.232 442.255 683.031 442.42 682.803 442.539C682.576 442.659 682.326 442.73 682.07 442.749C681.814 442.769 681.556 442.735 681.313 442.651C681.07 442.567 680.847 442.434 680.658 442.261C680.468 442.087 680.316 441.877 680.211 441.643C680.105 441.408 680.049 441.155 680.046 440.898C680.011 440.643 680.028 440.384 680.097 440.136C680.166 439.889 680.285 439.658 680.447 439.458C680.609 439.258 680.809 439.094 681.037 438.974C681.265 438.855 681.514 438.783 681.77 438.764C682.027 438.745 682.284 438.778 682.527 438.862C682.77 438.946 682.993 439.079 683.183 439.253C683.372 439.426 683.524 439.637 683.63 439.871C683.735 440.106 683.791 440.359 683.795 440.616Z" fill="#263238"/>
<path d="M684.639 453.323L689.057 454.608C688.986 454.904 688.855 455.182 688.673 455.427C688.491 455.671 688.262 455.875 687.999 456.028C687.736 456.181 687.444 456.279 687.142 456.317C686.84 456.354 686.533 456.329 686.241 456.245C685.647 456.061 685.147 455.654 684.848 455.108C684.549 454.563 684.474 453.923 684.639 453.323Z" fill="#F28F8F"/>
<path d="M699.106 434.403L695.199 431.869C695.354 431.607 695.56 431.38 695.805 431.2C696.051 431.021 696.33 430.892 696.626 430.823C696.921 430.754 697.228 430.746 697.528 430.798C697.827 430.851 698.113 430.964 698.367 431.13C698.888 431.475 699.255 432.008 699.393 432.618C699.531 433.228 699.428 433.867 699.106 434.403Z" fill="#263238"/>
<path d="M698.35 438.856C698.376 439.11 698.352 439.367 698.277 439.611C698.202 439.855 698.079 440.081 697.915 440.277C697.75 440.472 697.548 440.633 697.321 440.749C697.093 440.864 696.845 440.933 696.59 440.95C696.086 440.984 695.59 440.819 695.208 440.489C694.826 440.16 694.589 439.693 694.548 439.19C694.53 438.943 694.56 438.695 694.638 438.459C694.715 438.223 694.838 438.005 695 437.818C695.162 437.63 695.359 437.475 695.581 437.364C695.802 437.252 696.043 437.185 696.291 437.166C696.538 437.148 696.786 437.178 697.022 437.256C697.258 437.333 697.476 437.457 697.663 437.618C697.851 437.78 698.006 437.977 698.117 438.199C698.229 438.42 698.296 438.661 698.315 438.909L698.35 438.856Z" fill="#263238"/>
<path d="M689.814 437.078L690.026 449.363L695.957 447.357L689.814 437.078Z" fill="#F28F8F"/>
<path d="M681.806 463.901C676.966 463.39 666.951 460.803 665.297 456.861C665.981 458.826 667.245 460.538 668.922 461.771C671.95 464.235 681.894 466.822 681.894 466.822L681.806 463.901Z" fill="#F28F8F"/>
<path d="M650.002 604.419V605.845C649.993 606.555 650.172 607.255 650.521 607.874C650.87 608.492 651.378 609.007 651.991 609.365L690.148 631.312C690.756 631.669 691.449 631.858 692.154 631.858C692.86 631.858 693.552 631.669 694.161 631.312L764.156 590.832C764.775 590.479 765.288 589.966 765.641 589.347C765.994 588.727 766.174 588.025 766.162 587.312V586.344L692.154 629.059L650.002 604.419Z" fill="#EBEBEB"/>
<path d="M766.163 586.414L724.662 562.443C724.297 562.235 723.885 562.125 723.465 562.125C723.045 562.125 722.633 562.235 722.268 562.443L650.267 604.032C650.186 604.078 650.119 604.145 650.073 604.225C650.026 604.306 650.002 604.397 650.002 604.49C650.002 604.582 650.026 604.674 650.073 604.754C650.119 604.834 650.186 604.901 650.267 604.947L692.155 629.147L766.163 586.414Z" fill="#FAFAFA"/>
<path d="M718.344 526.24C723.923 534.354 736.577 551.989 742.262 562.091C745.535 567.917 741.417 573.566 732.476 571.173C726.58 569.606 718.115 555.474 709.913 545.899" fill="#FFA8A7"/>
<path d="M691.786 625.61L669.398 612.709L734.853 574.904L757.363 587.752L691.786 625.61Z" fill="#E0E0E0"/>
<path d="M680.768 589.688L681.19 589.934L692.155 596.27L711.673 585.006L712.078 584.778L700.691 578.195L680.768 589.688Z" fill="#E0E0E0"/>
<path d="M681.19 589.934L692.155 596.27L711.674 585.006L700.691 578.67L681.19 589.934Z" fill="#E6E6E6"/>
<path d="M692.154 629.13V631.84C692.86 631.843 693.553 631.654 694.161 631.294L764.156 590.814C764.775 590.461 765.288 589.948 765.641 589.329C765.994 588.71 766.174 588.007 766.162 587.294V586.326L692.154 629.13Z" fill="#EBEBEB"/>
<g opacity="0.5">
<path d="M692.154 629.13V631.84C692.86 631.843 693.553 631.654 694.161 631.294L764.156 590.814C764.775 590.461 765.288 589.948 765.641 589.329C765.994 588.71 766.174 588.007 766.162 587.294V586.326L692.154 629.13Z" fill="#E0E0E0"/>
</g>
<path d="M693.281 629.728C693.942 629.983 694.652 630.087 695.359 630.032C696.065 629.977 696.751 629.765 697.364 629.411L767.06 589.178C767.669 588.831 768.192 588.352 768.591 587.776C768.99 587.201 769.255 586.543 769.366 585.851L777.004 540.32C777.022 540.062 777.022 539.803 777.004 539.546C777.006 538.919 776.884 538.297 776.646 537.718C776.407 537.138 776.057 536.611 775.614 536.166L703.19 578.002C702.734 578.254 702.339 578.604 702.035 579.027C701.731 579.45 701.524 579.935 701.43 580.448L693.281 629.728Z" fill="url(#paint24_linear_605_31382)"/>
<g opacity="0.7">
<path d="M693.281 629.728C693.942 629.983 694.652 630.087 695.359 630.032C696.065 629.977 696.751 629.765 697.364 629.411L767.06 589.178C767.669 588.831 768.192 588.352 768.591 587.776C768.99 587.201 769.255 586.543 769.366 585.851L777.004 540.32C777.022 540.062 777.022 539.803 777.004 539.546C777.006 538.919 776.884 538.297 776.646 537.718C776.407 537.138 776.057 536.611 775.614 536.166L703.19 578.002C702.734 578.254 702.339 578.604 702.035 579.027C701.731 579.45 701.524 579.935 701.43 580.448L693.281 629.728Z" fill="white"/>
</g>
<path d="M692.154 629.147L692.63 629.411C692.839 629.531 693.057 629.637 693.281 629.728L701.535 580.448C701.629 579.935 701.836 579.45 702.14 579.027C702.444 578.604 702.839 578.254 703.295 578.002L775.719 536.166C775.423 535.893 775.098 535.651 774.751 535.445L702.169 577.333C701.71 577.587 701.315 577.94 701.01 578.366C700.706 578.792 700.5 579.281 700.409 579.797L692.154 629.147Z" fill="#FAFAFA"/>
<path d="M732.546 587.717C733.637 583.91 736.16 580.674 739.586 578.688C742.948 576.734 745.271 577.632 744.761 580.677C743.659 584.482 741.139 587.72 737.721 589.723C734.342 591.659 732.036 590.762 732.546 587.717Z" fill="url(#paint25_linear_605_31382)"/>
<path d="M655.952 596.182C652.115 593.542 627.668 575.749 617.9 568.181C607.728 560.296 608.344 557.762 609.576 552.077C612.004 540.848 627.422 505.49 631.664 495C636.416 483.296 637.507 481.818 646.729 477.805C653.1 482.838 656.656 495.176 648.084 512.178L630.625 553.256C630.625 553.256 642.259 565.576 649.14 572.088C656.022 578.6 662.094 585.904 667.233 586.467C671.316 586.907 678.55 587.189 680.099 588.614C683.886 592.434 687.414 596.503 690.659 600.794C692.12 603.187 695.587 608.062 690.659 609.594C686.171 611.002 682.51 609.083 678.849 606.584C677.138 605.348 675.51 604.001 673.974 602.554C670.322 602.961 666.634 602.23 663.414 600.459C660.598 598.91 655.952 596.182 655.952 596.182Z" fill="#FFA8A7"/>
<path d="M642.998 493.803H643.508C645.987 493.802 648.439 493.304 650.723 492.341C653.006 491.377 655.073 489.967 656.803 488.193C658.534 486.418 659.891 484.316 660.797 482.009C661.702 479.702 662.137 477.237 662.076 474.76L661.601 454.96C659.159 454.958 656.74 455.437 654.483 456.37C652.226 457.303 650.176 458.671 648.448 460.397C646.72 462.123 645.35 464.173 644.414 466.429C643.479 468.685 642.998 471.103 642.998 473.546V493.803Z" fill="#263238"/>
<path d="M148.949 428.05C147.189 431.834 141.522 437.325 134.957 430.25C125.365 419.883 109.561 383.082 109.561 383.082L119.945 378.277L141.065 407.176L152.346 419.707" fill="#FFA8A7"/>
<path d="M151.747 357.386C146.766 374.088 136.752 411.294 136.752 411.294L148.949 428.05C151.127 423.757 152.986 419.31 154.51 414.744C156.64 408.936 163.68 385.757 163.68 385.757C163.68 385.757 162.184 352.317 167.411 347.846C170.231 345.35 173.489 343.399 177.021 342.091C168.696 342.76 156.288 342.091 151.747 357.386Z" fill="#FFA8A7"/>
<path d="M128.34 359.797C125.576 354.658 124.82 354.429 123.253 353.302C121.687 352.176 111.549 350.68 107.413 350.328C102.485 349.906 100.743 350.821 102.133 355.045C105.055 364.091 113.925 383.293 115.914 385.95C117.216 387.71 117.48 389.294 122.954 389.84C128.111 390.333 134.588 390.614 136.488 390.738C138.389 390.861 141.029 391.318 139.322 385.722C137.145 379.379 134.631 373.157 131.789 367.083C129.66 362.56 128.34 359.797 128.34 359.797Z" fill="#263238"/>
<path d="M109.56 383.082C107.501 374 101.464 365.622 104.879 362.56L106.639 366.573C106.639 366.573 117.938 369.283 123.394 368.861C128.85 368.438 133.303 367.101 134.799 368.192C137.967 370.427 138.882 379.931 129.8 383.398C122.162 386.32 109.56 383.082 109.56 383.082Z" fill="#FFA8A7"/>
<path d="M177.76 339.117C167.763 339.222 156.763 342.866 152.979 350.698C149.195 358.53 142.19 387.2 142.19 387.2C145.093 389.853 148.518 391.869 152.247 393.118C155.975 394.367 159.924 394.821 163.838 394.451L177.76 339.117Z" fill="url(#paint26_linear_605_31382)"/>
<path opacity="0.1" d="M177.76 339.117C167.763 339.222 156.763 342.866 152.979 350.698C149.195 358.53 142.19 387.2 142.19 387.2C145.093 389.853 148.518 391.869 152.247 393.118C155.975 394.367 159.924 394.821 163.838 394.451L177.76 339.117Z" fill="#11047A"/>
<path d="M221.197 627.757H207.363V647.891H221.197V627.757Z" fill="#FFA8A7"/>
<path d="M172.57 602.835L158.744 603.311L159.436 623.433L173.262 622.958L172.57 602.835Z" fill="#FFA8A7"/>
<path d="M220.282 431.2C220.282 444.418 222.042 529.76 222.042 529.76C222.359 533.544 225.914 540.549 225.157 555.139C224.101 574.974 222.394 630.027 222.394 630.027C222.394 630.027 215.9 636.469 206.748 630.027C206.748 630.027 194.234 555.21 191.753 535.568C189.588 518.426 185.927 471.856 185.927 471.856L178.887 527.754C178.887 527.754 181.14 540.654 181.633 549.736C182.125 558.818 173.519 610.298 173.519 610.298C171.28 611.702 168.711 612.493 166.07 612.591C163.429 612.69 160.809 612.093 158.471 610.861C158.471 610.861 153.191 535.181 151.713 526.979C150.234 518.778 155.602 431.2 155.602 431.2H220.282Z" fill="#37474F"/>
<path d="M199.461 339.68C201.08 340.067 214.403 343.2 220.282 345.189V431.2C210.584 441.76 176.774 446.67 155.602 431.2V363.792C155.602 353.021 161.586 340.085 178.112 339.152L199.461 339.68Z" fill="#EBEBEB"/>
<path d="M204.161 284.627C205.272 284.5 206.398 284.627 207.453 284.999C208.508 285.371 209.465 285.978 210.25 286.774C212.873 289.45 212.327 294.413 210.25 305.8L202.154 306.733L204.161 284.627Z" fill="#263238"/>
<path d="M156.939 281.336C155.198 281.344 153.473 280.996 151.87 280.315C149.389 278.89 148.738 281.706 150.11 284.152C151.008 285.909 152.343 287.407 153.985 288.501C155.628 289.595 157.524 290.249 159.491 290.4C159.491 290.048 161.814 284.064 161.814 284.064L156.939 281.336Z" fill="#263238"/>
<path d="M200.323 306.733C201.52 307.454 203.245 305.149 204.723 303.6C206.202 302.051 211.042 299.922 213.523 305.008C216.005 310.094 211.394 317.029 207.574 318.226C201.027 320.285 200.042 316.078 200.042 316.078L199.461 339.68C198.019 342.843 195.82 345.602 193.056 347.711C190.293 349.82 187.052 351.215 183.621 351.771C171.987 353.355 174.381 343.746 178.2 339.046V331.848C175.291 332.31 172.341 332.463 169.4 332.306C164.56 331.566 161.533 327.747 160.072 322.52C157.714 314.142 156.816 307.366 158.822 290.84C161.005 272.747 182.037 272.571 193.406 279.717C204.776 286.862 200.323 306.733 200.323 306.733Z" fill="#FFA8A7"/>
<path d="M200.323 308.757C200.922 308.757 203.227 304.955 204.723 303.6C206.8 301.699 204.125 284.627 204.125 284.627C204.125 284.627 206.219 278.15 202.118 273.856C198.018 269.562 190.08 270.336 184.29 270.09C177.161 270.122 170.101 268.703 163.539 265.918C155.302 262.398 154.739 261.923 153.666 265.531C152.592 269.139 152.258 277.446 157.186 282.99L161.286 284.504C161.286 284.504 163.486 286.458 171.178 287.39C178.273 287.927 185.403 287.798 192.474 287.003C194.709 286.686 195.184 288.851 196.381 294.747C197.419 299.939 198.299 308.722 200.323 308.757Z" fill="#263238"/>
<path d="M204.161 285.965L211.43 282.058C211.191 281.573 210.858 281.142 210.449 280.789C210.04 280.436 209.564 280.17 209.05 280.006C208.535 279.841 207.993 279.782 207.455 279.833C206.918 279.883 206.396 280.041 205.921 280.298C204.958 280.837 204.238 281.726 203.911 282.78C203.583 283.835 203.673 284.974 204.161 285.965Z" fill="#263238"/>
<path d="M178.13 331.918C178.13 331.918 188.901 329.754 192.667 327.747C194.908 326.602 196.749 324.804 197.947 322.59C197.38 324.798 196.375 326.869 194.991 328.68C192.245 332.2 178.2 334.787 178.2 334.787L178.13 331.918Z" fill="#F28F8F"/>
<path d="M180.717 304.04C180.735 304.464 180.876 304.874 181.124 305.218C181.372 305.562 181.716 305.826 182.113 305.976C182.51 306.127 182.942 306.157 183.356 306.064C183.77 305.971 184.147 305.758 184.441 305.452C184.735 305.146 184.933 304.76 185.01 304.343C185.086 303.926 185.039 303.495 184.872 303.105C184.706 302.714 184.429 302.381 184.075 302.147C183.721 301.913 183.307 301.788 182.882 301.787C182.592 301.792 182.305 301.854 182.039 301.97C181.772 302.086 181.532 302.253 181.33 302.463C181.129 302.672 180.971 302.919 180.866 303.19C180.761 303.461 180.71 303.75 180.717 304.04Z" fill="#263238"/>
<path d="M183.04 295.891L187.669 298.443C187.996 297.809 188.067 297.074 187.867 296.39C187.667 295.705 187.212 295.123 186.595 294.765C186.29 294.596 185.953 294.491 185.606 294.456C185.259 294.422 184.908 294.458 184.576 294.564C184.243 294.669 183.935 294.841 183.671 295.069C183.407 295.298 183.192 295.577 183.04 295.891Z" fill="#263238"/>
<path d="M179.115 318.947L174.24 320.795C174.345 321.127 174.516 321.435 174.743 321.699C174.97 321.963 175.249 322.178 175.561 322.331C175.874 322.484 176.215 322.572 176.562 322.589C176.91 322.606 177.258 322.553 177.584 322.432C178.237 322.158 178.761 321.644 179.046 320.995C179.33 320.347 179.356 319.614 179.115 318.947Z" fill="#F28F8F"/>
<path d="M161.462 297.686L165.686 294.448C165.489 294.163 165.236 293.922 164.942 293.738C164.648 293.554 164.32 293.432 163.977 293.38C163.635 293.327 163.285 293.344 162.949 293.431C162.614 293.518 162.3 293.672 162.026 293.885C161.464 294.327 161.093 294.967 160.988 295.674C160.884 296.38 161.053 297.101 161.462 297.686Z" fill="#263238"/>
<path d="M162.765 303.424C162.783 303.848 162.924 304.258 163.172 304.602C163.42 304.946 163.764 305.21 164.161 305.36C164.558 305.511 164.99 305.541 165.404 305.448C165.818 305.355 166.195 305.142 166.489 304.836C166.783 304.53 166.981 304.144 167.057 303.727C167.134 303.31 167.086 302.879 166.92 302.489C166.754 302.098 166.477 301.765 166.123 301.531C165.769 301.297 165.354 301.172 164.93 301.171C164.64 301.176 164.353 301.238 164.087 301.354C163.82 301.47 163.58 301.637 163.378 301.847C163.177 302.056 163.019 302.303 162.914 302.574C162.809 302.845 162.758 303.134 162.765 303.424Z" fill="#263238"/>
<path d="M173.765 301.382L173.061 314.354L166.285 312.048L173.765 301.382Z" fill="#F28F8F"/>
<path d="M207.363 641.062V639.091C206.043 639.654 202.963 651.411 197.472 656.392C193.107 660.37 187.158 664.963 185.645 669.398C184.131 673.834 193.934 676.562 197.965 675.84C202.699 674.995 210.901 671.669 212.96 668.571C215.019 665.474 215.987 660.933 217.659 658.662C219.331 656.392 223.185 653.875 224.101 651.253C224.593 649.81 223.995 646.659 223.309 643.984C222.622 641.309 221.971 638.862 221.126 639.091V640.64C219.162 642.186 216.727 643.012 214.227 642.981C212.256 642.998 207.345 642.611 207.363 641.062Z" fill="#263238"/>
<path d="M159.28 619.168C158.559 619.168 157.978 620.206 156.394 621.914C154.03 624.308 151.281 626.289 148.263 627.774C143.088 630.362 133.021 634.357 128.463 636.398C125.611 637.683 125.752 641.115 128.691 643.069C131.631 645.022 138.741 646.448 147.259 644.53C151.906 643.491 157.96 639.25 161.779 639.443C165.599 639.637 172.779 639.619 175.595 637.683C178.411 635.747 177.355 631.576 176.493 628.003C175.631 624.096 174.381 618.13 173.096 618.394V619.626C171.442 622.142 162.976 623.146 159.315 621.386L159.28 619.168Z" fill="#263238"/>
<path d="M245.696 421.52C246.558 417.366 237.248 376.13 233.605 363.088L217.466 381.92L227.392 422.611C225.542 433.993 222.836 445.218 219.296 456.192C218.649 457.895 217.395 459.299 215.776 460.134C211.464 462.44 209.634 464.974 206.307 468.019C203.702 470.395 201.59 470.888 201.854 471.733C202.262 472.656 203.004 473.392 203.93 473.793C204.856 474.194 205.9 474.232 206.853 473.898C208.987 473.221 211.037 472.299 212.96 471.152C211.272 474.784 209.014 478.124 206.272 481.043C200.006 487.731 199.461 492.078 211.13 492.958C218.434 493.522 224.576 489.438 231.176 473.598C233.077 469.075 235.47 462.475 237.266 456.509C241.49 442.446 243.707 431.2 245.696 421.52Z" fill="#FFA8A7"/>
<path d="M211.975 370.093C207.575 359.99 209.775 348.163 214.65 343.57C226.97 345.699 230.191 351.56 233.606 363.088C238.886 380.864 241.508 392.41 241.508 392.41C238.41 396.528 226.073 401.315 220.282 399.555L211.975 370.093Z" fill="url(#paint27_linear_605_31382)"/>
<path opacity="0.1" d="M211.975 370.093C207.575 359.99 209.775 348.163 214.65 343.57C226.97 345.699 230.191 351.56 233.606 363.088C238.886 380.864 241.508 392.41 241.508 392.41C238.41 396.528 226.073 401.315 220.282 399.555L211.975 370.093Z" fill="#11047A"/>
<path opacity="0.1" d="M220.282 399.555L214.65 379.579L220.282 417.155V399.555Z" fill="#11047A"/>
<path d="M185.874 471.909C178.727 469.68 172.155 465.914 166.619 460.874C166.619 460.874 170.333 467.826 181.386 474.302L180.787 512.318L185.874 471.909Z" fill="#263238"/>
<defs>
<linearGradient id="paint0_linear_605_31382" x1="353.779" y1="155.841" x2="656.086" y2="284.839" gradientUnits="userSpaceOnUse">
<stop stop-color="#868CFF"/>
<stop offset="1" stop-color="#4318FF"/>
</linearGradient>
<linearGradient id="paint1_linear_605_31382" x1="353.831" y1="155.841" x2="472.547" y2="324.119" gradientUnits="userSpaceOnUse">
<stop stop-color="#868CFF"/>
<stop offset="1" stop-color="#4318FF"/>
</linearGradient>
<linearGradient id="paint2_linear_605_31382" x1="353.779" y1="458.251" x2="474.894" y2="627.401" gradientUnits="userSpaceOnUse">
<stop stop-color="#868CFF"/>
<stop offset="1" stop-color="#4318FF"/>
</linearGradient>
<linearGradient id="paint3_linear_605_31382" x1="486.273" y1="341.634" x2="497.474" y2="352.56" gradientUnits="userSpaceOnUse">
<stop stop-color="#868CFF"/>
<stop offset="1" stop-color="#4318FF"/>
</linearGradient>
<linearGradient id="paint4_linear_605_31382" x1="490.872" y1="333.714" x2="509.188" y2="347.526" gradientUnits="userSpaceOnUse">
<stop stop-color="#868CFF"/>
<stop offset="1" stop-color="#4318FF"/>
</linearGradient>
<linearGradient id="paint5_linear_605_31382" x1="437.656" y1="273.047" x2="528.036" y2="359.629" gradientUnits="userSpaceOnUse">
<stop stop-color="#868CFF"/>
<stop offset="1" stop-color="#4318FF"/>
</linearGradient>
<linearGradient id="paint6_linear_605_31382" x1="513.368" y1="342.817" x2="520.13" y2="348.159" gradientUnits="userSpaceOnUse">
<stop stop-color="#868CFF"/>
<stop offset="1" stop-color="#4318FF"/>
</linearGradient>
<linearGradient id="paint7_linear_605_31382" x1="510.98" y1="349.455" x2="520.598" y2="359.964" gradientUnits="userSpaceOnUse">
<stop stop-color="#868CFF"/>
<stop offset="1" stop-color="#4318FF"/>
</linearGradient>
<linearGradient id="paint8_linear_605_31382" x1="488.506" y1="446.582" x2="494.801" y2="452.728" gradientUnits="userSpaceOnUse">
<stop stop-color="#868CFF"/>
<stop offset="1" stop-color="#4318FF"/>
</linearGradient>
<linearGradient id="paint9_linear_605_31382" x1="491.133" y1="442.13" x2="501.377" y2="449.847" gradientUnits="userSpaceOnUse">
<stop stop-color="#868CFF"/>
<stop offset="1" stop-color="#4318FF"/>
</linearGradient>
<linearGradient id="paint10_linear_605_31382" x1="476.439" y1="407.916" x2="516.122" y2="449.681" gradientUnits="userSpaceOnUse">
<stop stop-color="#868CFF"/>
<stop offset="1" stop-color="#4318FF"/>
</linearGradient>
<linearGradient id="paint11_linear_605_31382" x1="513.368" y1="444.43" x2="520.124" y2="449.773" gradientUnits="userSpaceOnUse">
<stop stop-color="#868CFF"/>
<stop offset="1" stop-color="#4318FF"/>
</linearGradient>
<linearGradient id="paint12_linear_605_31382" x1="510.98" y1="451.043" x2="520.598" y2="461.551" gradientUnits="userSpaceOnUse">
<stop stop-color="#868CFF"/>
<stop offset="1" stop-color="#4318FF"/>
</linearGradient>
<linearGradient id="paint13_linear_605_31382" x1="179.065" y1="227.427" x2="190.285" y2="238.441" gradientUnits="userSpaceOnUse">
<stop stop-color="#868CFF"/>
<stop offset="1" stop-color="#4318FF"/>
</linearGradient>
<linearGradient id="paint14_linear_605_31382" x1="171.044" y1="219.507" x2="189.36" y2="233.319" gradientUnits="userSpaceOnUse">
<stop stop-color="#868CFF"/>
<stop offset="1" stop-color="#4318FF"/>
</linearGradient>
<linearGradient id="paint15_linear_605_31382" x1="152.236" y1="158.858" x2="242.555" y2="245.514" gradientUnits="userSpaceOnUse">
<stop stop-color="#868CFF"/>
<stop offset="1" stop-color="#4318FF"/>
</linearGradient>
<linearGradient id="paint16_linear_605_31382" x1="581.115" y1="125.463" x2="681.341" y2="203.881" gradientUnits="userSpaceOnUse">
<stop stop-color="#868CFF"/>
<stop offset="1" stop-color="#4318FF"/>
</linearGradient>
<linearGradient id="paint17_linear_605_31382" x1="580.261" y1="170.139" x2="593.563" y2="171.625" gradientUnits="userSpaceOnUse">
<stop stop-color="#868CFF"/>
<stop offset="1" stop-color="#4318FF"/>
</linearGradient>
<linearGradient id="paint18_linear_605_31382" x1="585.666" y1="128.489" x2="682.271" y2="202.097" gradientUnits="userSpaceOnUse">
<stop stop-color="#868CFF"/>
<stop offset="1" stop-color="#4318FF"/>
</linearGradient>
<linearGradient id="paint19_linear_605_31382" x1="629.769" y1="173.87" x2="647.819" y2="203.001" gradientUnits="userSpaceOnUse">
<stop stop-color="#868CFF"/>
<stop offset="1" stop-color="#4318FF"/>
</linearGradient>
<linearGradient id="paint20_linear_605_31382" x1="585.135" y1="180.418" x2="630.977" y2="210.073" gradientUnits="userSpaceOnUse">
<stop stop-color="#868CFF"/>
<stop offset="1" stop-color="#4318FF"/>
</linearGradient>
<linearGradient id="paint21_linear_605_31382" x1="586.104" y1="172.712" x2="641.752" y2="245.521" gradientUnits="userSpaceOnUse">
<stop stop-color="#868CFF"/>
<stop offset="1" stop-color="#4318FF"/>
</linearGradient>
<linearGradient id="paint22_linear_605_31382" x1="586.245" y1="128.48" x2="639.046" y2="200.404" gradientUnits="userSpaceOnUse">
<stop stop-color="#868CFF"/>
<stop offset="1" stop-color="#4318FF"/>
</linearGradient>
<linearGradient id="paint23_linear_605_31382" x1="645.372" y1="468.16" x2="734.045" y2="527.078" gradientUnits="userSpaceOnUse">
<stop stop-color="#868CFF"/>
<stop offset="1" stop-color="#4318FF"/>
</linearGradient>
<linearGradient id="paint24_linear_605_31382" x1="694.228" y1="536.166" x2="784.108" y2="617.953" gradientUnits="userSpaceOnUse">
<stop stop-color="#868CFF"/>
<stop offset="1" stop-color="#4318FF"/>
</linearGradient>
<linearGradient id="paint25_linear_605_31382" x1="732.615" y1="577.654" x2="745.195" y2="589.767" gradientUnits="userSpaceOnUse">
<stop stop-color="#868CFF"/>
<stop offset="1" stop-color="#4318FF"/>
</linearGradient>
<linearGradient id="paint26_linear_605_31382" x1="142.593" y1="339.117" x2="191.463" y2="371.093" gradientUnits="userSpaceOnUse">
<stop stop-color="#868CFF"/>
<stop offset="1" stop-color="#4318FF"/>
</linearGradient>
<linearGradient id="paint27_linear_605_31382" x1="209.963" y1="343.57" x2="256.908" y2="370.681" gradientUnits="userSpaceOnUse">
<stop stop-color="#868CFF"/>
<stop offset="1" stop-color="#4318FF"/>
</linearGradient>
</defs>
</svg>
