<svg width="26" height="25" viewBox="0 0 26 25" fill="none" xmlns="http://www.w3.org/2000/svg">
<path d="M22.6663 6C22.6663 3.79086 20.8755 1.33333 18.6663 1.33333H7.73301C5.4928 1.33333 4.37269 1.33333 3.51705 1.7693C2.7644 2.1528 2.15248 2.76472 1.76898 3.51737C1.33301 4.37301 1.33301 5.49312 1.33301 7.73333V18C1.33301 18.6192 1.33301 18.9288 1.36723 19.1888C1.60354 20.9837 3.01597 22.3961 4.8109 22.6324C5.07083 22.6667 6.04711 22.6667 6.66634 22.6667M5.33301 10H11.9997M5.33301 5.33333H14.6663M9.33301 16.6667C9.33301 17.7712 8.43758 18.6667 7.33301 18.6667C6.22844 18.6667 5.33301 17.7712 5.33301 16.6667C5.33301 15.5621 6.22844 14.6667 7.33301 14.6667C8.43758 14.6667 9.33301 15.5621 9.33301 16.6667ZM10.9269 23.8593L12.68 23.5129C13.6259 23.326 14.0989 23.2325 14.5399 23.0603C14.9314 22.9075 15.3034 22.7089 15.6483 22.4688C16.0368 22.1982 16.3778 21.8573 17.0596 21.1754L23.9242 14.3109C24.8405 13.3945 24.8405 11.9088 23.9242 10.9925C23.0078 10.0762 21.5221 10.0762 20.6058 10.9925L13.6239 17.9744C12.985 18.6133 12.6656 18.9328 12.4076 19.2949C12.1785 19.6163 11.9859 19.9622 11.8332 20.3262C11.6611 20.7362 11.5578 21.176 11.351 22.0555L10.9269 23.8593Z" stroke="#A3AED0" stroke-width="2" stroke-linecap="round" stroke-linejoin="round"/>
</svg>
