<svg width="90" height="104" viewBox="0 0 90 104" fill="none" xmlns="http://www.w3.org/2000/svg">
<path d="M89.301 67.9255V21.8195C89.301 10.1023 79.768 0.572998 68.0545 0.572998H21.9447C10.2275 0.572998 0.698242 10.106 0.698242 21.8195V67.8995C0.698242 67.9107 0.698242 67.9181 0.698242 67.9293V82.1842C0.698242 93.9014 10.2313 103.431 21.9485 103.431H68.0582C79.7755 103.431 89.3048 93.8976 89.3048 82.1842L89.301 67.9255ZM5.16336 21.8195C5.16336 12.5656 12.6908 5.03811 21.9447 5.03811H68.0545C77.3085 5.03811 84.8359 12.5656 84.8359 21.8195V67.9255C84.8359 77.1795 77.3085 84.7069 68.0545 84.7069H21.9447C12.6908 84.7069 5.16336 77.1795 5.16336 67.9255V21.8195ZM84.8359 82.1842C84.8359 91.4381 77.3085 98.9656 68.0545 98.9656H21.9447C12.6908 98.9656 5.15964 91.4381 5.15964 82.1842V80.9339C9.05173 85.9423 15.1243 89.1758 21.9447 89.1758H68.0545C74.8713 89.1758 80.9475 85.9423 84.8359 80.9339V82.1842Z" fill="#F4F7FE"/>
<path d="M14.0941 30.7314C15.3257 30.7314 16.3266 29.7305 16.3266 28.4989V22.9286C16.3266 19.2189 19.3443 16.2012 23.0541 16.2012H28.628C29.8597 16.2012 30.8606 15.2003 30.8606 13.9686C30.8606 12.737 29.8597 11.7361 28.628 11.7361H23.0578C16.8848 11.7361 11.8652 16.7593 11.8652 22.9286V28.4989C11.8615 29.7342 12.8625 30.7314 14.0941 30.7314Z" fill="#F4F7FE"/>
<path d="M55.5256 67.2375H34.4763C33.6093 67.2375 32.8242 66.7352 32.4558 65.9538C32.0875 65.1724 32.2065 64.2459 32.7609 63.5798L50.1935 42.6124C51.053 41.4738 51.5107 40.1157 51.5107 38.6905C51.5107 35.1036 48.5898 32.1826 45.0028 32.1826C41.4158 32.1826 38.4986 35.1036 38.4986 38.6905C38.4986 39.9222 37.4977 40.9231 36.2661 40.9231C35.0344 40.9231 34.0335 39.9222 34.0335 38.6905C34.0335 32.6403 38.9526 27.7175 45.0028 27.7175C51.053 27.7175 55.9758 32.6403 55.9758 38.6905C55.9758 41.1203 55.1944 43.4273 53.7172 45.3585C53.6986 45.3808 53.68 45.4068 53.6614 45.4292L39.2428 62.7761H55.533C56.7647 62.7761 57.7656 63.7771 57.7656 65.0087C57.7656 66.2403 56.7572 67.2375 55.5256 67.2375Z" fill="#FFCE20"/>
</svg>
