<svg width="26" height="26" viewBox="0 0 26 26" fill="none" xmlns="http://www.w3.org/2000/svg">
<path d="M10.7352 15.26L23.8033 2.19663M11.1067 15.8474L14.0699 21.7739C14.786 23.2061 15.144 23.9222 15.5951 24.1142C15.9865 24.2808 16.434 24.2507 16.7995 24.033C17.2207 23.7822 17.4795 23.0245 17.9969 21.5092L23.5957 5.11253C24.0466 3.79218 24.272 3.13201 24.1177 2.6953C23.9835 2.31537 23.6846 2.01653 23.3047 1.8823C22.868 1.728 22.2078 1.95343 20.8875 2.40428L4.49082 8.00314C2.9755 8.52057 2.21784 8.77928 1.96702 9.20049C1.74936 9.56603 1.7192 10.0135 1.88584 10.4049C2.07787 10.856 2.79396 11.214 4.22614 11.9301L10.1526 14.8934C10.3886 15.0114 10.5066 15.0704 10.6088 15.1492C10.6996 15.2191 10.7809 15.3004 10.8508 15.3912C10.9297 15.4934 10.9887 15.6114 11.1067 15.8474Z" stroke="#A3AED0" stroke-width="2" stroke-linecap="round" stroke-linejoin="round"/>
</svg>
