<svg width="26" height="26" viewBox="0 0 26 26" fill="none" xmlns="http://www.w3.org/2000/svg">
<path d="M17.0001 13C17.0001 15.2091 15.2092 17 13.0001 17C10.7909 17 9.00005 15.2091 9.00005 13C9.00005 10.7909 10.7909 9 13.0001 9C15.2092 9 17.0001 10.7909 17.0001 13Z" stroke="#A3AED0" stroke-width="2" stroke-linecap="round" stroke-linejoin="round"/>
<path d="M7.19118 3.91859L7.08935 5.1405C7.03609 5.77965 7.00946 6.09923 6.87163 6.34884C6.75014 6.56888 6.56893 6.75009 6.3489 6.87158C6.09929 7.0094 5.7797 7.03604 5.14055 7.0893L3.91865 7.19112C2.55012 7.30517 1.86586 7.36219 1.52856 7.67481C1.23502 7.94686 1.07922 8.33637 1.10416 8.73581C1.13281 9.19481 1.58899 9.70801 2.50134 10.7344L3.25537 11.5827C3.70114 12.0842 3.92403 12.3349 4.00867 12.6179C4.08324 12.8672 4.08324 13.1328 4.00867 13.3821C3.92403 13.6651 3.70114 13.9158 3.25537 14.4173L2.50134 15.2656C1.58899 16.292 1.13281 16.8052 1.10416 17.2642C1.07922 17.6636 1.23502 18.0531 1.52856 18.3252C1.86586 18.6378 2.55013 18.6948 3.91865 18.8089L5.14055 18.9107C5.77971 18.964 6.09929 18.9906 6.3489 19.1284C6.56893 19.2499 6.75014 19.4311 6.87163 19.6512C7.00946 19.9008 7.03609 20.2204 7.08935 20.8595L7.19118 22.0814C7.30522 23.4499 7.36224 24.1342 7.67486 24.4715C7.94691 24.765 8.33642 24.9208 8.73586 24.8959C9.19487 24.8672 9.70806 24.4111 10.7345 23.4987L11.5827 22.7447C12.0842 22.2989 12.335 22.076 12.6179 21.9914C12.8672 21.9168 13.1329 21.9168 13.3822 21.9914C13.6651 22.076 13.9159 22.2989 14.4174 22.7447L15.2657 23.4987C16.292 24.411 16.8052 24.8672 17.2642 24.8959C17.6637 24.9208 18.0532 24.765 18.3252 24.4715C18.6379 24.1342 18.6949 23.4499 18.8089 22.0814L18.9108 20.8595C18.964 20.2203 18.9906 19.9008 19.1285 19.6512C19.25 19.4311 19.4312 19.2499 19.6512 19.1284C19.9008 18.9906 20.2204 18.964 20.8596 18.9107L22.0815 18.8089C23.45 18.6948 24.1342 18.6378 24.4715 18.3252C24.7651 18.0531 24.9209 17.6636 24.8959 17.2642C24.8673 16.8052 24.4111 16.292 23.4988 15.2656L22.7447 14.4173C22.299 13.9158 22.0761 13.6651 21.9914 13.3821C21.9169 13.1328 21.9169 12.8672 21.9914 12.6179C22.0761 12.3349 22.299 12.0842 22.7447 11.5827L23.4988 10.7344C24.4111 9.70801 24.8673 9.19481 24.8959 8.73581C24.9209 8.33637 24.7651 7.94686 24.4715 7.67481C24.1342 7.36219 23.45 7.30517 22.0815 7.19112L20.8596 7.0893C20.2204 7.03604 19.9008 7.0094 19.6512 6.87158C19.4312 6.75009 19.25 6.56888 19.1285 6.34884C18.9906 6.09923 18.964 5.77965 18.9108 5.1405L18.8089 3.91859C18.6949 2.55007 18.6379 1.86581 18.3252 1.5285C18.0532 1.23497 17.6637 1.07917 17.2642 1.1041C16.8052 1.13276 16.292 1.58894 15.2657 2.50128L14.4174 3.25532C13.9159 3.70109 13.6651 3.92397 13.3822 4.00862C13.1329 4.08318 12.8672 4.08318 12.6179 4.00862C12.335 3.92397 12.0842 3.70109 11.5827 3.25532L10.7345 2.50128C9.70806 1.58894 9.19487 1.13276 8.73586 1.1041C8.33642 1.07917 7.94691 1.23497 7.67486 1.5285C7.36224 1.86581 7.30522 2.55007 7.19118 3.91859Z" stroke="#A3AED0" stroke-width="2" stroke-linecap="round" stroke-linejoin="round"/>
</svg>
